<svg width="1920" height="1080" viewBox="0 0 1920 1080" fill="none" xmlns="http://www.w3.org/2000/svg">
<g clip-path="url(#clip0_919_337)">
<path d="M-3488.52 434.907C-3490.64 438.618 -3492.9 443.125 -3495.28 448.426C-3497.67 453.463 -3499.79 458.5 -3501.64 463.537C-3505.09 475.201 -3509.99 488.588 -3516.36 503.698C-3522.45 518.543 -3530.14 534.051 -3539.42 550.222C-3548.43 566.128 -3558.9 581.503 -3570.83 596.348C-3589.92 619.146 -3612.19 639.823 -3637.64 658.38C-3662.82 676.936 -3694.1 693.637 -3731.48 708.482L-3778.4 666.333C-3751.36 658.38 -3728.03 649.234 -3708.42 638.896C-3688.8 628.557 -3671.7 617.556 -3657.12 605.892C-3642.54 593.962 -3629.55 581.37 -3618.15 568.116C-3608.87 557.777 -3600.39 546.113 -3592.7 533.124C-3585.02 519.869 -3578.39 506.747 -3572.82 493.757C-3567.25 480.768 -3563.54 469.369 -3561.69 459.56H-3695.69L-3677.4 414.627C-3673.69 414.627 -3667.99 414.627 -3660.3 414.627C-3652.35 414.627 -3643.47 414.627 -3633.66 414.627C-3623.59 414.627 -3613.78 414.627 -3604.24 414.627C-3594.43 414.627 -3585.94 414.627 -3578.79 414.627C-3571.36 414.627 -3566.33 414.627 -3563.68 414.627C-3557.58 414.627 -3551.48 414.229 -3545.38 413.434C-3539.02 412.639 -3533.59 411.446 -3529.08 409.855L-3488.52 434.907ZM-3618.15 372.08C-3622.92 378.972 -3627.56 386.395 -3632.07 394.347C-3636.58 402.3 -3640.02 408.397 -3642.41 412.639C-3651.42 428.544 -3662.56 445.113 -3675.81 462.344C-3688.8 479.31 -3703.65 495.878 -3720.35 512.049C-3737.05 527.954 -3754.81 542.534 -3773.63 555.789L-3818.56 522.785C-3801.07 511.916 -3785.69 500.782 -3772.44 489.383C-3758.92 477.984 -3747.25 466.718 -3737.44 455.584C-3727.64 444.185 -3719.29 433.316 -3712.39 422.977C-3705.24 412.374 -3699.14 402.963 -3694.1 394.745C-3690.92 389.708 -3687.61 383.214 -3684.16 375.261C-3680.71 367.043 -3678.06 359.62 -3676.21 352.993L-3618.15 372.08ZM-3129.06 373.67C-3129.32 379.237 -3129.72 385.334 -3130.25 391.962C-3130.51 398.324 -3130.65 405.481 -3130.65 413.434C-3130.65 420.327 -3130.65 428.677 -3130.65 438.485C-3130.65 448.294 -3130.65 458.102 -3130.65 467.911C-3130.65 477.454 -3130.65 485.539 -3130.65 492.167C-3130.65 513.374 -3131.71 531.931 -3133.83 547.836C-3135.68 563.742 -3138.6 577.659 -3142.58 589.588C-3146.55 601.518 -3151.46 612.121 -3157.29 621.399C-3162.86 630.413 -3169.35 639.028 -3176.77 647.246C-3185.52 656.789 -3195.59 665.405 -3206.99 673.093C-3218.39 680.515 -3229.92 686.745 -3241.59 691.782C-3252.99 697.083 -3263.59 701.325 -3273.4 704.506L-3315.15 660.766C-3295.27 656.259 -3277.38 650.029 -3261.47 642.077C-3245.3 633.859 -3231.25 623.388 -3219.32 610.663C-3212.43 602.976 -3206.86 595.288 -3202.62 587.6C-3198.38 579.912 -3195.2 571.429 -3193.08 562.151C-3190.69 552.608 -3189.1 541.872 -3188.3 529.942C-3187.24 518.013 -3186.71 504.361 -3186.71 488.986C-3186.71 482.093 -3186.71 473.875 -3186.71 464.332C-3186.71 454.789 -3186.71 445.378 -3186.71 436.1C-3186.71 426.821 -3186.71 419.266 -3186.71 413.434C-3186.71 405.481 -3186.98 398.324 -3187.51 391.962C-3187.77 385.334 -3188.3 379.237 -3189.1 373.67H-3129.06ZM-3313.56 376.851C-3313.83 381.623 -3314.09 386.395 -3314.36 391.166C-3314.62 395.673 -3314.75 401.107 -3314.75 407.47C-3314.75 410.386 -3314.75 415.157 -3314.75 421.785C-3314.75 428.412 -3314.75 436.232 -3314.75 445.245C-3314.75 453.993 -3314.75 463.272 -3314.75 473.08C-3314.75 482.623 -3314.75 491.902 -3314.75 500.915C-3314.75 509.928 -3314.75 518.146 -3314.75 525.568C-3314.75 532.726 -3314.75 538.16 -3314.75 541.872C-3314.75 546.908 -3314.62 552.74 -3314.36 559.368C-3314.09 565.995 -3313.83 571.695 -3313.56 576.466H-3371.22C-3370.95 572.755 -3370.56 567.453 -3370.03 560.561C-3369.5 553.668 -3369.23 547.306 -3369.23 541.474C-3369.23 537.763 -3369.23 532.328 -3369.23 525.171C-3369.23 518.013 -3369.23 509.928 -3369.23 500.915C-3369.23 491.637 -3369.23 482.226 -3369.23 472.682C-3369.23 462.874 -3369.23 453.596 -3369.23 444.848C-3369.23 436.1 -3369.23 428.412 -3369.23 421.785C-3369.23 415.157 -3369.23 410.386 -3369.23 407.47C-3369.23 403.758 -3369.36 398.987 -3369.63 393.155C-3369.89 387.057 -3370.29 381.623 -3370.82 376.851H-3313.56ZM-2995.45 404.686C-2990.15 405.216 -2983.92 405.746 -2976.76 406.277C-2969.6 406.807 -2963.24 407.072 -2957.67 407.072H-2741.36C-2735.26 407.072 -2728.9 406.807 -2722.27 406.277C-2715.64 405.746 -2709.55 405.216 -2703.98 404.686V459.163C-2709.81 458.632 -2716.04 458.235 -2722.67 457.97C-2729.3 457.705 -2735.53 457.572 -2741.36 457.572H-2957.67C-2962.98 457.572 -2969.34 457.705 -2976.76 457.97C-2984.18 458.235 -2990.41 458.632 -2995.45 459.163V404.686ZM-2880.93 649.234V435.304H-2825.26V649.234H-2880.93ZM-3021.3 616.628C-3014.93 617.688 -3008.31 618.483 -3001.41 619.014C-2994.52 619.544 -2988.03 619.809 -2981.93 619.809H-2719.89C-2712.73 619.809 -2705.97 619.544 -2699.61 619.014C-2693.24 618.218 -2687.54 617.423 -2682.51 616.628V674.285C-2688.34 673.49 -2694.83 672.96 -2701.99 672.695C-2709.15 672.43 -2715.11 672.297 -2719.89 672.297H-2981.93C-2987.76 672.297 -2994.12 672.43 -3001.02 672.695C-3007.91 672.96 -3014.67 673.49 -3021.3 674.285V616.628ZM-2628.43 527.557C-2592.64 518.278 -2560.3 507.542 -2531.4 495.348C-2502.24 482.888 -2476.66 469.899 -2454.66 456.379C-2440.88 447.896 -2427.09 438.22 -2413.31 427.351C-2399.26 416.218 -2386.13 404.819 -2373.94 393.155C-2361.48 381.49 -2351.01 370.357 -2342.53 359.753L-2299.58 400.71C-2311.78 412.639 -2325.16 424.701 -2339.74 436.895C-2354.06 449.089 -2369.04 460.753 -2384.68 471.887C-2400.32 483.021 -2415.82 493.227 -2431.2 502.505C-2446.31 511.253 -2463.28 520.267 -2482.1 529.545C-2500.65 538.823 -2520.27 547.571 -2540.95 555.789C-2561.63 564.007 -2582.43 571.297 -2603.38 577.659L-2628.43 527.557ZM-2463.01 481.828L-2406.55 468.706V647.644C-2406.55 653.476 -2406.41 659.838 -2406.15 666.73C-2405.88 673.623 -2405.49 679.985 -2404.96 685.817C-2404.43 691.914 -2403.76 696.553 -2402.97 699.734H-2465.79C-2465.26 696.553 -2464.87 691.914 -2464.6 685.817C-2464.07 679.985 -2463.67 673.623 -2463.41 666.73C-2463.14 659.838 -2463.01 653.476 -2463.01 647.644V481.828ZM-2183.28 377.249C-2176.66 378.309 -2169.5 379.105 -2161.81 379.635C-2154.12 379.9 -2147.1 380.032 -2140.74 380.032C-2135.7 380.032 -2127.75 380.032 -2116.88 380.032C-2106.01 380.032 -2093.81 380.032 -2080.3 380.032C-2066.78 380.032 -2053.26 380.032 -2039.74 380.032C-2026.22 380.032 -2014.29 380.032 -2003.95 380.032C-1993.34 380.032 -1985.66 380.032 -1980.89 380.032C-1973.99 380.032 -1966.84 379.9 -1959.41 379.635C-1951.99 379.105 -1944.83 378.309 -1937.94 377.249V428.544C-1944.83 428.014 -1951.99 427.617 -1959.41 427.351C-1966.84 427.086 -1973.99 426.954 -1980.89 426.954C-1985.66 426.954 -1993.34 426.954 -2003.95 426.954C-2014.29 426.954 -2026.22 426.954 -2039.74 426.954C-2053.26 426.954 -2066.78 426.954 -2080.3 426.954C-2093.81 426.954 -2106.01 426.954 -2116.88 426.954C-2127.48 426.954 -2135.3 426.954 -2140.34 426.954C-2147.23 426.954 -2154.65 427.086 -2162.61 427.351C-2170.29 427.617 -2177.19 428.014 -2183.28 428.544V377.249ZM-2229.41 479.045C-2223.58 479.575 -2217.35 480.105 -2210.72 480.635C-2203.83 481.165 -2197.33 481.43 -2191.24 481.43C-2187.79 481.43 -2180.9 481.43 -2170.56 481.43C-2160.22 481.43 -2147.76 481.43 -2133.18 481.43C-2118.6 481.43 -2102.96 481.43 -2086.26 481.43C-2069.29 481.43 -2052.46 481.43 -2035.76 481.43C-2018.79 481.43 -2003.02 481.43 -1988.44 481.43C-1973.86 481.43 -1961.53 481.43 -1951.46 481.43C-1941.12 481.43 -1934.23 481.43 -1930.78 481.43C-1926.54 481.43 -1920.84 481.298 -1913.68 481.033C-1906.26 480.503 -1899.9 479.84 -1894.6 479.045V530.738C-1899.37 530.208 -1905.2 529.942 -1912.09 529.942C-1918.99 529.677 -1925.22 529.545 -1930.78 529.545C-1934.23 529.545 -1941.12 529.545 -1951.46 529.545C-1961.53 529.545 -1973.86 529.545 -1988.44 529.545C-2003.02 529.545 -2018.79 529.545 -2035.76 529.545C-2052.46 529.545 -2069.29 529.545 -2086.26 529.545C-2102.96 529.545 -2118.6 529.545 -2133.18 529.545C-2147.76 529.545 -2160.22 529.545 -2170.56 529.545C-2180.9 529.545 -2187.79 529.545 -2191.24 529.545C-2197.07 529.545 -2203.56 529.677 -2210.72 529.942C-2217.61 530.208 -2223.84 530.605 -2229.41 531.135V479.045ZM-2025.82 506.482C-2025.82 532.461 -2028.07 555.789 -2032.58 576.466C-2037.09 596.878 -2043.58 615.302 -2052.06 631.738C-2056.83 640.751 -2063.2 650.029 -2071.15 659.573C-2079.1 669.116 -2088.25 678.129 -2098.59 686.612C-2108.93 695.095 -2120.06 702.253 -2131.99 708.085L-2178.51 674.285C-2164.46 668.719 -2150.94 660.766 -2137.95 650.427C-2124.96 640.089 -2114.49 629.087 -2106.54 617.423C-2096.47 602.048 -2089.71 585.082 -2086.26 566.525C-2082.81 547.969 -2081.09 528.087 -2081.09 506.879L-2025.82 506.482ZM-1843.3 682.238V398.324H-1778.09V582.033L-1796.78 575.273L-1716.46 477.852H-1641.7L-1720.43 567.718C-1712.74 570.104 -1706.12 573.683 -1700.55 578.454C-1694.98 583.226 -1689.55 589.986 -1684.25 598.734L-1632.16 682.238H-1704.92L-1740.31 622.592C-1744.02 616.495 -1748.53 613.182 -1753.83 612.651C-1758.87 612.121 -1763.77 614.64 -1768.55 620.207L-1797.18 654.801L-1778.09 601.915V682.238H-1843.3ZM-1588.87 568.911C-1571.63 565.2 -1554.14 560.163 -1536.38 553.801C-1518.35 547.173 -1501.52 540.149 -1485.88 532.726C-1470.24 525.038 -1457.11 518.146 -1446.51 512.049C-1433.52 504.096 -1420.8 495.215 -1408.34 485.407C-1395.61 475.333 -1383.95 465.26 -1373.35 455.186C-1362.74 445.113 -1354.13 435.702 -1347.5 426.954L-1308.13 465.525C-1315.82 474.273 -1326.03 483.949 -1338.75 494.553C-1351.21 504.891 -1364.73 515.362 -1379.31 525.966C-1393.89 536.305 -1408.47 545.715 -1423.05 554.198C-1432.06 559.765 -1442.4 565.465 -1454.07 571.297C-1465.73 576.864 -1478.06 582.431 -1491.05 587.998C-1503.77 593.3 -1516.63 598.336 -1529.62 603.108C-1542.34 607.88 -1554.27 612.121 -1565.41 615.833L-1588.87 568.911ZM-1451.28 543.065L-1397.2 532.726V674.285C-1397.2 678.792 -1397.2 683.961 -1397.2 689.793C-1396.94 695.625 -1396.54 700.927 -1396.01 705.699C-1395.48 710.736 -1394.95 714.58 -1394.42 717.231H-1453.27C-1452.74 714.58 -1452.48 710.736 -1452.48 705.699C-1452.21 700.927 -1451.95 695.625 -1451.68 689.793C-1451.42 683.961 -1451.28 678.792 -1451.28 674.285V543.065ZM-931.966 347.028C-928.519 352.065 -924.941 357.765 -921.229 364.127C-917.253 370.489 -913.542 376.851 -910.096 383.214C-906.649 389.311 -903.733 394.745 -901.347 399.517L-934.749 413.434C-937.4 408.132 -940.449 402.433 -943.895 396.336C-947.076 390.238 -950.522 384.141 -954.234 378.044C-957.68 371.682 -961.126 365.85 -964.572 360.548L-931.966 347.028ZM-876.296 337.087C-872.85 341.859 -869.139 347.426 -865.162 353.788C-861.186 360.15 -857.342 366.513 -853.631 372.875C-849.919 379.237 -846.871 384.804 -844.485 389.576L-877.489 403.891C-881.996 395.673 -887.165 386.527 -892.997 376.454C-898.564 366.38 -903.998 357.632 -909.3 350.209L-876.296 337.087ZM-890.611 422.182C-892.467 425.893 -894.19 430.4 -895.781 435.702C-897.106 440.739 -898.299 445.378 -899.359 449.619C-901.745 459.428 -904.661 470.429 -908.107 482.623C-911.288 494.553 -915.397 507.012 -920.434 520.001C-925.206 532.991 -930.905 545.848 -937.533 558.572C-943.895 571.297 -951.185 583.226 -959.403 594.36C-971.332 610.266 -985.249 625.111 -1001.15 638.896C-1016.8 652.68 -1034.56 665.14 -1054.44 676.274C-1074.06 687.408 -1095.66 696.818 -1119.25 704.506L-1162.6 656.789C-1136.09 650.427 -1113.29 642.607 -1094.2 633.329C-1074.85 624.05 -1058.15 613.447 -1044.1 601.518C-1030.05 589.588 -1017.59 576.864 -1006.72 563.344C-997.974 552.21 -990.419 540.149 -984.056 527.159C-977.694 514.169 -972.525 501.18 -968.549 488.19C-964.572 474.936 -961.789 462.609 -960.198 451.21C-963.909 451.21 -970.404 451.21 -979.682 451.21C-988.961 451.21 -999.697 451.21 -1011.89 451.21C-1024.09 451.21 -1036.94 451.21 -1050.46 451.21C-1063.98 451.21 -1076.97 451.21 -1089.43 451.21C-1101.89 451.21 -1113.16 451.21 -1123.23 451.21C-1133.04 451.21 -1140.33 451.21 -1145.1 451.21C-1154.38 451.21 -1163.26 451.342 -1171.74 451.607C-1180.23 451.873 -1187.12 452.27 -1192.42 452.8V396.733C-1188.44 397.263 -1183.67 397.794 -1178.1 398.324C-1172.27 398.854 -1166.44 399.252 -1160.61 399.517C-1154.51 399.782 -1149.34 399.914 -1145.1 399.914C-1140.86 399.914 -1134.76 399.914 -1126.81 399.914C-1118.86 399.914 -1109.84 399.914 -1099.77 399.914C-1089.43 399.914 -1078.69 399.914 -1067.56 399.914C-1056.16 399.914 -1044.9 399.914 -1033.76 399.914C-1022.36 399.914 -1011.76 399.914 -1001.95 399.914C-992.142 399.914 -983.659 399.914 -976.501 399.914C-969.344 399.914 -964.174 399.914 -960.993 399.914C-957.017 399.914 -952.245 399.782 -946.678 399.517C-940.846 399.252 -935.279 398.324 -929.977 396.733L-890.611 422.182ZM-761.379 382.021C-755.016 383.081 -747.991 383.876 -740.304 384.406C-732.616 384.937 -725.458 385.202 -718.831 385.202C-713.794 385.202 -706.902 385.202 -698.154 385.202C-689.406 385.202 -679.73 385.202 -669.126 385.202C-658.523 385.202 -648.051 385.202 -637.713 385.202C-627.109 385.202 -617.433 385.202 -608.685 385.202C-599.937 385.202 -593.31 385.202 -588.803 385.202C-581.911 385.202 -574.753 384.937 -567.331 384.406C-559.908 383.876 -552.75 383.081 -545.858 382.021V433.316C-552.75 432.786 -559.908 432.521 -567.331 432.521C-574.753 432.256 -581.911 432.123 -588.803 432.123C-593.31 432.123 -599.937 432.123 -608.685 432.123C-617.433 432.123 -627.109 432.123 -637.713 432.123C-648.051 432.123 -658.523 432.123 -669.126 432.123C-679.465 432.123 -689.141 432.123 -698.154 432.123C-706.902 432.123 -713.794 432.123 -718.831 432.123C-725.724 432.123 -733.014 432.256 -740.701 432.521C-748.389 432.521 -755.281 432.786 -761.379 433.316V382.021ZM-807.505 483.816C-801.673 484.612 -795.443 485.274 -788.816 485.804C-781.923 486.07 -775.428 486.202 -769.331 486.202C-765.885 486.202 -758.993 486.202 -748.654 486.202C-738.315 486.202 -725.856 486.202 -711.276 486.202C-696.431 486.202 -680.658 486.202 -663.957 486.202C-647.256 486.202 -630.555 486.202 -613.854 486.202C-596.888 486.202 -581.115 486.202 -566.535 486.202C-551.955 486.202 -539.628 486.202 -529.555 486.202C-519.216 486.202 -512.324 486.202 -508.878 486.202C-504.636 486.202 -498.937 486.07 -491.779 485.804C-484.357 485.274 -477.994 484.612 -472.692 483.816V535.509C-477.464 534.979 -483.296 534.714 -490.189 534.714C-497.081 534.449 -503.311 534.316 -508.878 534.316C-512.324 534.316 -519.216 534.316 -529.555 534.316C-539.628 534.316 -551.955 534.316 -566.535 534.316C-581.115 534.316 -596.888 534.316 -613.854 534.316C-630.555 534.316 -647.256 534.316 -663.957 534.316C-680.658 534.316 -696.431 534.316 -711.276 534.316C-725.856 534.316 -738.315 534.316 -748.654 534.316C-758.993 534.316 -765.885 534.316 -769.331 534.316C-775.163 534.316 -781.658 534.449 -788.816 534.714C-795.708 534.979 -801.938 535.377 -807.505 535.907V483.816ZM-603.913 511.651C-603.913 537.365 -606.167 560.561 -610.673 581.238C-615.18 601.65 -621.675 620.074 -630.158 636.51C-634.664 645.523 -641.026 654.801 -649.244 664.345C-657.197 673.888 -666.343 682.901 -676.681 691.384C-687.02 699.867 -698.154 707.024 -710.083 712.857L-756.607 679.057C-742.557 673.755 -729.037 665.935 -716.048 655.596C-703.058 644.993 -692.587 633.859 -684.634 622.195C-674.561 607.084 -667.801 590.251 -664.355 571.695C-660.908 553.138 -659.185 533.124 -659.185 511.651H-603.913ZM-522 354.583C-518.554 359.355 -514.975 365.055 -511.263 371.682C-507.287 378.309 -503.576 384.937 -500.13 391.564C-496.418 398.191 -493.237 404.023 -490.586 409.06L-522.397 422.977C-526.639 414.76 -531.676 405.481 -537.508 395.143C-543.075 384.539 -548.509 375.393 -553.811 367.706L-522 354.583ZM-475.078 336.69C-471.632 341.727 -467.921 347.691 -463.944 354.583C-459.968 361.211 -456.124 367.838 -452.413 374.465C-448.436 380.828 -445.255 386.262 -442.87 390.769L-474.681 404.686C-478.657 396.203 -483.694 386.792 -489.791 376.454C-495.623 366.115 -501.19 357.234 -506.492 349.812L-475.078 336.69ZM-423.907 568.911C-406.676 565.2 -389.18 560.163 -371.419 553.801C-353.392 547.173 -336.559 540.149 -320.918 532.726C-305.278 525.038 -292.156 518.146 -281.552 512.049C-268.563 504.096 -255.838 495.215 -243.379 485.407C-230.654 475.333 -218.99 465.26 -208.386 455.186C-197.783 445.113 -189.167 435.702 -182.54 426.954L-143.174 465.525C-150.861 474.273 -161.067 483.949 -173.792 494.553C-186.251 504.891 -199.771 515.362 -214.351 525.966C-228.931 536.305 -243.511 545.715 -258.091 554.198C-267.105 559.765 -277.443 565.465 -289.107 571.297C-300.771 576.864 -313.098 582.431 -326.088 587.998C-338.812 593.3 -351.669 598.336 -364.659 603.108C-377.383 607.88 -389.312 612.121 -400.446 615.833L-423.907 568.911ZM-286.324 543.065L-232.245 532.726V674.285C-232.245 678.792 -232.245 683.961 -232.245 689.793C-231.98 695.625 -231.582 700.927 -231.052 705.699C-230.522 710.736 -229.992 714.58 -229.461 717.231H-288.312C-287.782 714.58 -287.517 710.736 -287.517 705.699C-287.252 700.927 -286.986 695.625 -286.721 689.793C-286.456 683.961 -286.324 678.792 -286.324 674.285V543.065ZM8.72448 666.333C11.1103 661.296 12.5683 656.922 13.0985 653.211C13.6287 649.499 13.8938 645.258 13.8938 640.486C13.8938 635.449 13.8938 627.762 13.8938 617.423C13.8938 607.084 13.8938 595.155 13.8938 581.636C13.8938 567.851 13.8938 553.403 13.8938 538.293C13.8938 523.183 13.8938 508.337 13.8938 493.757C13.8938 479.177 13.8938 465.922 13.8938 453.993C13.8938 442.064 13.8938 432.388 13.8938 424.966C13.8938 419.929 13.6287 414.627 13.0985 409.06C12.8334 403.493 12.3032 398.191 11.508 393.155C10.9778 387.853 10.315 383.346 9.51976 379.635H71.9491C70.8888 387.322 69.9609 394.878 69.1656 402.3C68.3704 409.723 67.9727 417.278 67.9727 424.966C67.9727 431.328 67.9727 439.281 67.9727 448.824C67.9727 458.102 67.9727 468.441 67.9727 479.84C67.9727 491.239 67.9727 503.036 67.9727 515.23C67.9727 527.424 67.9727 539.486 67.9727 551.415C67.9727 563.344 67.9727 574.611 67.9727 585.214C67.9727 595.818 67.9727 605.096 67.9727 613.049C67.9727 621.002 67.9727 627.232 67.9727 631.738C84.1434 626.966 101.374 620.472 119.666 612.254C138.222 603.771 156.779 593.83 175.335 582.431C194.157 570.767 211.786 558.042 228.221 544.257C244.922 530.473 259.635 515.76 272.359 500.119L300.592 545.053C273.552 577.659 240.018 605.892 199.989 629.75C160.225 653.343 116.882 672.827 69.9609 688.203C67.31 689.263 63.8638 690.589 59.6223 692.179C55.3808 693.77 51.0068 696.023 46.5002 698.939L8.72448 666.333ZM686.302 434.907C684.181 438.618 681.928 443.125 679.542 448.426C677.156 453.463 675.036 458.5 673.18 463.537C669.734 475.201 664.829 488.588 658.467 503.698C652.37 518.543 644.682 534.051 635.404 550.222C626.391 566.128 615.92 581.503 603.991 596.348C584.904 619.146 562.636 639.823 537.187 658.38C512.003 676.936 480.722 693.637 443.344 708.482L396.423 666.333C423.462 658.38 446.791 649.234 466.407 638.896C486.024 628.557 503.123 617.556 517.703 605.892C532.283 593.962 545.273 581.37 556.672 568.116C565.95 557.777 574.433 546.113 582.12 533.124C589.808 519.869 596.435 506.747 602.002 493.757C607.569 480.768 611.281 469.369 613.136 459.56H479.132L497.423 414.627C501.135 414.627 506.834 414.627 514.522 414.627C522.475 414.627 531.355 414.627 541.164 414.627C551.237 414.627 561.046 414.627 570.589 414.627C580.397 414.627 588.88 414.627 596.038 414.627C603.46 414.627 608.497 414.627 611.148 414.627C617.245 414.627 623.342 414.229 629.44 413.434C635.802 412.639 641.236 411.446 645.743 409.855L686.302 434.907ZM556.672 372.08C551.9 378.972 547.261 386.395 542.754 394.347C538.248 402.3 534.801 408.397 532.416 412.639C523.402 428.544 512.268 445.113 499.014 462.344C486.024 479.31 471.179 495.878 454.478 512.049C437.777 527.954 420.016 542.534 401.195 555.789L356.261 522.785C373.757 511.916 389.133 500.782 402.387 489.383C415.907 477.984 427.571 466.718 437.38 455.584C447.188 444.185 455.539 433.316 462.431 422.977C469.589 412.374 475.686 402.963 480.722 394.745C483.904 389.708 487.217 383.214 490.663 375.261C494.11 367.043 496.761 359.62 498.616 352.993L556.672 372.08ZM849.334 367.308C855.696 371.019 862.986 375.393 871.204 380.43C879.422 385.467 887.772 390.636 896.255 395.938C905.003 401.24 913.089 406.409 920.511 411.446C928.199 416.218 934.694 420.459 939.996 424.17L910.173 468.308C904.871 464.332 898.376 459.825 890.688 454.789C883.001 449.752 875.048 444.583 866.83 439.281C858.612 433.979 850.394 428.942 842.176 424.17C834.224 419.134 826.934 414.76 820.306 411.048L849.334 367.308ZM775.373 649.632C790.483 646.981 805.594 643.8 820.704 640.089C836.079 636.112 851.322 631.208 866.432 625.376C881.808 619.544 896.653 612.784 910.968 605.096C933.501 592.372 954.443 578.057 973.795 562.151C993.412 546.246 1010.91 529.28 1026.28 511.253C1041.92 493.227 1055.05 474.803 1065.65 455.982L1096.27 510.06C1077.71 537.63 1054.78 563.609 1027.48 587.998C1000.44 612.386 970.614 633.991 938.007 652.813C924.488 660.501 909.643 667.658 893.472 674.285C877.566 680.913 861.793 686.612 846.153 691.384C830.777 696.421 817.125 700 805.196 702.12L775.373 649.632ZM788.097 457.97C794.725 461.681 802.147 466.055 810.365 471.092C818.848 475.863 827.331 480.9 835.814 486.202C844.297 491.504 852.25 496.541 859.673 501.312C867.36 506.084 873.722 510.326 878.759 514.037L849.732 558.572C843.9 554.596 837.272 550.222 829.85 545.45C822.427 540.414 814.474 535.244 805.991 529.942C797.773 524.375 789.555 519.206 781.338 514.434C773.385 509.663 765.962 505.554 759.07 502.108L788.097 457.97ZM1208.8 457.572C1212.25 457.837 1216.89 458.235 1222.72 458.765C1228.55 459.03 1234.65 459.295 1241.01 459.56C1247.37 459.56 1253.07 459.56 1258.11 459.56C1264.47 459.56 1272.69 459.56 1282.76 459.56C1292.83 459.56 1303.7 459.56 1315.37 459.56C1327.3 459.56 1339.09 459.56 1350.76 459.56C1362.42 459.56 1373.29 459.56 1383.36 459.56C1393.44 459.56 1401.79 459.56 1408.41 459.56C1413.19 459.56 1418.62 459.56 1424.72 459.56C1431.08 459.295 1435.85 459.03 1439.03 458.765C1438.77 461.416 1438.64 465.525 1438.64 471.092C1438.64 476.394 1438.64 481.165 1438.64 485.407C1438.64 488.323 1438.64 494.42 1438.64 503.698C1438.64 512.711 1438.64 523.845 1438.64 537.1C1438.64 550.355 1438.64 564.404 1438.64 579.25C1438.64 594.095 1438.64 608.675 1438.64 622.99C1438.64 637.04 1438.64 649.632 1438.64 660.766C1438.64 671.635 1438.64 679.72 1438.64 685.022C1438.64 688.203 1438.64 692.577 1438.64 698.144C1438.9 703.976 1439.03 708.615 1439.03 712.061H1388.93C1389.2 708.615 1389.33 703.843 1389.33 697.746C1389.33 691.649 1389.33 686.612 1389.33 682.636C1389.33 675.744 1389.33 666.995 1389.33 656.392C1389.33 645.523 1389.33 633.859 1389.33 621.399C1389.33 608.675 1389.33 595.951 1389.33 583.226C1389.33 570.237 1389.33 558.175 1389.33 547.041C1389.33 535.907 1389.33 526.629 1389.33 519.206C1389.33 511.518 1389.33 506.482 1389.33 504.096C1386.94 504.096 1382.7 504.096 1376.6 504.096C1370.51 504.096 1363.48 504.096 1355.53 504.096C1347.58 504.096 1338.96 504.096 1329.68 504.096C1320.67 504.096 1311.66 504.096 1302.64 504.096C1293.89 504.096 1285.54 504.096 1277.59 504.096C1269.9 504.096 1263.41 504.096 1258.11 504.096C1253.07 504.096 1247.37 504.228 1241.01 504.494C1234.65 504.494 1228.42 504.626 1222.32 504.891C1216.49 505.156 1211.98 505.421 1208.8 505.686V457.572ZM1219.14 551.017C1224.44 551.282 1231.07 551.547 1239.02 551.813C1247.24 552.078 1255.06 552.21 1262.48 552.21C1265.66 552.21 1271.23 552.21 1279.18 552.21C1287.4 552.21 1296.81 552.21 1307.41 552.21C1318.28 552.21 1329.42 552.21 1340.82 552.21C1352.21 552.21 1362.95 552.21 1373.02 552.21C1383.36 552.21 1392.11 552.21 1399.27 552.21C1406.43 552.21 1410.8 552.21 1412.39 552.21V597.143C1410.54 597.143 1406.03 597.143 1398.87 597.143C1391.98 597.143 1383.36 597.143 1373.02 597.143C1362.95 597.143 1352.21 597.143 1340.82 597.143C1329.42 597.143 1318.28 597.143 1307.41 597.143C1296.81 597.143 1287.53 597.143 1279.58 597.143C1271.63 597.143 1265.93 597.143 1262.48 597.143C1255.06 597.143 1247.11 597.276 1238.62 597.541C1230.4 597.541 1223.91 597.674 1219.14 597.939V551.017ZM1204.43 648.439C1207.87 648.704 1212.64 649.102 1218.74 649.632C1224.84 649.897 1231.6 650.029 1239.02 650.029C1243 650.029 1249.62 650.029 1258.9 650.029C1268.18 650.029 1278.78 650.029 1290.71 650.029C1302.91 650.029 1315.5 650.029 1328.49 650.029C1341.48 650.029 1353.81 650.029 1365.47 650.029C1377.4 650.029 1387.6 650.029 1396.09 650.029C1404.57 650.029 1410.14 650.029 1412.79 650.029V696.156C1409.34 696.156 1403.25 696.156 1394.5 696.156C1385.75 696.156 1375.41 696.156 1363.48 696.156C1351.82 696.156 1339.62 696.156 1326.9 696.156C1314.17 696.156 1301.85 696.156 1289.92 696.156C1277.99 696.156 1267.39 696.156 1258.11 696.156C1249.09 696.156 1242.6 696.156 1238.62 696.156C1233.06 696.156 1226.83 696.288 1219.93 696.553C1213.04 696.818 1207.87 697.083 1204.43 697.349V648.439ZM1617.57 380.032C1624.47 384.804 1632.55 390.636 1641.83 397.529C1651.11 404.421 1660.65 411.976 1670.46 420.194C1680.53 428.147 1689.94 435.967 1698.69 443.655C1707.44 451.342 1714.6 458.235 1720.16 464.332L1679.6 505.686C1674.57 500.119 1667.94 493.492 1659.72 485.804C1651.51 478.117 1642.62 470.164 1633.08 461.946C1623.54 453.728 1614.13 445.908 1604.85 438.485C1595.57 431.063 1587.35 424.833 1580.2 419.796L1617.57 380.032ZM1567.87 644.86C1588.55 641.944 1608.03 637.835 1626.32 632.533C1644.61 627.232 1661.58 621.134 1677.22 614.242C1692.86 607.35 1707.17 600.192 1720.16 592.769C1742.7 579.25 1763.37 563.874 1782.2 546.643C1801.02 529.412 1817.45 511.518 1831.5 492.962C1845.55 474.14 1856.69 455.849 1864.9 438.088L1895.92 494.155C1885.85 511.916 1873.39 529.677 1858.54 547.439C1843.96 565.2 1827.39 582.166 1808.84 598.336C1790.28 614.242 1770.27 628.557 1748.79 641.281C1735.27 649.499 1720.69 657.32 1705.05 664.742C1689.41 671.9 1672.85 678.262 1655.35 683.829C1638.12 689.661 1620.09 694.167 1601.27 697.349L1567.87 644.86Z" fill="black"/>
</g>
<defs>
<clipPath id="clip0_919_337">
<rect width="1920" height="1080" fill="white"/>
</clipPath>
</defs>
</svg>
