<svg width="1920" height="1080" viewBox="0 0 1920 1080" fill="none" xmlns="http://www.w3.org/2000/svg">
  <line x1="1359" y1="164" x2="1558" y2="154" stroke="white" stroke-width="0.8" stroke-opacity="0.054"/>
  <line x1="1359" y1="164" x2="1166" y2="139" stroke="white" stroke-width="0.8" stroke-opacity="0.055"/>
  <line x1="1359" y1="164" x2="1282" y2="77" stroke="white" stroke-width="0.8" stroke-opacity="0.081"/>
  <line x1="1359" y1="164" x2="1199" y2="253" stroke="white" stroke-width="0.8" stroke-opacity="0.059"/>
  <line x1="1359" y1="164" x2="1180" y2="350" stroke="white" stroke-width="0.8" stroke-opacity="0.034"/>
  <line x1="1359" y1="164" x2="1232" y2="246" stroke="white" stroke-width="0.8" stroke-opacity="0.070"/>
  <line x1="1359" y1="164" x2="1492" y2="121" stroke="white" stroke-width="0.8" stroke-opacity="0.073"/>
  <line x1="1359" y1="164" x2="1422" y2="323" stroke="white" stroke-width="0.8" stroke-opacity="0.063"/>
  <line x1="1359" y1="164" x2="1350" y2="225" stroke="white" stroke-width="0.8" stroke-opacity="0.099"/>
  <line x1="101" y1="809" x2="376" y2="764" stroke="white" stroke-width="0.8" stroke-opacity="0.030"/>
  <line x1="101" y1="809" x2="138" y2="797" stroke="white" stroke-width="0.8" stroke-opacity="0.107"/>
  <line x1="101" y1="809" x2="305" y2="994" stroke="white" stroke-width="0.8" stroke-opacity="0.030"/>
  <line x1="101" y1="809" x2="143" y2="727" stroke="white" stroke-width="0.8" stroke-opacity="0.089"/>
  <line x1="101" y1="809" x2="196" y2="673" stroke="white" stroke-width="0.8" stroke-opacity="0.065"/>
  <line x1="613" y1="300" x2="507" y2="192" stroke="white" stroke-width="0.8" stroke-opacity="0.070"/>
  <line x1="613" y1="300" x2="619" y2="209" stroke="white" stroke-width="0.8" stroke-opacity="0.090"/>
  <line x1="613" y1="300" x2="828" y2="149" stroke="white" stroke-width="0.8" stroke-opacity="0.032"/>
  <line x1="613" y1="300" x2="825" y2="130" stroke="white" stroke-width="0.8" stroke-opacity="0.030"/>
  <line x1="613" y1="300" x2="642" y2="131" stroke="white" stroke-width="0.8" stroke-opacity="0.063"/>
  <line x1="613" y1="300" x2="828" y2="334" stroke="white" stroke-width="0.8" stroke-opacity="0.047"/>
  <line x1="613" y1="300" x2="383" y2="429" stroke="white" stroke-width="0.8" stroke-opacity="0.032"/>
  <line x1="613" y1="300" x2="777" y2="264" stroke="white" stroke-width="0.8" stroke-opacity="0.064"/>
  <line x1="613" y1="300" x2="551" y2="217" stroke="white" stroke-width="0.8" stroke-opacity="0.085"/>
  <line x1="507" y1="192" x2="241" y2="273" stroke="white" stroke-width="0.8" stroke-opacity="0.030"/>
  <line x1="507" y1="192" x2="619" y2="209" stroke="white" stroke-width="0.8" stroke-opacity="0.082"/>
  <line x1="507" y1="192" x2="259" y2="144" stroke="white" stroke-width="0.8" stroke-opacity="0.036"/>
  <line x1="507" y1="192" x2="642" y2="131" stroke="white" stroke-width="0.8" stroke-opacity="0.071"/>
  <line x1="507" y1="192" x2="383" y2="429" stroke="white" stroke-width="0.8" stroke-opacity="0.031"/>
  <line x1="507" y1="192" x2="777" y2="264" stroke="white" stroke-width="0.8" stroke-opacity="0.030"/>
  <line x1="507" y1="192" x2="551" y2="217" stroke="white" stroke-width="0.8" stroke-opacity="0.103"/>
  <line x1="1558" y1="154" x2="1613" y2="394" stroke="white" stroke-width="0.8" stroke-opacity="0.038"/>
  <line x1="1558" y1="154" x2="1492" y2="121" stroke="white" stroke-width="0.8" stroke-opacity="0.095"/>
  <line x1="1558" y1="154" x2="1801" y2="288" stroke="white" stroke-width="0.8" stroke-opacity="0.030"/>
  <line x1="1558" y1="154" x2="1824" y2="153" stroke="white" stroke-width="0.8" stroke-opacity="0.031"/>
  <line x1="1558" y1="154" x2="1422" y2="323" stroke="white" stroke-width="0.8" stroke-opacity="0.048"/>
  <line x1="1558" y1="154" x2="1350" y2="225" stroke="white" stroke-width="0.8" stroke-opacity="0.047"/>
  <line x1="1435" y1="808" x2="1516" y2="715" stroke="white" stroke-width="0.8" stroke-opacity="0.079"/>
  <line x1="1435" y1="808" x2="1486" y2="608" stroke="white" stroke-width="0.8" stroke-opacity="0.051"/>
  <line x1="1435" y1="808" x2="1604" y2="875" stroke="white" stroke-width="0.8" stroke-opacity="0.059"/>
  <line x1="1435" y1="808" x2="1316" y2="956" stroke="white" stroke-width="0.8" stroke-opacity="0.057"/>
  <line x1="1435" y1="808" x2="1487" y2="1009" stroke="white" stroke-width="0.8" stroke-opacity="0.051"/>
  <line x1="1435" y1="808" x2="1449" y2="713" stroke="white" stroke-width="0.8" stroke-opacity="0.088"/>
  <line x1="1435" y1="808" x2="1360" y2="754" stroke="white" stroke-width="0.8" stroke-opacity="0.089"/>
  <line x1="1166" y1="139" x2="1282" y2="77" stroke="white" stroke-width="0.8" stroke-opacity="0.076"/>
  <line x1="1166" y1="139" x2="1199" y2="253" stroke="white" stroke-width="0.8" stroke-opacity="0.080"/>
  <line x1="1166" y1="139" x2="1180" y2="350" stroke="white" stroke-width="0.8" stroke-opacity="0.050"/>
  <line x1="1166" y1="139" x2="1232" y2="246" stroke="white" stroke-width="0.8" stroke-opacity="0.078"/>
  <line x1="1166" y1="139" x2="1350" y2="225" stroke="white" stroke-width="0.8" stroke-opacity="0.052"/>
  <line x1="1259" y1="482" x2="1199" y2="253" stroke="white" stroke-width="0.8" stroke-opacity="0.041"/>
  <line x1="1259" y1="482" x2="1486" y2="608" stroke="white" stroke-width="0.8" stroke-opacity="0.033"/>
  <line x1="1259" y1="482" x2="1180" y2="350" stroke="white" stroke-width="0.8" stroke-opacity="0.069"/>
  <line x1="1259" y1="482" x2="1232" y2="246" stroke="white" stroke-width="0.8" stroke-opacity="0.041"/>
  <line x1="1259" y1="482" x2="1422" y2="323" stroke="white" stroke-width="0.8" stroke-opacity="0.044"/>
  <line x1="1259" y1="482" x2="1350" y2="225" stroke="white" stroke-width="0.8" stroke-opacity="0.030"/>
  <line x1="1259" y1="482" x2="996" y2="438" stroke="white" stroke-width="0.8" stroke-opacity="0.031"/>
  <line x1="115" y1="80" x2="241" y2="273" stroke="white" stroke-width="0.8" stroke-opacity="0.043"/>
  <line x1="115" y1="80" x2="259" y2="144" stroke="white" stroke-width="0.8" stroke-opacity="0.067"/>
  <line x1="241" y1="273" x2="259" y2="144" stroke="white" stroke-width="0.8" stroke-opacity="0.077"/>
  <line x1="241" y1="273" x2="383" y2="429" stroke="white" stroke-width="0.8" stroke-opacity="0.050"/>
  <line x1="526" y1="567" x2="376" y2="764" stroke="white" stroke-width="0.8" stroke-opacity="0.037"/>
  <line x1="526" y1="567" x2="754" y2="668" stroke="white" stroke-width="0.8" stroke-opacity="0.037"/>
  <line x1="526" y1="567" x2="516" y2="841" stroke="white" stroke-width="0.8" stroke-opacity="0.030"/>
  <line x1="526" y1="567" x2="383" y2="429" stroke="white" stroke-width="0.8" stroke-opacity="0.054"/>
  <line x1="1282" y1="77" x2="1199" y2="253" stroke="white" stroke-width="0.8" stroke-opacity="0.055"/>
  <line x1="1282" y1="77" x2="1232" y2="246" stroke="white" stroke-width="0.8" stroke-opacity="0.061"/>
  <line x1="1282" y1="77" x2="1492" y2="121" stroke="white" stroke-width="0.8" stroke-opacity="0.048"/>
  <line x1="1282" y1="77" x2="1350" y2="225" stroke="white" stroke-width="0.8" stroke-opacity="0.066"/>
  <line x1="1199" y1="253" x2="1180" y2="350" stroke="white" stroke-width="0.8" stroke-opacity="0.087"/>
  <line x1="1199" y1="253" x2="1232" y2="246" stroke="white" stroke-width="0.8" stroke-opacity="0.109"/>
  <line x1="1199" y1="253" x2="1422" y2="323" stroke="white" stroke-width="0.8" stroke-opacity="0.042"/>
  <line x1="1199" y1="253" x2="1350" y2="225" stroke="white" stroke-width="0.8" stroke-opacity="0.069"/>
  <line x1="1199" y1="253" x2="996" y2="438" stroke="white" stroke-width="0.8" stroke-opacity="0.030"/>
  <line x1="1516" y1="715" x2="1486" y2="608" stroke="white" stroke-width="0.8" stroke-opacity="0.083"/>
  <line x1="1516" y1="715" x2="1604" y2="875" stroke="white" stroke-width="0.8" stroke-opacity="0.059"/>
  <line x1="1516" y1="715" x2="1748" y2="693" stroke="white" stroke-width="0.8" stroke-opacity="0.042"/>
  <line x1="1516" y1="715" x2="1449" y2="713" stroke="white" stroke-width="0.8" stroke-opacity="0.098"/>
  <line x1="1516" y1="715" x2="1360" y2="754" stroke="white" stroke-width="0.8" stroke-opacity="0.066"/>
  <line x1="1486" y1="608" x2="1613" y2="394" stroke="white" stroke-width="0.8" stroke-opacity="0.037"/>
  <line x1="1486" y1="608" x2="1748" y2="693" stroke="white" stroke-width="0.8" stroke-opacity="0.030"/>
  <line x1="1486" y1="608" x2="1449" y2="713" stroke="white" stroke-width="0.8" stroke-opacity="0.083"/>
  <line x1="1486" y1="608" x2="1360" y2="754" stroke="white" stroke-width="0.8" stroke-opacity="0.056"/>
  <line x1="909" y1="275" x2="915" y2="398" stroke="white" stroke-width="0.8" stroke-opacity="0.079"/>
  <line x1="909" y1="275" x2="828" y2="149" stroke="white" stroke-width="0.8" stroke-opacity="0.070"/>
  <line x1="909" y1="275" x2="825" y2="130" stroke="white" stroke-width="0.8" stroke-opacity="0.064"/>
  <line x1="909" y1="275" x2="828" y2="334" stroke="white" stroke-width="0.8" stroke-opacity="0.087"/>
  <line x1="909" y1="275" x2="777" y2="264" stroke="white" stroke-width="0.8" stroke-opacity="0.076"/>
  <line x1="909" y1="275" x2="996" y2="438" stroke="white" stroke-width="0.8" stroke-opacity="0.058"/>
  <line x1="969" y1="653" x2="915" y2="398" stroke="white" stroke-width="0.8" stroke-opacity="0.033"/>
  <line x1="969" y1="653" x2="754" y2="668" stroke="white" stroke-width="0.8" stroke-opacity="0.048"/>
  <line x1="969" y1="653" x2="990" y2="599" stroke="white" stroke-width="0.8" stroke-opacity="0.101"/>
  <line x1="969" y1="653" x2="978" y2="700" stroke="white" stroke-width="0.8" stroke-opacity="0.104"/>
  <line x1="969" y1="653" x2="1143" y2="796" stroke="white" stroke-width="0.8" stroke-opacity="0.045"/>
  <line x1="969" y1="653" x2="996" y2="438" stroke="white" stroke-width="0.8" stroke-opacity="0.048"/>
  <line x1="619" y1="878" x2="376" y2="764" stroke="white" stroke-width="0.8" stroke-opacity="0.031"/>
  <line x1="619" y1="878" x2="490" y2="1030" stroke="white" stroke-width="0.8" stroke-opacity="0.054"/>
  <line x1="619" y1="878" x2="785" y2="917" stroke="white" stroke-width="0.8" stroke-opacity="0.063"/>
  <line x1="619" y1="878" x2="754" y2="668" stroke="white" stroke-width="0.8" stroke-opacity="0.037"/>
  <line x1="619" y1="878" x2="591" y2="876" stroke="white" stroke-width="0.8" stroke-opacity="0.111"/>
  <line x1="619" y1="878" x2="516" y2="841" stroke="white" stroke-width="0.8" stroke-opacity="0.084"/>
  <line x1="619" y1="878" x2="602" y2="997" stroke="white" stroke-width="0.8" stroke-opacity="0.080"/>
  <line x1="1830" y1="56" x2="1801" y2="288" stroke="white" stroke-width="0.8" stroke-opacity="0.042"/>
  <line x1="1830" y1="56" x2="1824" y2="153" stroke="white" stroke-width="0.8" stroke-opacity="0.088"/>
  <line x1="1604" y1="875" x2="1748" y2="693" stroke="white" stroke-width="0.8" stroke-opacity="0.043"/>
  <line x1="1604" y1="875" x2="1487" y2="1009" stroke="white" stroke-width="0.8" stroke-opacity="0.061"/>
  <line x1="1604" y1="875" x2="1449" y2="713" stroke="white" stroke-width="0.8" stroke-opacity="0.045"/>
  <line x1="1604" y1="875" x2="1360" y2="754" stroke="white" stroke-width="0.8" stroke-opacity="0.030"/>
  <line x1="376" y1="764" x2="591" y2="876" stroke="white" stroke-width="0.8" stroke-opacity="0.039"/>
  <line x1="376" y1="764" x2="138" y2="797" stroke="white" stroke-width="0.8" stroke-opacity="0.040"/>
  <line x1="376" y1="764" x2="305" y2="994" stroke="white" stroke-width="0.8" stroke-opacity="0.040"/>
  <line x1="376" y1="764" x2="143" y2="727" stroke="white" stroke-width="0.8" stroke-opacity="0.041"/>
  <line x1="376" y1="764" x2="516" y2="841" stroke="white" stroke-width="0.8" stroke-opacity="0.067"/>
  <line x1="376" y1="764" x2="196" y2="673" stroke="white" stroke-width="0.8" stroke-opacity="0.053"/>
  <line x1="915" y1="398" x2="828" y2="149" stroke="white" stroke-width="0.8" stroke-opacity="0.032"/>
  <line x1="915" y1="398" x2="990" y2="599" stroke="white" stroke-width="0.8" stroke-opacity="0.048"/>
  <line x1="915" y1="398" x2="1180" y2="350" stroke="white" stroke-width="0.8" stroke-opacity="0.030"/>
  <line x1="915" y1="398" x2="828" y2="334" stroke="white" stroke-width="0.8" stroke-opacity="0.084"/>
  <line x1="915" y1="398" x2="777" y2="264" stroke="white" stroke-width="0.8" stroke-opacity="0.056"/>
  <line x1="915" y1="398" x2="996" y2="438" stroke="white" stroke-width="0.8" stroke-opacity="0.090"/>
  <line x1="619" y1="209" x2="828" y2="149" stroke="white" stroke-width="0.8" stroke-opacity="0.048"/>
  <line x1="619" y1="209" x2="825" y2="130" stroke="white" stroke-width="0.8" stroke-opacity="0.046"/>
  <line x1="619" y1="209" x2="642" y2="131" stroke="white" stroke-width="0.8" stroke-opacity="0.093"/>
  <line x1="619" y1="209" x2="828" y2="334" stroke="white" stroke-width="0.8" stroke-opacity="0.039"/>
  <line x1="619" y1="209" x2="777" y2="264" stroke="white" stroke-width="0.8" stroke-opacity="0.064"/>
  <line x1="619" y1="209" x2="551" y2="217" stroke="white" stroke-width="0.8" stroke-opacity="0.097"/>
  <line x1="490" y1="1030" x2="591" y2="876" stroke="white" stroke-width="0.8" stroke-opacity="0.059"/>
  <line x1="490" y1="1030" x2="305" y2="994" stroke="white" stroke-width="0.8" stroke-opacity="0.057"/>
  <line x1="490" y1="1030" x2="516" y2="841" stroke="white" stroke-width="0.8" stroke-opacity="0.056"/>
  <line x1="490" y1="1030" x2="602" y2="997" stroke="white" stroke-width="0.8" stroke-opacity="0.081"/>
  <line x1="1613" y1="394" x2="1814" y2="420" stroke="white" stroke-width="0.8" stroke-opacity="0.052"/>
  <line x1="1613" y1="394" x2="1801" y2="288" stroke="white" stroke-width="0.8" stroke-opacity="0.048"/>
  <line x1="1613" y1="394" x2="1758" y2="423" stroke="white" stroke-width="0.8" stroke-opacity="0.071"/>
  <line x1="1613" y1="394" x2="1422" y2="323" stroke="white" stroke-width="0.8" stroke-opacity="0.052"/>
  <line x1="828" y1="149" x2="825" y2="130" stroke="white" stroke-width="0.8" stroke-opacity="0.114"/>
  <line x1="828" y1="149" x2="642" y2="131" stroke="white" stroke-width="0.8" stroke-opacity="0.058"/>
  <line x1="828" y1="149" x2="828" y2="334" stroke="white" stroke-width="0.8" stroke-opacity="0.058"/>
  <line x1="828" y1="149" x2="777" y2="264" stroke="white" stroke-width="0.8" stroke-opacity="0.078"/>
  <line x1="785" y1="917" x2="754" y2="668" stroke="white" stroke-width="0.8" stroke-opacity="0.036"/>
  <line x1="785" y1="917" x2="591" y2="876" stroke="white" stroke-width="0.8" stroke-opacity="0.054"/>
  <line x1="785" y1="917" x2="516" y2="841" stroke="white" stroke-width="0.8" stroke-opacity="0.030"/>
  <line x1="785" y1="917" x2="602" y2="997" stroke="white" stroke-width="0.8" stroke-opacity="0.053"/>
  <line x1="754" y1="668" x2="591" y2="876" stroke="white" stroke-width="0.8" stroke-opacity="0.032"/>
  <line x1="754" y1="668" x2="990" y2="599" stroke="white" stroke-width="0.8" stroke-opacity="0.038"/>
  <line x1="754" y1="668" x2="978" y2="700" stroke="white" stroke-width="0.8" stroke-opacity="0.045"/>
  <line x1="591" y1="876" x2="516" y2="841" stroke="white" stroke-width="0.8" stroke-opacity="0.092"/>
  <line x1="591" y1="876" x2="602" y2="997" stroke="white" stroke-width="0.8" stroke-opacity="0.080"/>
  <line x1="138" y1="797" x2="305" y2="994" stroke="white" stroke-width="0.8" stroke-opacity="0.034"/>
  <line x1="138" y1="797" x2="143" y2="727" stroke="white" stroke-width="0.8" stroke-opacity="0.097"/>
  <line x1="138" y1="797" x2="196" y2="673" stroke="white" stroke-width="0.8" stroke-opacity="0.074"/>
  <line x1="990" y1="599" x2="978" y2="700" stroke="white" stroke-width="0.8" stroke-opacity="0.086"/>
  <line x1="990" y1="599" x2="1143" y2="796" stroke="white" stroke-width="0.8" stroke-opacity="0.037"/>
  <line x1="990" y1="599" x2="996" y2="438" stroke="white" stroke-width="0.8" stroke-opacity="0.066"/>
  <line x1="305" y1="994" x2="516" y2="841" stroke="white" stroke-width="0.8" stroke-opacity="0.033"/>
  <line x1="825" y1="130" x2="642" y2="131" stroke="white" stroke-width="0.8" stroke-opacity="0.059"/>
  <line x1="825" y1="130" x2="828" y2="334" stroke="white" stroke-width="0.8" stroke-opacity="0.052"/>
  <line x1="825" y1="130" x2="777" y2="264" stroke="white" stroke-width="0.8" stroke-opacity="0.073"/>
  <line x1="1180" y1="350" x2="1232" y2="246" stroke="white" stroke-width="0.8" stroke-opacity="0.081"/>
  <line x1="1180" y1="350" x2="1422" y2="323" stroke="white" stroke-width="0.8" stroke-opacity="0.039"/>
  <line x1="1180" y1="350" x2="1350" y2="225" stroke="white" stroke-width="0.8" stroke-opacity="0.050"/>
  <line x1="1180" y1="350" x2="996" y2="438" stroke="white" stroke-width="0.8" stroke-opacity="0.052"/>
  <line x1="1748" y1="693" x2="1758" y2="423" stroke="white" stroke-width="0.8" stroke-opacity="0.030"/>
  <line x1="1316" y1="956" x2="1487" y2="1009" stroke="white" stroke-width="0.8" stroke-opacity="0.060"/>
  <line x1="1316" y1="956" x2="1449" y2="713" stroke="white" stroke-width="0.8" stroke-opacity="0.030"/>
  <line x1="1316" y1="956" x2="1143" y2="796" stroke="white" stroke-width="0.8" stroke-opacity="0.041"/>
  <line x1="1316" y1="956" x2="1360" y2="754" stroke="white" stroke-width="0.8" stroke-opacity="0.051"/>
  <line x1="1814" y1="420" x2="1801" y2="288" stroke="white" stroke-width="0.8" stroke-opacity="0.076"/>
  <line x1="1814" y1="420" x2="1824" y2="153" stroke="white" stroke-width="0.8" stroke-opacity="0.031"/>
  <line x1="1814" y1="420" x2="1758" y2="423" stroke="white" stroke-width="0.8" stroke-opacity="0.101"/>
  <line x1="1232" y1="246" x2="1422" y2="323" stroke="white" stroke-width="0.8" stroke-opacity="0.052"/>
  <line x1="1232" y1="246" x2="1350" y2="225" stroke="white" stroke-width="0.8" stroke-opacity="0.080"/>
  <line x1="1492" y1="121" x2="1422" y2="323" stroke="white" stroke-width="0.8" stroke-opacity="0.049"/>
  <line x1="1492" y1="121" x2="1350" y2="225" stroke="white" stroke-width="0.8" stroke-opacity="0.061"/>
  <line x1="143" y1="727" x2="196" y2="673" stroke="white" stroke-width="0.8" stroke-opacity="0.095"/>
  <line x1="516" y1="841" x2="602" y2="997" stroke="white" stroke-width="0.8" stroke-opacity="0.061"/>
  <line x1="642" y1="131" x2="828" y2="334" stroke="white" stroke-width="0.8" stroke-opacity="0.030"/>
  <line x1="642" y1="131" x2="777" y2="264" stroke="white" stroke-width="0.8" stroke-opacity="0.057"/>
  <line x1="642" y1="131" x2="551" y2="217" stroke="white" stroke-width="0.8" stroke-opacity="0.078"/>
  <line x1="1801" y1="288" x2="1824" y2="153" stroke="white" stroke-width="0.8" stroke-opacity="0.074"/>
  <line x1="1801" y1="288" x2="1758" y2="423" stroke="white" stroke-width="0.8" stroke-opacity="0.073"/>
  <line x1="1824" y1="153" x2="1758" y2="423" stroke="white" stroke-width="0.8" stroke-opacity="0.030"/>
  <line x1="828" y1="334" x2="777" y2="264" stroke="white" stroke-width="0.8" stroke-opacity="0.091"/>
  <line x1="828" y1="334" x2="996" y2="438" stroke="white" stroke-width="0.8" stroke-opacity="0.054"/>
  <line x1="978" y1="700" x2="1143" y2="796" stroke="white" stroke-width="0.8" stroke-opacity="0.056"/>
  <line x1="978" y1="700" x2="996" y2="438" stroke="white" stroke-width="0.8" stroke-opacity="0.032"/>
  <line x1="383" y1="429" x2="551" y2="217" stroke="white" stroke-width="0.8" stroke-opacity="0.030"/>
  <line x1="777" y1="264" x2="551" y2="217" stroke="white" stroke-width="0.8" stroke-opacity="0.043"/>
  <line x1="777" y1="264" x2="996" y2="438" stroke="white" stroke-width="0.8" stroke-opacity="0.030"/>
  <line x1="1422" y1="323" x2="1350" y2="225" stroke="white" stroke-width="0.8" stroke-opacity="0.079"/>
  <line x1="1449" y1="713" x2="1360" y2="754" stroke="white" stroke-width="0.8" stroke-opacity="0.087"/>
  <line x1="1143" y1="796" x2="1360" y2="754" stroke="white" stroke-width="0.8" stroke-opacity="0.046"/>
  <circle cx="1359" cy="164" r="2" fill="white" fill-opacity="0.18"/>
  <circle cx="1359" cy="164" r="5" stroke="white" stroke-width="0.6" stroke-opacity="0.09"/>
  <circle cx="101" cy="809" r="2" fill="white" fill-opacity="0.18"/>
  <circle cx="101" cy="809" r="5" stroke="white" stroke-width="0.6" stroke-opacity="0.09"/>
  <circle cx="613" cy="300" r="2" fill="white" fill-opacity="0.18"/>
  <circle cx="613" cy="300" r="5" stroke="white" stroke-width="0.6" stroke-opacity="0.09"/>
  <circle cx="507" cy="192" r="2" fill="white" fill-opacity="0.18"/>
  <circle cx="507" cy="192" r="5" stroke="white" stroke-width="0.6" stroke-opacity="0.09"/>
  <circle cx="1558" cy="154" r="2" fill="white" fill-opacity="0.18"/>
  <circle cx="1558" cy="154" r="5" stroke="white" stroke-width="0.6" stroke-opacity="0.09"/>
  <circle cx="1435" cy="808" r="2" fill="white" fill-opacity="0.18"/>
  <circle cx="1435" cy="808" r="5" stroke="white" stroke-width="0.6" stroke-opacity="0.09"/>
  <circle cx="1166" cy="139" r="2" fill="white" fill-opacity="0.18"/>
  <circle cx="1166" cy="139" r="5" stroke="white" stroke-width="0.6" stroke-opacity="0.09"/>
  <circle cx="1259" cy="482" r="2" fill="white" fill-opacity="0.18"/>
  <circle cx="1259" cy="482" r="5" stroke="white" stroke-width="0.6" stroke-opacity="0.09"/>
  <circle cx="115" cy="80" r="2" fill="white" fill-opacity="0.18"/>
  <circle cx="115" cy="80" r="5" stroke="white" stroke-width="0.6" stroke-opacity="0.09"/>
  <circle cx="241" cy="273" r="2" fill="white" fill-opacity="0.18"/>
  <circle cx="241" cy="273" r="5" stroke="white" stroke-width="0.6" stroke-opacity="0.09"/>
  <circle cx="526" cy="567" r="2" fill="white" fill-opacity="0.18"/>
  <circle cx="526" cy="567" r="5" stroke="white" stroke-width="0.6" stroke-opacity="0.09"/>
  <circle cx="1282" cy="77" r="2" fill="white" fill-opacity="0.18"/>
  <circle cx="1282" cy="77" r="5" stroke="white" stroke-width="0.6" stroke-opacity="0.09"/>
  <circle cx="1199" cy="253" r="2" fill="white" fill-opacity="0.18"/>
  <circle cx="1199" cy="253" r="5" stroke="white" stroke-width="0.6" stroke-opacity="0.09"/>
  <circle cx="1516" cy="715" r="2" fill="white" fill-opacity="0.18"/>
  <circle cx="1516" cy="715" r="5" stroke="white" stroke-width="0.6" stroke-opacity="0.09"/>
  <circle cx="1486" cy="608" r="2" fill="white" fill-opacity="0.18"/>
  <circle cx="1486" cy="608" r="5" stroke="white" stroke-width="0.6" stroke-opacity="0.09"/>
  <circle cx="909" cy="275" r="2" fill="white" fill-opacity="0.18"/>
  <circle cx="909" cy="275" r="5" stroke="white" stroke-width="0.6" stroke-opacity="0.09"/>
  <circle cx="969" cy="653" r="2" fill="white" fill-opacity="0.18"/>
  <circle cx="969" cy="653" r="5" stroke="white" stroke-width="0.6" stroke-opacity="0.09"/>
  <circle cx="619" cy="878" r="2" fill="white" fill-opacity="0.18"/>
  <circle cx="619" cy="878" r="5" stroke="white" stroke-width="0.6" stroke-opacity="0.09"/>
  <circle cx="1830" cy="56" r="2" fill="white" fill-opacity="0.18"/>
  <circle cx="1830" cy="56" r="5" stroke="white" stroke-width="0.6" stroke-opacity="0.09"/>
  <circle cx="1604" cy="875" r="2" fill="white" fill-opacity="0.18"/>
  <circle cx="1604" cy="875" r="5" stroke="white" stroke-width="0.6" stroke-opacity="0.09"/>
  <circle cx="376" cy="764" r="2" fill="white" fill-opacity="0.18"/>
  <circle cx="376" cy="764" r="5" stroke="white" stroke-width="0.6" stroke-opacity="0.09"/>
  <circle cx="915" cy="398" r="2" fill="white" fill-opacity="0.18"/>
  <circle cx="915" cy="398" r="5" stroke="white" stroke-width="0.6" stroke-opacity="0.09"/>
  <circle cx="619" cy="209" r="2" fill="white" fill-opacity="0.18"/>
  <circle cx="619" cy="209" r="5" stroke="white" stroke-width="0.6" stroke-opacity="0.09"/>
  <circle cx="490" cy="1030" r="2" fill="white" fill-opacity="0.18"/>
  <circle cx="490" cy="1030" r="5" stroke="white" stroke-width="0.6" stroke-opacity="0.09"/>
  <circle cx="1613" cy="394" r="2" fill="white" fill-opacity="0.18"/>
  <circle cx="1613" cy="394" r="5" stroke="white" stroke-width="0.6" stroke-opacity="0.09"/>
  <circle cx="259" cy="144" r="2" fill="white" fill-opacity="0.18"/>
  <circle cx="259" cy="144" r="5" stroke="white" stroke-width="0.6" stroke-opacity="0.09"/>
  <circle cx="828" cy="149" r="2" fill="white" fill-opacity="0.18"/>
  <circle cx="828" cy="149" r="5" stroke="white" stroke-width="0.6" stroke-opacity="0.09"/>
  <circle cx="785" cy="917" r="2" fill="white" fill-opacity="0.18"/>
  <circle cx="785" cy="917" r="5" stroke="white" stroke-width="0.6" stroke-opacity="0.09"/>
  <circle cx="754" cy="668" r="2" fill="white" fill-opacity="0.18"/>
  <circle cx="754" cy="668" r="5" stroke="white" stroke-width="0.6" stroke-opacity="0.09"/>
  <circle cx="591" cy="876" r="2" fill="white" fill-opacity="0.18"/>
  <circle cx="591" cy="876" r="5" stroke="white" stroke-width="0.6" stroke-opacity="0.09"/>
  <circle cx="138" cy="797" r="2" fill="white" fill-opacity="0.18"/>
  <circle cx="138" cy="797" r="5" stroke="white" stroke-width="0.6" stroke-opacity="0.09"/>
  <circle cx="990" cy="599" r="2" fill="white" fill-opacity="0.18"/>
  <circle cx="990" cy="599" r="5" stroke="white" stroke-width="0.6" stroke-opacity="0.09"/>
  <circle cx="305" cy="994" r="2" fill="white" fill-opacity="0.18"/>
  <circle cx="305" cy="994" r="5" stroke="white" stroke-width="0.6" stroke-opacity="0.09"/>
  <circle cx="825" cy="130" r="2" fill="white" fill-opacity="0.18"/>
  <circle cx="825" cy="130" r="5" stroke="white" stroke-width="0.6" stroke-opacity="0.09"/>
  <circle cx="1180" cy="350" r="2" fill="white" fill-opacity="0.18"/>
  <circle cx="1180" cy="350" r="5" stroke="white" stroke-width="0.6" stroke-opacity="0.09"/>
  <circle cx="1748" cy="693" r="2" fill="white" fill-opacity="0.18"/>
  <circle cx="1748" cy="693" r="5" stroke="white" stroke-width="0.6" stroke-opacity="0.09"/>
  <circle cx="1316" cy="956" r="2" fill="white" fill-opacity="0.18"/>
  <circle cx="1316" cy="956" r="5" stroke="white" stroke-width="0.6" stroke-opacity="0.09"/>
  <circle cx="1814" cy="420" r="2" fill="white" fill-opacity="0.18"/>
  <circle cx="1814" cy="420" r="5" stroke="white" stroke-width="0.6" stroke-opacity="0.09"/>
  <circle cx="1232" cy="246" r="2" fill="white" fill-opacity="0.18"/>
  <circle cx="1232" cy="246" r="5" stroke="white" stroke-width="0.6" stroke-opacity="0.09"/>
  <circle cx="1492" cy="121" r="2" fill="white" fill-opacity="0.18"/>
  <circle cx="1492" cy="121" r="5" stroke="white" stroke-width="0.6" stroke-opacity="0.09"/>
  <circle cx="143" cy="727" r="2" fill="white" fill-opacity="0.18"/>
  <circle cx="143" cy="727" r="5" stroke="white" stroke-width="0.6" stroke-opacity="0.09"/>
  <circle cx="516" cy="841" r="2" fill="white" fill-opacity="0.18"/>
  <circle cx="516" cy="841" r="5" stroke="white" stroke-width="0.6" stroke-opacity="0.09"/>
  <circle cx="642" cy="131" r="2" fill="white" fill-opacity="0.18"/>
  <circle cx="642" cy="131" r="5" stroke="white" stroke-width="0.6" stroke-opacity="0.09"/>
  <circle cx="1801" cy="288" r="2" fill="white" fill-opacity="0.18"/>
  <circle cx="1801" cy="288" r="5" stroke="white" stroke-width="0.6" stroke-opacity="0.09"/>
  <circle cx="1824" cy="153" r="2" fill="white" fill-opacity="0.18"/>
  <circle cx="1824" cy="153" r="5" stroke="white" stroke-width="0.6" stroke-opacity="0.09"/>
  <circle cx="828" cy="334" r="2" fill="white" fill-opacity="0.18"/>
  <circle cx="828" cy="334" r="5" stroke="white" stroke-width="0.6" stroke-opacity="0.09"/>
  <circle cx="978" cy="700" r="2" fill="white" fill-opacity="0.18"/>
  <circle cx="978" cy="700" r="5" stroke="white" stroke-width="0.6" stroke-opacity="0.09"/>
  <circle cx="1758" cy="423" r="2" fill="white" fill-opacity="0.18"/>
  <circle cx="1758" cy="423" r="5" stroke="white" stroke-width="0.6" stroke-opacity="0.09"/>
  <circle cx="383" cy="429" r="2" fill="white" fill-opacity="0.18"/>
  <circle cx="383" cy="429" r="5" stroke="white" stroke-width="0.6" stroke-opacity="0.09"/>
  <circle cx="777" cy="264" r="2" fill="white" fill-opacity="0.18"/>
  <circle cx="777" cy="264" r="5" stroke="white" stroke-width="0.6" stroke-opacity="0.09"/>
  <circle cx="1422" cy="323" r="2" fill="white" fill-opacity="0.18"/>
  <circle cx="1422" cy="323" r="5" stroke="white" stroke-width="0.6" stroke-opacity="0.09"/>
  <circle cx="1487" cy="1009" r="2" fill="white" fill-opacity="0.18"/>
  <circle cx="1487" cy="1009" r="5" stroke="white" stroke-width="0.6" stroke-opacity="0.09"/>
  <circle cx="1449" cy="713" r="2" fill="white" fill-opacity="0.18"/>
  <circle cx="1449" cy="713" r="5" stroke="white" stroke-width="0.6" stroke-opacity="0.09"/>
  <circle cx="196" cy="673" r="2" fill="white" fill-opacity="0.18"/>
  <circle cx="196" cy="673" r="5" stroke="white" stroke-width="0.6" stroke-opacity="0.09"/>
  <circle cx="1350" cy="225" r="2" fill="white" fill-opacity="0.18"/>
  <circle cx="1350" cy="225" r="5" stroke="white" stroke-width="0.6" stroke-opacity="0.09"/>
  <circle cx="1143" cy="796" r="2" fill="white" fill-opacity="0.18"/>
  <circle cx="1143" cy="796" r="5" stroke="white" stroke-width="0.6" stroke-opacity="0.09"/>
  <circle cx="551" cy="217" r="2" fill="white" fill-opacity="0.18"/>
  <circle cx="551" cy="217" r="5" stroke="white" stroke-width="0.6" stroke-opacity="0.09"/>
  <circle cx="996" cy="438" r="2" fill="white" fill-opacity="0.18"/>
  <circle cx="996" cy="438" r="5" stroke="white" stroke-width="0.6" stroke-opacity="0.09"/>
  <circle cx="602" cy="997" r="2" fill="white" fill-opacity="0.18"/>
  <circle cx="602" cy="997" r="5" stroke="white" stroke-width="0.6" stroke-opacity="0.09"/>
  <circle cx="1360" cy="754" r="2" fill="white" fill-opacity="0.18"/>
  <circle cx="1360" cy="754" r="5" stroke="white" stroke-width="0.6" stroke-opacity="0.09"/>
  <circle cx="1748" cy="693" r="3.5" fill="white" fill-opacity="0.25"/>
  <circle cx="1748" cy="693" r="10" stroke="white" stroke-width="0.8" stroke-opacity="0.12"/>
  <circle cx="1748" cy="693" r="18" stroke="white" stroke-width="0.5" stroke-opacity="0.06"/>
  <circle cx="1486" cy="608" r="3.5" fill="white" fill-opacity="0.25"/>
  <circle cx="1486" cy="608" r="10" stroke="white" stroke-width="0.8" stroke-opacity="0.12"/>
  <circle cx="1486" cy="608" r="18" stroke="white" stroke-width="0.5" stroke-opacity="0.06"/>
  <circle cx="1801" cy="288" r="3.5" fill="white" fill-opacity="0.25"/>
  <circle cx="1801" cy="288" r="10" stroke="white" stroke-width="0.8" stroke-opacity="0.12"/>
  <circle cx="1801" cy="288" r="18" stroke="white" stroke-width="0.5" stroke-opacity="0.06"/>
  <circle cx="376" cy="764" r="3.5" fill="white" fill-opacity="0.25"/>
  <circle cx="376" cy="764" r="10" stroke="white" stroke-width="0.8" stroke-opacity="0.12"/>
  <circle cx="376" cy="764" r="18" stroke="white" stroke-width="0.5" stroke-opacity="0.06"/>
  <circle cx="196" cy="673" r="3.5" fill="white" fill-opacity="0.25"/>
  <circle cx="196" cy="673" r="10" stroke="white" stroke-width="0.8" stroke-opacity="0.12"/>
  <circle cx="196" cy="673" r="18" stroke="white" stroke-width="0.5" stroke-opacity="0.06"/>
  <circle cx="777" cy="264" r="3.5" fill="white" fill-opacity="0.25"/>
  <circle cx="777" cy="264" r="10" stroke="white" stroke-width="0.8" stroke-opacity="0.12"/>
  <circle cx="777" cy="264" r="18" stroke="white" stroke-width="0.5" stroke-opacity="0.06"/>
  <circle cx="1350" cy="225" r="3.5" fill="white" fill-opacity="0.25"/>
  <circle cx="1350" cy="225" r="10" stroke="white" stroke-width="0.8" stroke-opacity="0.12"/>
  <circle cx="1350" cy="225" r="18" stroke="white" stroke-width="0.5" stroke-opacity="0.06"/>
  <circle cx="507" cy="192" r="3.5" fill="white" fill-opacity="0.25"/>
  <circle cx="507" cy="192" r="10" stroke="white" stroke-width="0.8" stroke-opacity="0.12"/>
  <circle cx="507" cy="192" r="18" stroke="white" stroke-width="0.5" stroke-opacity="0.06"/>
</svg>
