<?xml version="1.0" encoding="UTF-8"?>
<svg xmlns="http://www.w3.org/2000/svg" width="97" height="97" fill="none">
  <g clip-path="url(#a)">
    <mask id="b" style="mask-type:luminance" maskUnits="userSpaceOnUse" x="0" y="0" width="97" height="97">
      <path d="M.508.502h96v96h-96v-96Z" fill="#fff" style="fill:#fff;fill-opacity:1"></path>
    </mask>
    <g mask="url(#b)" fill="#fff" fill-opacity=".7">
      <path d="m43.82 52.138 11.654-.001v-3.888h-1.28c0 1.488-1.09 2.585-2.75 2.585H49.65v-5.806h1.933v-1.286l-7.763-.002.001 1.288h1.955l.003 5.807H43.82v1.303Zm17.256.007 4.534.003 3.847-7.117h1.93v-1.29h-5.802v1.29h1.676l-2.804 5.181-2.839-5.18h2.037l-.002-1.29h-8.417l-.002 1.29h1.927l3.915 7.113Zm-40.453-8.404h-8.418l-.002 1.29h1.927l3.915 7.114 4.534.003 3.848-7.117h1.928v-1.29h-5.802v1.29h1.676l-2.802 5.181-2.84-5.18h2.037l-.001-1.29Zm16.91 4.229c-.027 1.526-.658 3.116-2.123 3.09-1.423-.026-2.05-1.6-2.023-3.163.028-1.619.804-3.03 2.137-3.008 1.334.024 2.038 1.462 2.009 3.081Zm-8.049-.02c0 2.474 1.994 4.444 5.991 4.444s5.97-1.97 5.97-4.445c0-2.44-2.093-4.385-5.992-4.385s-5.969 1.945-5.969 4.385Zm49.056-3.061c1.333.024 2.038 1.462 2.01 3.081-.029 1.526-.66 3.116-2.123 3.09-1.425-.026-2.05-1.6-2.024-3.163.028-1.619.804-3.03 2.138-3.008Zm-6.04 3.06c0 2.475 1.993 4.445 5.99 4.445 3.998 0 5.97-1.97 5.97-4.445 0-2.44-2.093-4.385-5.991-4.385-3.9 0-5.969 1.945-5.969 4.385Z" style="fill:#fff;fill-opacity:.7"></path>
      <path d="m88.008 21.23-4.876 4.875a41.038 41.038 0 0 1 6.61 22.397c0 22.773-18.462 41.234-41.234 41.234-22.773 0-41.234-18.461-41.234-41.234 0-22.773 18.461-41.234 41.234-41.234a41.038 41.038 0 0 1 22.444 6.641l4.875-4.875A47.775 47.775 0 0 0 48.507.502c-26.509 0-48 21.49-48 48s21.491 48 48 48c26.51 0 48-21.49 48-48a47.774 47.774 0 0 0-8.499-27.273Z" style="fill:#fff;fill-opacity:.7"></path>
      <path d="m72.65 2.39-.002 1.346a51.144 51.144 0 0 1 8.187 5.531l-6.839 6.84a41.161 41.161 0 0 1 6.94 6.928l6.832-6.832a53.147 53.147 0 0 1 5.535 8.152l1.314.001V2.39H72.65Z" style="fill:#fff;fill-opacity:.7"></path>
    </g>
  </g>
  <defs>
    <clipPath id="a">
      <path fill="#fff" style="fill:#fff;fill-opacity:1" transform="translate(.5 .5)" d="M0 0h96v96H0z"></path>
    </clipPath>
  </defs>
</svg>
