<?xml version="1.0" encoding="UTF-8"?>
<svg xmlns="http://www.w3.org/2000/svg" width="175" height="96" fill="none">
  <g clip-path="url(#a)">
    <path fill-rule="evenodd" clip-rule="evenodd" d="M58.57 51.246c-.007-.015-.016-.029-.022-.044-.625-1.435 1.357-4.586 2.448-6.062.009.015.015.032.023.05.262.554.562 1.059.888 1.528a.347.347 0 0 0-.073.07c-.104.149-2.053 2.968-2.292 5.115-.441-.094-.747-.28-.923-.564a.28.28 0 0 0-.048-.093Zm-4.18-4.715c.163-1.367 1.191-2.545 1.873-3.188-.073.002-.15.01-.222.01-.444 0-.872-.046-1.267-.15a4.18 4.18 0 0 1-.39-.122c-.242.197-.83.756-.883 1.548-.042.62.26 1.258.89 1.902Zm5.007-3.799c-.675.223-1.369.394-2.075.512-.014.017-.026.036-.045.05-.023.018-2.253 1.7-2.258 3.595 0 .717.327 1.384.969 1.994.015-2.178 2.159-4.804 3.409-6.15Zm1.763-5.655c-.031-.59-.19-1.102-.568-1.508-.768-.821-2.448-1.199-5.147-1.145a37.882 37.882 0 0 1-6.55-.427.32.32 0 0 1-.18.096c-.1.017-.21.034-.312.049-.21.27-.567.834-.435 1.431.128.581.69 1.082 1.67 1.49 1.987.829 8.17.83 11.52.014h.002Zm-6.209 5.547c1.267.33 3.25-.01 5.593-.956.052-.538.14-1.07.236-1.585-1.619.475-4.142.81-6.137.81a14.6 14.6 0 0 1-.755-.02c-.1.169-.303.58-.152.964.139.347.547.612 1.215.788v-.001Zm9.17 6.447c-.804 1.202-2.613 4.474-1.839 5.97.183.354.503.589.969.715-.37-2.17 1.757-5.737 1.89-5.957a12.374 12.374 0 0 1-1.021-.728h.001Zm-11.629-9.007c1.507.494 6.053.137 8.412-.656.113-.608.211-1.183.246-1.711-1.711.393-4.017.593-6.19.593a28.24 28.24 0 0 1-3.495-.198c-.125.182-.368.612-.234 1.034.125.39.55.706 1.261.938Z" fill="#fff" fill-opacity=".7" style="fill:#fff;fill-opacity:.7"></path>
    <path fill-rule="evenodd" clip-rule="evenodd" d="M60.494 42.502c-.942.943-4.332 4.537-3.804 6.923.131.59.496 1.056 1.105 1.412-.234-2.321 2.771-6.19 2.939-6.403a6.449 6.449 0 0 1-.24-1.931ZM53.968 47a4.43 4.43 0 0 1-.813-1.064 88.318 88.318 0 0 1-24.756 3.566c-6.528 0-11.125-.749-12.758-1.063.75 1.062 3.6 3.492 13.95 3.387.294-.023 12.254-.992 24.068-4.877a.346.346 0 0 1 .309.051Zm59.178-2.05c.779-1.646.441-3.452.115-5.199-.329-1.768-.641-3.439.417-4.573.915-.98 2.713-1.41 5.657-1.355 10.913.213 16.636-4.097 17.234-4.573.17-.402-.096-.708-.279-.856-.336-.273-.794-.373-.963-.275-.862.497-7.162 3.01-14.298 2.187-12.822-1.479-15.312.853-16.089 3.593-.706 2.49.486 4.1 1.638 5.654.723.975 1.405 1.894 1.545 2.96.185 1.4-.149 2.497-.993 3.261-1.208 1.094-3.122 1.196-4.129 1.165a117.18 117.18 0 0 0-.309 4.627c1.592-.171 7.885-1.181 10.454-6.617Z" fill="#fff" fill-opacity=".7" style="fill:#fff;fill-opacity:.7"></path>
    <path fill-rule="evenodd" clip-rule="evenodd" d="M52.934 45.37a2.37 2.37 0 0 1-.086-.778 2.4 2.4 0 0 1 .225-.858c-9.799 2.386-18.332 3.16-25.268 3.16-10.464 0-17.29-1.753-19.353-2.366.473.742 1.97 2.15 6.69 3.191h.004c.166.04 16.745 3.815 37.788-2.349Zm12.755 4.76c-.763 1.274-2.466 4.717-1.594 6.09.229.358.63.552 1.222.59-.58-2.055 1.142-5.42 1.502-6.09a14.31 14.31 0 0 1-1.13-.588v-.001Zm-4.22 3.582c.226-2.177 2.034-4.87 2.132-5.012.01-.014.024-.023.035-.035a11.15 11.15 0 0 1-1.34-1.42c-.876 1.29-2.715 4.515-1.953 5.858.197.346.567.546 1.125.608Zm-4.965-3.179a2.5 2.5 0 0 1-.382-.748.317.317 0 0 1-.097-.05 6.434 6.434 0 0 1-.314-.256.34.34 0 0 1-.075.066c-2.776 1.6-12.803 5.112-15.08 5.902.72.668 2.689 2.08 5.53.878 2.642-1.277 9.632-4.79 10.42-5.792h-.002ZM5.196 32.2c6.794 2.832 29.773 3.248 42.078 1.503-5.726-1.19-8.835-3.465-9.465-3.965-2.085.201-22.42 2.074-31.768-.594-1.931-.552-3.184-.61-3.828-.18-.273.181-.444.46-.52.85.108.38.694 1.215 3.503 2.386Zm47.618 24.852c1.795-1.594 5.339-3.953 6.355-4.62-.509-.15-.886-.413-1.117-.793a4.123 4.123 0 0 1-1.109-.653c-1.292 1.343-8.924 5.082-10.401 5.799-.03.494-.028 2.09 1.098 3 .846.685 2.167.842 3.922.478-.057-.615-.032-2.07 1.252-3.21Z" fill="#fff" fill-opacity=".7" style="fill:#fff;fill-opacity:.7"></path>
    <path fill-rule="evenodd" clip-rule="evenodd" d="M53.557 42.996c.006-.002.011 0 .017 0 .064-.073.131-.142.202-.209-.317-.204-.538-.453-.653-.747-.182-.463-.061-.92.073-1.223a8.266 8.266 0 0 1-.229-.03.325.325 0 0 1-.156.083c-9.196 1.748-17.244 2.368-24.034 2.368-14.042 0-22.7-2.648-24.997-3.449.352.944 1.396 2.877 4.257 3.972.371.13 17.958 6.108 45.52-.765" fill="#fff" fill-opacity=".7" style="fill:#fff;fill-opacity:.7"></path>
    <path fill-rule="evenodd" clip-rule="evenodd" d="M51.793 40.444c-.638-.29-1.04-.676-1.19-1.152-.16-.509.01-.99.177-1.303a9.106 9.106 0 0 1-.924-.209.328.328 0 0 1-.151.078c-6.594 1.264-13.26 1.732-19.363 1.732-10.804 0-19.834-1.466-23.534-2.571-2.79-.832-4.428-1.693-5.372-2.352-.58.816-.533 1.585-.373 2.102.302.98 1.201 1.837 2.344 2.235l.177.063.002.006c1.825.688 19.099 6.718 48.207 1.371Z" fill="#fff" fill-opacity=".7" style="fill:#fff;fill-opacity:.7"></path>
    <path fill-rule="evenodd" clip-rule="evenodd" d="M7.01 36.445c5.668 1.693 23.964 4.236 41.889.948-.895-.46-1.425-1.031-1.572-1.704-.12-.54.037-1.039.235-1.418-4.878.706-11.472 1.066-18.098 1.066-10.145 0-20.355-.844-24.537-2.588-1.806-.753-2.99-1.486-3.544-2.189-.39.138-.723.592-.84 1.15-.06.29-.114.892.25 1.528.006.008.014.013.02.021.009.016.993 1.632 6.197 3.187ZM108.574 57.18c1.026-1.395-.485-4.858-1.217-6.201-.35.146-.693.272-1.028.385.241.666 1.563 4.546.524 6.455.821.013 1.399-.2 1.721-.639Zm5.849-4.077c.761-1.344-1.076-4.57-1.952-5.859-.416.526-.866 1-1.342 1.421.012.013.026.021.037.036.097.143 1.905 2.835 2.133 5.01.557-.061.927-.261 1.124-.608Z" fill="#fff" fill-opacity=".7" style="fill:#fff;fill-opacity:.7"></path>
    <path fill-rule="evenodd" clip-rule="evenodd" d="M106.04 57.873c1.189-1.222.195-4.888-.328-6.314a16.91 16.91 0 0 1-1.22.315c.08.41.769 4.138 0 6.387.698.091 1.207-.037 1.548-.388Zm10.109-6.535a.3.3 0 0 1 .048-.092c.007-.015.017-.029.023-.044.626-1.436-1.357-4.586-2.45-6.062l-.02.049a10.78 10.78 0 0 1-.889 1.529c.028.02.053.043.073.07.104.15 2.052 2.968 2.292 5.115.442-.094.747-.279.923-.565Zm-3.662 3.702c.773-1.496-1.035-4.767-1.839-5.97-.334.265-.675.506-1.021.728.134.221 2.261 3.787 1.89 5.957.467-.126.786-.36.969-.715" fill="#fff" fill-opacity=".7" style="fill:#fff;fill-opacity:.7"></path>
    <path fill-rule="evenodd" clip-rule="evenodd" d="M118.075 49.425c.528-2.387-2.862-5.98-3.803-6.922a6.478 6.478 0 0 1-.24 1.931c.167.214 3.171 4.081 2.938 6.404.609-.358.973-.823 1.105-1.413Zm-7.403 6.794c.871-1.37-.832-4.816-1.594-6.088-.376.218-.757.414-1.132.589.362.672 2.083 4.035 1.504 6.09.591-.038.993-.232 1.221-.59" fill="#fff" fill-opacity=".7" style="fill:#fff;fill-opacity:.7"></path>
    <path fill-rule="evenodd" clip-rule="evenodd" d="M119.745 46.889c-.005-1.896-2.235-3.577-2.257-3.594-.02-.015-.031-.034-.047-.051a13.916 13.916 0 0 1-2.073-.512c1.25 1.347 3.392 3.973 3.409 6.15.641-.608.969-1.276.968-1.993Zm7.051-11.316c.133-.597-.224-1.161-.434-1.43-.104-.017-.213-.033-.313-.05a.33.33 0 0 1-.18-.096c-1.927.3-4.107.473-6.549.427-2.699-.055-4.381.324-5.147 1.146-.379.405-.537.917-.568 1.508 3.352.814 9.533.814 11.523-.016.979-.408 1.539-.908 1.667-1.489h.001ZM71.457 59.037c.21.194.459.304.75.334a220.018 220.018 0 0 0-.211-7.21c-.26-.028-.628-.077-1.084-.158-.308 1.587-.79 5.798.545 7.034ZM55.43 33.82c2.943-.054 4.741.376 5.656 1.357 1.057 1.133.747 2.803.417 4.572-.327 1.747-.664 3.553.114 5.198 2.52 5.33 8.614 6.405 10.35 6.604a123.441 123.441 0 0 0-.309-4.611c-1.031.02-2.857-.11-4.024-1.168-.844-.764-1.178-1.861-.994-3.26.14-1.066.823-1.987 1.545-2.96 1.153-1.556 2.346-3.165 1.638-5.655-.777-2.739-3.265-5.07-16.089-3.593-7.136.822-13.434-1.69-14.297-2.186-.17-.098-.628.002-.963.273-.182.15-.449.455-.28.857.598.476 6.321 4.786 17.236 4.572Zm47.02 25.557c.339-.012.621-.124.855-.34 1.335-1.237.855-5.448.545-7.035-.52.093-.928.144-1.188.17a217.42 217.42 0 0 0-.212 7.205ZM69.053 51.56c-.52 1.425-1.517 5.093-.327 6.314.342.351.85.48 1.547.387-.769-2.247-.08-5.975 0-6.386a17.74 17.74 0 0 1-1.22-.315Zm52.211-6.931c-.052-.79-.643-1.349-.885-1.546a5.04 5.04 0 0 1-.387.121 5.031 5.031 0 0 1-1.269.15c-.073 0-.148-.009-.221-.01.68.643 1.708 1.822 1.871 3.188.63-.645.931-1.283.891-1.903Zm-.388-3.755c-.241.013-.493.02-.755.02-1.995 0-4.519-.334-6.137-.81.094.515.183 1.046.235 1.585 2.343.946 4.328 1.287 5.594.955.667-.174 1.077-.438 1.214-.787.152-.383-.052-.795-.151-.963Zm2.656-1.747c.136-.422-.109-.854-.233-1.035a28.13 28.13 0 0 1-3.494.199c-2.173 0-4.48-.199-6.192-.593.034.528.135 1.104.247 1.71 2.359.794 6.905 1.15 8.411.658.713-.233 1.137-.55 1.261-.939Z" fill="#fff" fill-opacity=".7" style="fill:#fff;fill-opacity:.7"></path>
    <path fill-rule="evenodd" clip-rule="evenodd" d="M67.413 50.98c-.733 1.342-2.245 4.804-1.217 6.201.32.438.898.652 1.719.638-1.039-1.91.284-5.79.524-6.455-.333-.114-.677-.24-1.026-.384ZM54.41 47.36a.335.335 0 0 1-.121-.064c-.093-.08-.175-.16-.26-.24a.255.255 0 0 1 .069.19.284.284 0 0 1-.031.115.304.304 0 0 1-.077.095.333.333 0 0 1-.11.06c-10.446 3.435-21.01 4.606-23.627 4.858.921.897 3.71 2.954 9.678 2.646.839-.289 12.378-4.282 15.335-5.973-.474-.522-.76-1.086-.856-1.687Zm60.775 5.54a1.613 1.613 0 0 1-.583.947c3.572 3.721 5.335 7.624 5.804 8.774 1.662-.884 2.087-2.091 2.12-2.191.022-.114.305-1.76-1.027-2.944-1.761-1.564-5.363-3.96-6.314-4.585Zm-1.866 1.413a2.39 2.39 0 0 1-.244.987c-.115.22-.267.409-.453.568.296.497 2.413 4.084 3.073 6.178.434 1.377.515 2.43.511 3.05 2.39.215 3.454-1.62 3.672-2.055-.273-.707-2.001-4.908-5.846-8.879-.211.076-.45.125-.713.15Zm-11.681-9.739c-.864 2.52-1.177 15.069-1.023 19.011.149 3.852-2.199 5.412-3.081 5.998l-.09.06c-.826.555-9.064 3.34-10 3.657l-.112.038-.112-.038c-.937-.316-9.172-3.101-10-3.658l-.091-.059c-.883-.587-3.23-2.147-3.08-5.998.154-3.943-.16-16.494-1.022-19.01l-.065-.19 1.92-1.526.16.035c.03.006 2.89.62 5.917.62 2.928 0 4.993-.547 6.139-1.63l.234-.22.234.22c1.146 1.081 3.212 1.63 6.138 1.63 3.028 0 5.889-.614 5.917-.62l.162-.035 1.918 1.526-.063.19Zm.188 19.901c-.172-4.447.181-18.438 1.141-21.77l-1.58-1.258c-.717.143-3.665.691-6.764.691-3.362 0-5.811-.622-7.29-1.85-1.48 1.228-3.93 1.85-7.291 1.85-3.1 0-6.048-.548-6.764-.691l-1.58 1.257c1.027 3.515 1.291 17.841 1.14 21.772-.157 4.061 2.217 5.64 3.233 6.313l.104.07c.65.438 6.984 2.654 11.157 4.062 4.173-1.408 10.507-3.624 11.156-4.06l.105-.07c1.014-.675 3.391-2.253 3.233-6.315Zm17.231-14.997a5.527 5.527 0 0 1-.315.257.335.335 0 0 1-.096.05 2.576 2.576 0 0 1-.383.747c.786 1.002 7.776 4.516 10.418 5.793 2.842 1.203 4.81-.21 5.529-.878-2.275-.79-12.302-4.302-15.077-5.903a.283.283 0 0 1-.076-.065" fill="#fff" fill-opacity=".7" style="fill:#fff;fill-opacity:.7"></path>
    <path fill-rule="evenodd" clip-rule="evenodd" d="M117.826 50.987a4.156 4.156 0 0 1-1.108.653c-.233.38-.608.643-1.118.793 1.016.667 4.56 3.025 6.355 4.621 1.283 1.141 1.309 2.595 1.252 3.21 1.755.364 3.076.207 3.923-.477 1.125-.911 1.127-2.507 1.098-3-1.477-.718-9.11-4.457-10.402-5.799Zm-15.387 10.719c.001 1.102.015 2.046.042 2.75.125 3.226-1.286 5.034-2.442 6.033 1.484-.041 2.496-.73 2.648-.84.131-.148 1.058-1.259 1.058-2.977 0-1.445-.63-3.57-1.306-4.966Z" fill="#fff" fill-opacity=".7" style="fill:#fff;fill-opacity:.7"></path>
    <path fill-rule="evenodd" clip-rule="evenodd" d="M107.591 65.778c-.234-2.21-1.309-6.394-1.716-6.956a.268.268 0 0 1-.042-.092c-.275.106-.587.16-.935.16a4.171 4.171 0 0 1-.652-.06 2.417 2.417 0 0 1-.477.633c-.363.336-.808.506-1.326.515 0 .155-.003.309-.004.458.893 1.227 1.956 4.253 1.956 6.235 0 1.4-.539 2.428-.906 2.967.851.044 1.867-.22 2.489-.419a.296.296 0 0 1 .125-.235c.07-.048 1.696-1.21 1.488-3.206Z" fill="#fff" fill-opacity=".7" style="fill:#fff;fill-opacity:.7"></path>
    <path fill-rule="evenodd" clip-rule="evenodd" d="M108.783 58.013a.271.271 0 0 1-.035-.114c-.442.347-1.049.523-1.813.524-.164 0-.335-.009-.513-.025-.008 0-.014-.004-.021-.005l-.044.036a.306.306 0 0 1 .065.058c.537.743 1.608 5.188 1.822 7.233.167 1.578-.648 2.704-1.221 3.288 3.053.112 4.298-1.604 4.443-1.822.055-.174.365-1.325-.172-3.426-.598-2.346-2.491-5.713-2.511-5.747Z" fill="#fff" fill-opacity=".7" style="fill:#fff;fill-opacity:.7"></path>
    <path fill-rule="evenodd" clip-rule="evenodd" d="M112.078 56.205a3.139 3.139 0 0 1-.781.211c-.019.036-.038.073-.059.108-.378.595-1.053.896-2.008.896-.016 0-.028-.006-.044-.007-.023.035-.044.072-.069.105-.014.02-.031.039-.048.058.06-.001.12.013.171.041.052.028.094.07.122.118.08.14 1.951 3.466 2.568 5.887.45 1.763.341 2.91.235 3.443 1.352.115 2.726-.933 3.365-1.508.033-.303.112-1.526-.46-3.341-.615-1.952-2.62-5.384-2.991-6.01l-.001-.001Zm62.149-24.494c-.117-.56-.451-1.012-.84-1.15-.554.702-1.738 1.436-3.546 2.188-4.18 1.745-14.39 2.588-24.535 2.588-6.626 0-13.221-.36-18.098-1.065.198.378.353.876.235 1.418-.146.672-.677 1.242-1.573 1.703 17.926 3.289 36.222.746 41.889-.947 5.205-1.555 6.189-3.171 6.199-3.187.004-.01.012-.013.018-.022.364-.635.31-1.238.25-1.526" fill="#fff" fill-opacity=".7" style="fill:#fff;fill-opacity:.7"></path>
    <path fill-rule="evenodd" clip-rule="evenodd" d="M169.572 32.2c2.809-1.171 3.397-2.006 3.503-2.387-.076-.387-.247-.668-.52-.85-.644-.428-1.896-.37-3.828.181-9.348 2.668-29.682.795-31.768.594-.629.5-3.738 2.776-9.465 3.965 12.305 1.745 35.286 1.329 42.078-1.503Zm-1.611 4.818c-3.701 1.105-12.732 2.571-23.534 2.571-6.103 0-12.769-.468-19.362-1.732a.318.318 0 0 1-.152-.078 9.09 9.09 0 0 1-.925.208c.169.314.338.795.177 1.303-.15.478-.552.863-1.189 1.153 29.109 5.348 46.382-.684 48.207-1.37l.001-.007.177-.062c1.144-.399 2.042-1.255 2.344-2.236.161-.517.207-1.286-.373-2.102-.945.659-2.582 1.52-5.371 2.352Z" fill="#fff" fill-opacity=".7" style="fill:#fff;fill-opacity:.7"></path>
    <path fill-rule="evenodd" clip-rule="evenodd" d="M121.957 40.87a.329.329 0 0 1-.159-.082 6.69 6.69 0 0 1-.229.03c.136.303.256.758.075 1.221-.115.295-.336.544-.653.748.063.06.131.129.203.209h.016c27.562 6.874 45.149.894 45.521.765 2.86-1.095 3.904-3.03 4.256-3.972-2.297.8-10.955 3.45-24.997 3.45-6.791 0-14.837-.62-24.033-2.369Zm-1.269 6.26c.01-.029.03-.052.049-.076a6.066 6.066 0 0 1-.259.243.32.32 0 0 1-.121.065c-.096.6-.382 1.163-.856 1.686 2.957 1.69 14.495 5.683 15.335 5.972 5.97.309 8.756-1.749 9.679-2.647-2.617-.25-13.182-1.421-23.63-4.858a.318.318 0 0 1-.185-.154.279.279 0 0 1-.012-.23" fill="#fff" fill-opacity=".7" style="fill:#fff;fill-opacity:.7"></path>
    <path fill-rule="evenodd" clip-rule="evenodd" d="M121.611 45.935a4.42 4.42 0 0 1-.813 1.065.341.341 0 0 1 .309-.052c11.815 3.886 23.774 4.854 24.068 4.877 10.35.106 13.201-2.325 13.951-3.386-1.635.312-6.232 1.062-12.758 1.062a88.295 88.295 0 0 1-24.756-3.566" fill="#fff" fill-opacity=".7" style="fill:#fff;fill-opacity:.7"></path>
    <path fill-rule="evenodd" clip-rule="evenodd" d="M121.69 43.735c.119.252.205.54.226.858.018.259-.015.519-.086.777 21.042 6.165 37.623 2.39 37.788 2.352l.005-.002c4.72-1.041 6.216-2.45 6.689-3.19-2.063.612-8.89 2.366-19.353 2.366-6.935 0-15.471-.775-25.269-3.16ZM66.524 65.72c.214-2.044 1.284-6.49 1.823-7.232a.284.284 0 0 1 .063-.058c-.016-.011-.03-.025-.043-.036-.008 0-.014.003-.021.004-.177.018-.35.025-.513.025-.766 0-1.372-.176-1.813-.523a.28.28 0 0 1-.036.113c-.019.034-1.912 3.4-2.511 5.748-.536 2.1-.226 3.252-.171 3.425.145.22 1.39 1.936 4.442 1.822-.573-.583-1.386-1.709-1.22-3.288Zm5.657-1.264c.026-.655.04-1.522.042-2.525-.635 1.39-1.201 3.37-1.201 4.74 0 1.718.927 2.829 1.058 2.977.148.108 1.115.768 2.54.837-1.155-.999-2.564-2.807-2.439-6.029ZM87.33 48.522c.322.128.517.37.875.465.108-.034.184-.097.293-.131.078-.676-.828-.787-1.168-.862.026.237.11.32 0 .528Z" fill="#fff" fill-opacity=".7" style="fill:#fff;fill-opacity:.7"></path>
    <path fill-rule="evenodd" clip-rule="evenodd" d="m72.22 60.587-.004-.616a1.928 1.928 0 0 1-1.222-.509 2.425 2.425 0 0 1-.475-.632 4.266 4.266 0 0 1-.654.062c-.348 0-.66-.055-.934-.162a.291.291 0 0 1-.041.092c-.406.564-1.484 4.746-1.716 6.955-.209 1.997 1.417 3.159 1.487 3.207a.29.29 0 0 1 .125.237c.623.197 1.639.46 2.49.418a5.275 5.275 0 0 1-.906-2.967c0-1.906.982-4.775 1.85-6.084ZM61.69 55.3a2.39 2.39 0 0 1-.242-.986 3 3 0 0 1-.715-.152c-3.844 3.97-5.571 8.173-5.844 8.88.217.435 1.281 2.27 3.67 2.054-.004-.62.079-1.673.512-3.05.66-2.094 2.777-5.681 3.074-6.179a1.874 1.874 0 0 1-.455-.567Zm34.832-8.5a3.346 3.346 0 0 0-.37 1.367c-.043.026-2.399.014-2.41.026a4.638 4.638 0 0 0-1.095-2.187c.508-.178 1.11.087 1.244.464.08.316-.23.278-.148.595.111.351.881.208.95-.065-.053-.432-.337-.307-.365-.663-.088-1.133 1.276-.88 1.097.067-.041.218-.24.168-.365.462.014.425.885.567 1.023.134.044-.285-.238-.271-.219-.53.143-.426.794-.581 1.17-.597-.188.288-.319.546-.513.927Zm-.424 6.955c.04-.984-1.176-.833-1.241-1.722-.24.442-1.272.781-1.535.133.543.173 1.244-.735.364-.927-.408.132-.666.504-.585 1.19.13 1.085 1.08 1.8 1.756 2.785.775 1.127 1.461 2.592 1.242 4.437-.183 1.544-1.095 2.815-3.362 2.517-.3.456-.173 1.041-.365 1.59-.092.259-.404.467-.365.728.167 1.215 2.364.09 2.922.133.515.038.913.385.805.993-.459.084-.615-.384-1.023-.133.165.516 1.275.996.583 1.656-.463-.067-.237-.755-.804-.729-.16.34.142.98-.073 1.392-.271.18-.271-.343-.657-.266-.566.282-.881.791-1.243 1.258.359.42-.121.681-.145 1.126-.323-.108-.282-.33-.73-.198-.055-.194-.085-.41-.22-.53-.264.05-.165.425-.293.596-.442-.04-.555.193-.95.331.084-.35.05-.45-.22-.596-.095-.372.313-.289.22-.662-.055-.192-.604.06-.657-.132-.018-.868 1.1-.42 1.971-.663.597-.166 1.227-.866 1.17-1.325-.052-.426-.902-.808-1.388-.66-.559.165-.356.81-1.024.728-.174-.153.028-.645-.145-.795-.395.502-.602 1.176-1.608 1.125-.093-.353.444-.52.512-.794.163-.67-.797-1.569-.585-2.583.211-1.016 1.674-1.554 1.463-2.584-.323-1.558-5.262-1.375-5.263-3.245-.07-.33.462-.112.585-.266.04-.302-.13-.412-.073-.728.291-.147.523.019.875 0 .146-.179.046-.578.075-.861.596.12.63.752 1.315.794.357-.007.313-.377.438-.595.436.223.43.848 1.17.794.245-.042.234-.318.22-.597.929.472 1.461 1.54 2.263 2.12.432.313 1.32.555 1.537 1.06.227.538-.258 1.246.292 1.524 1.785.27 2.154-1.697 1.972-2.848-.165-1.05-.638-2.017-1.315-2.98-.802-1.141-1.931-2.167-1.534-3.91.18-.79 1.007-1.37 2.046-1.39.523-.01 1.222.237 1.316-.463.644.214.445 1.059-.146 1.192.993.298 1.48 2.387.438 2.98ZM88.436 69.91a3.303 3.303 0 0 0-.37 1.366c-.042.025-2.4.013-2.407.025a4.649 4.649 0 0 0-1.098-2.185c.506-.18 1.11.087 1.242.463.082.317-.227.278-.146.596.112.35.882.207.95-.066-.055-.432-.336-.307-.364-.663-.09-1.133 1.274-.879 1.096.066-.042.22-.24.17-.365.463.015.426.885.569 1.023.135.045-.284-.24-.272-.22-.531.144-.427.796-.58 1.17-.596-.187.288-.316.545-.51.927Zm-4.248-2.047c-.316 0-.27-.329-.585-.33-.782.196-1.643.322-1.755 1.125-.218.135-.548.165-.583.465-.203-.326-.632-.445-.512-1.06-.334-.04-.26.293-.512.33-.238-.132-.486-.158-.803-.067.067-.322.219-.458 0-.727.138-.14.421-.15.51-.332.036-.319-.422-.19-.437-.462.657-.785 1.317.259 1.827.33.96.133 2.26-.705 2.265-1.457.005-.564-.88-1.355-1.022-1.92-.66.138-.08.9 0 1.192-.516.269-.71-.268-.66-.73-.753.423-1.688.045-1.46-.993.357.051.45.342.73.464 1.566.032 1.593-1.547 2.632-2.384 1.203-.971 3.694-1.016 5.553-.133.232.388-.066.939-.51 1.059-1.215.328-2.72.576-3.509 1.657-.127.172-.412.678-.291 1.126.159.602 1.74.71.948 1.656-.351-.058-.326-.454-.73-.463a.376.376 0 0 1-.218.065c-.212.35.444.64.218.993-.409.192-.5-.414-.95-.397-.486.125.165.65-.146.993Zm-5.043-9.603c.11-.387-.21-.384-.365-.53-.056-.273.111-.341.073-.596-.396-.028-.332.36-.586.463-.4-.061-.578-.187-1.02-.065.097-.337.32-.451.07-.797.251-.148.47-.326.584-.595-.022-.22-.462-.067-.51-.265.564-1.239 1.55.116 2.266.199.518.06 1.262-.323 1.825-.464.654-.162 1.313-.267 1.756-.53.912-.542.922-1.654 1.754-2.12h.22c.284.073.354.341.657.398.365.066.358-.206.657-.199.392.064.393.482.732.596.447-.013.674-.227 1.022-.331.351.015.315.378.585.465.312.015.395-.174.732-.134.76.513.88 1.998 2.12 1.92.355-.019.457-.35.803-.264.04.918-.884 1.607-2.048 1.391-.59-.108-.904-.78-1.46-.595-.18.056.021.46-.147.528-.775.084-.535-.75-1.169-.794-.292.023-.034.544-.22.663-.729-.001-.743-.651-1.315-.795-.563.046-.195.619-.365.927-.406.038-.514-.198-.877-.2-.33.134.041.515-.073.862h-.585c-.032.178.024.576-.148.795a1.7 1.7 0 0 1-.656.068c.783-1.71-1.987-1.066-3.216-.995-.248.084-.265.376-.292.662-.543-.139-.375.366-.803.332Zm-.585-11.79c.081.316-.228.278-.146.595.11.351.88.208.95-.065-.053-.432-.337-.307-.365-.663-.089-1.133 1.274-.88 1.096.067-.042.218-.24.168-.365.462.016.425.886.567 1.023.134.045-.285-.24-.271-.22-.53.144-.426.794-.581 1.17-.597-.186.288-.316.546-.511.927-.2.394-.352.878-.371 1.367-.042.026-2.399.014-2.407.026a4.665 4.665 0 0 0-1.096-2.189c.506-.176 1.11.089 1.242.466Zm4.386 6.225c.338.136.86.104 1.242.2-.143.754-.504 1.31-.95 1.788-.385.019-.73-.005-.95-.133-.389.253-.951.665-1.463.265-.004-.468.722-.273.805-.662-.248-.49-.719.468-1.317.065-.062-.389.416-.286.512-.528-.319-.968-1.35-1.294-1.9-2.054-.647.203-.718-.197-1.241-.265.046-.26.436-.28.218-.596.128-.15.517-.061.585-.265-.116-.203-.53-.139-.657-.332.262-.376-.187-.428-.22-.73.146-.063.592.093.657-.196.356-.035.323.281.659.263.223-.121-.084-.314 0-.528h.145c.932.128.647.918.73 1.523.134.922 1.187 1.288 2.12 1.79.097-.026.116-.118.22-.134.007-.315-.335-.315-.365-.597.733-.418.986.618 1.17 1.126Zm8.842 1.523c-.667.79-1.834-.087-1.973-.794-.396-.071-.435.18-.803.133-.197-.11-.236-.361-.44-.463-.704.3-1.462.34-1.826-.266-.361-.039-.444.173-.804.132-.537-.522-1.4.02-1.9-.463.925-.725 1.996.051 2.996-.331.333.073.444.347.73.464.443.067.563-.154.879-.2.35-.01.256.386.51.465.305.03.473-.407.658-.265.25.258.484.532.951.595 0 .64.358.956 1.022.993Zm-8.258-5.629c.504-.171.787.315 1.023.596a5.037 5.037 0 0 0 2.558-.132c-.18-.372-1.34-.24-1.46.066-.291-.357-.432-.844-.512-1.392.827-.417 2.588.007 3.215-.595.99.28 1.59.679 2.997.463.073.664-.316.907-.658 1.193.474.792.84 2.056.877 2.849-.397.072-.487-.135-.804-.135.233.475.474.94.438 1.657-.457-.248-1.065-.36-1.242-.86-.362-.064-.391.176-.658.198-.322.026-.19-.358-.44-.398-.41-.041-.45.254-.803.265-.446-.015-.526-.363-.876-.462-.886.456-1.214-.259-2.12-.067.13-.965 1.898-.443 2.267-1.193-.7-.115-2.308.505-1.829-.993.316.332 1.415.547 1.682 0-.824-.622-4.022.976-3.655-1.06Zm10.173-4.473c-2.928 0-5.068-.54-6.372-1.605-1.304 1.065-3.446 1.606-6.373 1.606-2.722 0-5.241-.469-5.902-.601l-1.346 1.07c.893 3.117 1.124 15.59.992 19.022-.138 3.529 1.926 4.9 2.808 5.486l.091.062c.566.379 6.085 2.31 9.73 3.54 3.644-1.23 9.163-3.161 9.728-3.54l.092-.06c.881-.587 2.945-1.96 2.81-5.488-.132-3.43.097-15.9.991-19.022l-1.346-1.07c-.66.133-3.18.6-5.903.602" fill="#fff" fill-opacity=".7" style="fill:#fff;fill-opacity:.7"></path>
    <path fill-rule="evenodd" clip-rule="evenodd" d="M65.407 57.735c.028-.05.07-.09.123-.118a.345.345 0 0 1 .171-.041c-.016-.02-.033-.036-.049-.057-.025-.034-.046-.071-.067-.106-.016.002-.03.008-.045.008-.954 0-1.63-.301-2.008-.896l-.06-.11a3.109 3.109 0 0 1-.78-.21c-.373.629-2.377 4.059-2.991 6.01-.573 1.817-.494 3.04-.462 3.342.641.576 2.012 1.623 3.366 1.507-.106-.53-.216-1.677.234-3.441.618-2.42 2.49-5.748 2.568-5.888Zm-5.642-4.352a1.805 1.805 0 0 1-.182-.482c-.95.626-4.553 3.021-6.314 4.587-1.331 1.183-1.048 2.83-1.027 2.942.033.1.458 1.308 2.12 2.191.47-1.149 2.232-5.053 5.803-8.774a1.642 1.642 0 0 1-.4-.464Zm-41.193 33.35-.712 4.643h1.427l-.715-4.642Zm-1.01 6.373-.47 2.706h-2.006l2.171-11.776h2.65l2.141 11.776h-2.026l-.45-2.706H17.56Zm7.1 2.706-2.284-11.775h2.02l1.604 9.178 1.615-9.178h2.018l-2.323 11.775h-2.65Z" fill="#fff" fill-opacity=".7" style="fill:#fff;fill-opacity:.7"></path>
    <mask id="b" style="mask-type:alpha" maskUnits="userSpaceOnUse" x="0" y="0" width="175" height="96">
      <path d="M.5 95.962h173.768V0H.5v95.962Z" fill="#fff" style="fill:#fff;fill-opacity:1"></path>
    </mask>
    <g mask="url(#b)" fill-rule="evenodd" clip-rule="evenodd">
      <path d="M31.96 95.812h1.928V84.037H31.96v11.775Zm7.741-9.079-.713 4.643h1.427l-.714-4.643Zm-1.011 6.373-.47 2.706h-2.005l2.17-11.776h2.651l2.14 11.776h-2.025l-.45-2.706H38.69Zm7.07-7.284h-2.05v-1.785h6.015v1.785h-2.04v9.989H45.76v-9.989Zm12.378 7.058c.013.82-.218 1.522-.694 2.104-.312.395-.753.674-1.324.836a3.903 3.903 0 0 1-1.071.134c-.755 0-1.38-.173-1.876-.518a2.942 2.942 0 0 1-.983-1.153c-.24-.483-.381-1.04-.423-1.667l1.835-.122c.082.687.279 1.185.591 1.493.232.233.495.344.795.331.421-.013.758-.204 1.009-.574.13-.182.194-.443.194-.781 0-.49-.242-.975-.723-1.458l-1.713-1.495c-.639-.57-1.091-1.082-1.356-1.534a3.316 3.316 0 0 1-.427-1.656c0-1.07.39-1.884 1.171-2.436.483-.332 1.08-.498 1.794-.498.688 0 1.275.14 1.763.423.382.219.688.527.922.92.235.395.377.85.423 1.364l-1.844.31c-.055-.483-.204-.86-.449-1.129-.177-.194-.431-.29-.764-.29-.353 0-.622.144-.805.432-.149.231-.224.52-.224.864 0 .539.25 1.087.754 1.646.19.212.475.462.856.75.448.346.744.586.887.724.476.439.842.87 1.1 1.297.123.202.222.385.296.555.184.42.279.795.286 1.127v.001Zm2.317 2.932h1.927V84.037h-1.928l.001 11.775Zm6.762-4.935-2.58-6.85h2.12l1.428 4.229 1.417-4.23h2.13l-2.588 6.851v4.935h-1.928l.001-4.935Zm8.23-4.144-.714 4.643h1.427l-.713-4.643Zm-1.013 6.373-.467 2.706H71.96l2.172-11.776h2.65l2.14 11.776h-2.026l-.45-2.706h-2.012Zm13.619-2.284v4.99h-1.927V84.036h1.928v5h2.323v-5h1.927v11.776h-1.928v-4.99h-2.323Zm10.065-4.089-.714 4.643h1.427l-.713-4.643Zm-1.013 6.373-.468 2.706h-2.006l2.172-11.776h2.65l2.139 11.776h-2.025l-.45-2.706h-2.013Zm12.075 2.706h-5.25V84.037h1.927v10.007h3.324l-.001 1.768Zm2.237-4.935-2.58-6.85h2.12l1.427 4.229 1.418-4.23h2.129l-2.588 6.851v4.935h-1.927l.001-4.935Zm9.126 5.085a3.169 3.169 0 0 1-1.176-.204 2.968 2.968 0 0 1-.991-.618 2.706 2.706 0 0 1-.669-.909 2.52 2.52 0 0 1-.222-1.078v-6.428c0-.784.299-1.45.896-1.998a2.97 2.97 0 0 1 .989-.617 3.18 3.18 0 0 1 1.173-.205c.849 0 1.569.275 2.161.826.59.552.885 1.216.885 1.994v1.344h-1.997v-1.383a.923.923 0 0 0-.082-.393.973.973 0 0 0-.243-.33 1.085 1.085 0 0 0-.359-.226 1.155 1.155 0 0 0-.426-.075 1.105 1.105 0 0 0-1.021.632.933.933 0 0 0-.08.392v6.447a.95.95 0 0 0 .32.72c.214.196.475.294.781.294.306 0 .566-.098.785-.294a.938.938 0 0 0 .325-.72v-1.626h1.998v1.646c0 .782-.299 1.446-.897 1.992a2.962 2.962 0 0 1-.984.612c-.37.14-.766.21-1.166.205Zm7.271-5.14v4.99h-1.927V84.036h1.927v5h2.324v-5h1.927v11.776h-1.927v-4.99h-2.324Zm9.086.055-2.579-6.85h2.12l1.428 4.229 1.417-4.23h2.129l-2.589 6.851v4.935h-1.927l.001-4.935Zm8.934-6.85 2.557 7.92v-7.92h1.927V95.81h-2.07l-2.649-7.546v7.546h-1.928V84.027h2.163Zm9.328 6.85-2.578-6.85h2.12l1.427 4.229 1.417-4.23h2.13l-2.589 6.851v4.935h-1.927v-4.935ZM87.365 23.005c-6.877 0-12.474-5.16-12.474-11.501C74.89 5.159 80.488 0 87.365 0c6.88 0 12.476 5.16 12.476 11.503 0 6.341-5.597 11.5-12.475 11.5" fill="#fff" fill-opacity=".7" style="fill:#fff;fill-opacity:.7"></path>
      <path d="M87.365 19.716c-4.912 0-8.909-3.686-8.909-8.215 0-4.53 3.997-8.215 8.91-8.215 4.912 0 8.91 3.686 8.91 8.215 0 4.53-3.998 8.216-8.91 8.216Z" fill="#fff" fill-opacity=".7" style="fill:#fff;fill-opacity:.7"></path>
      <path d="M92.71 11.502c0 .647-.137 1.288-.406 1.885a4.92 4.92 0 0 1-1.158 1.6 5.398 5.398 0 0 1-1.734 1.068 5.744 5.744 0 0 1-4.093 0 5.398 5.398 0 0 1-1.734-1.069 4.92 4.92 0 0 1-1.158-1.599 4.593 4.593 0 0 1-.407-1.885c0-1.307.563-2.56 1.566-3.484 1.002-.924 2.362-1.443 3.78-1.444 1.418 0 2.777.52 3.78 1.444 1.002.924 1.565 2.177 1.565 3.484Z" fill="#0F0F0F" style="fill:color(display-p3 .0588 .0588 .0588);fill-opacity:1"></path>
      <path d="M90.239 8.271c-.733.746-2.136 1.206-2.047 2.343.06.766 1.545 1.716.163 2.264-.651-1.03-.88-2.923-.246-4.304-.155-.326-.46-.54-.742-.75V7.82c-.281.212-.584.43-.74.755.634 1.382.406 3.274-.246 4.304-1.38-.548.104-1.498.164-2.264.088-1.137-1.315-1.597-2.047-2.343.004 1.818-.003 3.752 0 5.82a41.78 41.78 0 0 0 1.885 0c.229.539.642 1.032.98 1.444v.015l.005-.007.006.007v-.015c.338-.413.75-.905.98-1.444a41.78 41.78 0 0 0 1.885 0c.003-2.068-.004-4.002 0-5.82Z" fill="#020202" style="fill:color(display-p3 .0078 .0078 .0078);fill-opacity:1"></path>
      <path d="M79.946 57.929c.025-.287.043-.579.292-.663 1.228-.072 3.999-.716 3.214.993.268.02.477-.01.657-.067.172-.219.115-.616.148-.794h.585c.115-.348-.258-.73.073-.861.364.002.47.237.877.199.171-.308-.198-.882.365-.928.573.144.586.793 1.316.795.186-.118-.073-.64.219-.662.634.044.395.878 1.169.795.168-.069-.035-.474.148-.53.555-.185.87.486 1.46.595 1.164.216 2.085-.471 2.047-1.39-.346-.085-.448.244-.803.265-1.24.078-1.36-1.408-2.121-1.921-.335-.04-.42.149-.731.133-.27-.086-.235-.45-.584-.464-.349.103-.576.316-1.022.33-.339-.112-.34-.53-.731-.595-.3-.007-.292.265-.657.198-.305-.057-.375-.326-.66-.397h-.218c-.833.465-.843 1.576-1.755 2.12-.443.263-1.102.367-1.754.53-.565.14-1.308.524-1.826.463-.718-.082-1.703-1.437-2.267-.199.048.198.489.044.512.265-.116.27-.334.448-.584.597.247.343.025.458-.073.794.444-.12.621.005 1.021.067.254-.103.189-.492.584-.464.041.255-.128.325-.071.597.155.145.476.142.365.53.429.034.261-.471.805-.331Zm.871-9.762c.019-.49.17-.974.37-1.367.196-.38.326-.639.513-.928-.377.017-1.027.17-1.17.597-.02.26.264.246.22.53-.14.434-1.008.292-1.024-.133.126-.294.323-.244.365-.461.179-.947-1.185-1.202-1.095-.067.028.355.311.23.364.661-.068.275-.84.417-.95.066-.082-.317.227-.28.146-.596-.131-.377-.736-.643-1.24-.464a4.664 4.664 0 0 1 1.093 2.188c.01-.013 2.365 0 2.408-.026Z" fill="#0F0F0F" style="fill:color(display-p3 .0588 .0588 .0588);fill-opacity:1"></path>
      <path d="M90.758 53.226c-.467-.064-.701-.336-.951-.596-.185-.142-.352.296-.657.264-.255-.078-.16-.473-.512-.464-.316.047-.435.269-.878.2-.286-.116-.396-.39-.73-.463-1 .382-2.073-.394-2.996.33.5.483 1.364-.057 1.9.464.36.04.442-.172.805-.133.363.605 1.121.567 1.826.266.204.102.242.354.44.463.367.048.407-.205.802-.133.138.709 1.306 1.584 1.974.794-.665-.037-1.023-.353-1.023-.992ZM84.326 66.87c.451-.017.542.59.95.398.226-.353-.43-.644-.218-.993a.373.373 0 0 0 .218-.066c.404.01.379.407.73.463.793-.947-.79-1.053-.948-1.656-.121-.448.164-.954.291-1.126.789-1.08 2.293-1.328 3.507-1.656.445-.12.744-.672.512-1.06-1.859-.883-4.351-.838-5.554.132-1.038.838-1.065 2.418-2.63 2.385-.28-.121-.374-.412-.73-.464-.229 1.04.707 1.417 1.459.994-.052.461.144.998.66.728-.08-.29-.661-1.053 0-1.192.142.566 1.027 1.357 1.02 1.922-.004.751-1.302 1.59-2.264 1.456-.508-.07-1.17-1.113-1.826-.331.016.272.472.146.438.464-.091.183-.373.192-.51.33.217.27.066.407 0 .73.317-.092.564-.068.801.067.255-.039.177-.369.512-.332-.119.616.31.736.513 1.06.035-.3.366-.329.583-.464.11-.804.973-.93 1.755-1.126.314.001.268.33.585.33.31-.342-.34-.867.146-.993ZM81.913 52.3c-.933-.5-1.986-.868-2.118-1.79-.086-.604.198-1.395-.732-1.523h-.146c-.083.214.223.407 0 .53-.335.016-.302-.3-.657-.265-.067.29-.513.135-.657.198.032.3.48.352.218.729.13.194.542.128.658.332-.068.202-.458.115-.585.265.22.314-.172.336-.219.595.523.067.594.47 1.242.265.55.76 1.58 1.087 1.9 2.054-.097.242-.573.14-.512.528.597.404 1.07-.554 1.317-.064-.083.39-.81.194-.805.661.51.4 1.074-.012 1.463-.264.222.127.564.151.95.132.446-.478.806-1.035.95-1.788-.382-.095-.905-.064-1.24-.2-.185-.508-.438-1.544-1.172-1.125.03.282.372.281.365.597-.104.016-.123.107-.219.133" fill="#0F0F0F" style="fill:color(display-p3 .0588 .0588 .0588);fill-opacity:1"></path>
      <path d="M88.204 48.986c-.357-.095-.552-.336-.875-.465.11-.21.025-.29 0-.528.34.077 1.246.185 1.167.861-.106.034-.183.098-.292.132Zm3.363 2.65c-.035-.793-.404-2.057-.877-2.85.342-.284.732-.527.658-1.191-1.407.216-2.008-.182-2.997-.462-.626.6-2.387.175-3.215.595.08.546.222 1.034.513 1.392.118-.307 1.28-.44 1.46-.067a5.04 5.04 0 0 1-2.558.131c-.237-.28-.52-.768-1.024-.595-.367 2.035 2.831.438 3.655 1.06-.267.547-1.366.332-1.681 0-.48 1.498 1.128.877 1.828.993-.37.748-2.136.23-2.267 1.192.907-.191 1.236.523 2.12.067.35.1.43.447.876.463.355-.01.393-.306.804-.265.25.04.118.422.44.397.267-.022.295-.262.657-.197.177.5.786.612 1.243.86.035-.717-.204-1.182-.439-1.657.317 0 .407.207.804.134Zm4.584-3.47c.018-.489.169-.973.37-1.366.194-.38.325-.639.51-.928-.375.017-1.025.17-1.168.597-.02.26.264.246.22.53-.138.434-1.01.292-1.024-.133.126-.294.324-.244.365-.46.178-.948-1.184-1.203-1.096-.069.028.355.312.23.364.662-.067.275-.837.417-.949.067-.083-.318.227-.28.146-.597-.132-.377-.734-.643-1.242-.463a4.643 4.643 0 0 1 1.096 2.187c.01-.013 2.364 0 2.407-.026" fill="#0F0F0F" style="fill:color(display-p3 .0588 .0588 .0588);fill-opacity:1"></path>
      <path d="M95.66 50.775c.59-.134.79-.978.146-1.193-.094.7-.792.454-1.316.465-1.038.019-1.865.599-2.047 1.39-.396 1.742.733 2.767 1.535 3.909.677.963 1.15 1.93 1.316 2.98.182 1.15-.188 3.119-1.972 2.848-.55-.278-.066-.987-.294-1.523-.215-.506-1.104-.748-1.535-1.06-.803-.58-1.334-1.649-2.265-2.121.015.28.026.555-.218.597-.742.053-.735-.571-1.17-.795-.126.218-.082.589-.438.597-.686-.042-.719-.675-1.317-.795-.028.283.072.681-.073.86-.353.02-.586-.146-.875 0-.058.318.112.427.073.73-.124.153-.657-.064-.586.265.002 1.87 4.94 1.686 5.262 3.245.212 1.03-1.25 1.569-1.46 2.582-.213 1.016.746 1.916.584 2.585-.068.274-.605.44-.513.794 1.005.05 1.214-.624 1.609-1.126.173.151-.03.644.146.795.666.083.463-.563 1.023-.727.485-.147 1.334.234 1.387.66.057.46-.574 1.16-1.169 1.325-.872.244-1.99-.205-1.973.663.055.192.604-.06.658.133.093.372-.314.289-.22.662.27.144.305.244.22.596.395-.139.51-.373.95-.33.128-.173.03-.55.293-.598.135.12.166.336.22.531.447-.132.407.09.73.198.024-.446.504-.708.146-1.127.36-.467.676-.976 1.243-1.257.385-.078.386.445.656.265.215-.413-.087-1.052.073-1.392.568-.027.342.662.805.73.691-.66-.42-1.142-.584-1.657.407-.25.566.217 1.023.133.11-.608-.288-.955-.804-.993-.559-.043-2.756 1.083-2.922-.133-.038-.261.273-.47.364-.73.192-.546.066-1.132.365-1.588 2.269.298 3.178-.973 3.362-2.517.22-1.847-.467-3.31-1.243-4.438-.675-.985-1.626-1.699-1.754-2.784-.082-.687.175-1.059.586-1.19.878.192.177 1.101-.365.927.263.648 1.293.309 1.533-.133.067.89 1.282.74 1.243 1.722 1.043-.593.554-2.681-.438-2.98Zm-7.886 18.803c-.019.26.266.247.22.53-.138.436-1.008.293-1.023-.133.127-.293.323-.243.365-.463.178-.945-1.184-1.2-1.096-.066.028.356.31.23.365.663-.07.272-.839.415-.948.067-.084-.319.225-.28.144-.598-.133-.377-.737-.642-1.241-.462.56.63.937 1.382 1.096 2.184.007-.011 2.365 0 2.406-.024a3.32 3.32 0 0 1 .37-1.367c.195-.38.325-.64.512-.927-.375.016-1.026.17-1.17.596" fill="#0F0F0F" style="fill:color(display-p3 .0588 .0588 .0588);fill-opacity:1"></path>
    </g>
  </g>
  <defs>
    <clipPath id="a">
      <path fill="#fff" style="fill:#fff;fill-opacity:1" transform="translate(.5)" d="M0 0h174v96H0z"></path>
    </clipPath>
  </defs>
</svg>
