<?xml version="1.0" encoding="UTF-8"?>
<svg xmlns="http://www.w3.org/2000/svg" width="213" height="27" fill="none">
  <g clip-path="url(#a)" fill="#fff" fill-opacity=".7">
    <path d="M202.51.5c-3.163 0-6.09 1.08-8.139 3.096-1.966 1.927-3.184 4.588-3.184 8.232v14.125h4.19V12.375c0-2.759.801-4.655 2.026-5.885 1.309-1.32 3.125-1.904 5.046-1.904 2.746 0 4.94 1.26 6.657 3.501l3.395-2.279C210.301 2.404 206.526.5 202.51.5Zm-39.064 0c-7.236 0-13.142 5.851-13.142 13.067 0 7.217 5.761 12.925 13.006 12.925 3.706 0 7.315-1.904 9.062-4.318v3.779h4.19V13.53c0-3.876-1.414-6.942-3.676-9.184C170.45 1.932 167.016.5 163.446.5Zm.068 4.086c4.91 0 8.896 3.808 8.896 8.914 0 5.105-3.986 8.914-8.896 8.914-4.909 0-8.925-3.809-8.925-8.914 0-5.106 4.016-8.914 8.925-8.914Zm-49.539-3.539v14.215c0 3.096 1.134 5.75 2.987 7.692 2.134 2.241 5.22 3.546 8.586 3.546 3.366 0 6.453-1.297 8.585-3.539 1.854-1.95 2.988-4.596 2.988-7.692V1.047h-4.19v13.675c0 2.519-.802 4.243-2.028 5.51-1.414 1.462-3.396 2.182-5.355 2.182-1.959 0-3.941-.728-5.356-2.182-1.233-1.26-2.027-2.991-2.027-5.51V1.047h-4.19ZM74.465 13.5c0-7.212 5.733-13 13.184-13 4.841 0 8.653 1.972 10.983 5.345l-3.464 2.28c-1.755-2.317-4.357-3.54-7.519-3.54-4.803 0-8.895 3.367-8.895 8.915 0 5.136 3.706 8.914 8.963 8.914 4.425 0 7.829-2.691 8.684-6.635h-5.666V11.8h9.924c.068.509.137 1.086.137 1.701 0 7.107-5.734 13-13.147 13s-13.184-5.75-13.184-13ZM48.151.5c-7.238 0-13.146 5.855-13.146 13.067 0 7.213 5.764 12.925 13.01 12.925 3.707 0 7.307-1.904 9.062-4.318v3.779h4.19V13.53c0-3.876-1.406-6.942-3.675-9.184C55.156 1.932 51.722.5 48.152.5Zm.083 4.086c4.91 0 8.896 3.808 8.896 8.914 0 5.105-3.986 8.914-8.896 8.914-4.909 0-8.925-3.809-8.925-8.914 0-5.106 4.016-8.914 8.925-8.914ZM17.633 1.047v13.57c0 2.758-.802 4.655-2.027 5.885-1.31 1.32-3.124 1.904-5.046 1.904-2.745 0-4.94-1.252-6.656-3.5L.5 21.183c2.201 3.404 5.976 5.308 9.992 5.308 3.162 0 6.09-1.08 8.14-3.096 1.966-1.927 3.191-4.589 3.191-8.232V1.047h-4.19Z" style="fill:#fff;fill-opacity:.7"></path>
  </g>
  <defs>
    <clipPath id="a">
      <path fill="#fff" style="fill:#fff;fill-opacity:1" transform="translate(.5 .5)" d="M0 0h212v26H0z"></path>
    </clipPath>
  </defs>
</svg>
