<?xml version="1.0" encoding="UTF-8"?>
<svg xmlns="http://www.w3.org/2000/svg" width="199" height="151" fill="none">
  <path d="M100.488 28.679a77.55 77.55 0 0 0-17.97 2.21c-2.884.728-5.742 1.698-8.519 2.804l-.16.08s.347 20.89.588 31.241c.08 3.046.64 6.038 1.655 8.95a43.917 43.917 0 0 0 4.62 9.245 37.129 37.129 0 0 0 10.6 10.459 43.86 43.86 0 0 0 5.822 2.965c.667.296 1.255.566 1.762.728.56.242 1.122.404 1.682.539a15.319 15.319 0 0 0 1.683-.512c.56-.19 1.121-.459 1.789-.728a31.881 31.881 0 0 0 9.239-5.5c2.777-2.29 5.18-4.986 7.183-7.978a42.08 42.08 0 0 0 4.619-9.245 28.631 28.631 0 0 0 1.656-8.95c.24-10.377.587-31.24.587-31.24l-.186-.108a67.004 67.004 0 0 0-20.615-4.771 70.225 70.225 0 0 0-5.848-.243h-.187v.054Zm0 1.051h.161a74.732 74.732 0 0 1 17.276 2.183c2.777.728 5.501 1.59 8.198 2.696l.16.08-.107 6.551h-.08c-6.328-2.588-13.004-4.178-19.813-4.663-1.869-.189-3.739-.27-5.608-.324h-.16a74.766 74.766 0 0 0-17.277 2.21 62.702 62.702 0 0 0-8.224 2.75l-.107-6.604.16-.054a64.728 64.728 0 0 1 19.867-4.636 63.02 63.02 0 0 1 5.554-.189Zm39.093.647c-3.445 0-6.248 2.83-6.248 6.308 0 3.477 2.803 6.334 6.248 6.334 3.445 0 6.248-2.83 6.248-6.307 0-3.478-2.777-6.335-6.248-6.335Zm-41.042.35a.933.933 0 0 0-.374.162c-.107.054-.16.162-.187.27v1.024l-.026.97c0 .108.106.243.186.297.107.108.24.108.401.135h1.282l1.335.027 1.335.08c.107 0 .16.054.187.135v.54c0 .107 0 .188-.053.296-.027.08-.107.108-.268.108h-1.174l-.641-.027h-1.683l-.987.054-.054.862 1.389-.054 1.068-.027h.854l.775.027.534.027h.587a.716.716 0 0 0 .401-.134.506.506 0 0 0 .187-.324v-.97l.026-.97a.639.639 0 0 0-.16-.297c-.08-.081-.187-.108-.32-.135l-1.229-.054h-2.964l-.08-.054c-.053-.054-.08-.108-.08-.162v-.35c0-.135 0-.296.053-.431.027-.054.107-.108.24-.108l2.991.027h.428l1.041.027v-.863l-1.388-.054-3.632-.053Zm-2.857.135c-.508 0-5.127.486-5.127.486v4.96l.534-.055.507-.08v-1.537l2.884-.324c.374 0 .721.19.881.54.134.296.24.62.347.97l1.122-.108a2.436 2.436 0 0 0-.24-.89c-.16-.35-.428-.673-.721-.943.267-.162.454-.431.534-.727.026-.594 0-1.16-.054-1.726-.026-.27-.16-.539-.667-.566Zm10.36.054c-.24 0-.507.081-.694.243a.853.853 0 0 0-.347.593v3.45l.027.243c.026.108.08.161.133.215.08.108.187.162.347.189h.214l.053.027h.054l2.243.242 2.323.243.347.081v-.916l-.4-.081-.321-.027h-.053l-1.923-.243-1.922-.242c-.027 0-.081 0-.107-.054l-.027-.108v-2.642c0-.108 0-.188.107-.242a.94.94 0 0 1 .24-.108c.427.027 4.006.512 4.54.593v-.97l-3.098-.351-1.736-.135Zm33.512.378c2.03 0 4.006 1.159 4.887 3.153l.053.108a5.719 5.719 0 0 1 0 4.205 5.178 5.178 0 0 1-2.804 2.83 5.32 5.32 0 0 1-4.165 0 5.013 5.013 0 0 1-2.804-2.83 5.719 5.719 0 0 1 0-4.205c.507-1.294 1.522-2.291 2.804-2.83.667-.243 1.362-.405 2.029-.431Zm-27.77.404v.215c0 .297 0 .701-.054 1.16 0 .62-.027 1.24-.053 1.86l-.027.404v.593l-.027.593.241.054.133.054.24.027.374.053.027-.35v-.296l.027-.35v-.971c.053 0 .133 0 .187.027h.08l1.148.242 1.762.35.134.055.187.054.213.053v.97l-.026.324v.378l-.027.188.32.081.187.054.187.054.267.081v-.485c.054-.593.054-1.213.08-1.941v-2.372l-.373-.108-.508-.108v.755l-.053.485v.809h-.027l-.24-.054-.187-.054-.134-.027-.133-.054-1.122-.242-1.148-.216h-.107l-.293-.08-.294-.055h-.08v-2.075l-.241-.054h-.16l-.187-.054-.293-.027Zm-23.232.054-4.54.89c-.346.107-.72.377-.72.754v3.316c0 .35.427.808.774.727l4.54-.89c.427-.107.72-.484.774-.916v-3.342c-.08-.377-.427-.593-.828-.54.027 0 .027 0 0 0Zm6.355.162c.134 0 .24 0 .348.107.08.081.106.135.106.243v.566a.616.616 0 0 1-.16.431.627.627 0 0 1-.427.189l-1.602.135-1.602.134V32.21l3.338-.297Zm-7.13.781c.428-.054.562.189.562.485v2.13c.026.27-.16.512-.428.593l-3.23.62c-.321.08-.508-.162-.508-.458v-2.103c0-.431.187-.62.694-.728-.026 0 2.91-.539 2.91-.539Zm51.937.189h-2.59v7.87h.962v-3.53h1.495l1.522 3.53h1.041l-1.602-3.665c.481-.108.962-.35 1.282-.728.294-.35.481-.782.481-1.267 0-.27-.054-.539-.107-.782a1.946 1.946 0 0 0-.401-.727c-.213-.243-.48-.405-.801-.54a4.913 4.913 0 0 0-1.282-.161Zm-20.908.242-.053 2.912-.053 1.994 2.67.809c.854.297 1.816.593 2.777.943l.107.027.32.108c.053-.35.053-.62.053-.97l-.267-.108h-.053l-.053-.027c-.481-.189-1.042-.35-1.549-.54l-1.629-.538-.347-.108-.374-.108-.4-.108-.214-.08v-.486l.027-.485.534.135 1.976.593 1.869.647.187.054.32.108v-1.025l-.294-.107-.133-.027a40.066 40.066 0 0 0-3.471-1.133l-.267-.08-.294-.081-.134-.054-.24-.081v-.998l.347.108.427.108.374.108h.027c1.041.296 2.083.62 3.097.997l.241.108.347.135v-.89l-.24-.107-.214-.081h-.027c-1.789-.593-3.578-1.186-5.394-1.672Zm-37.143.19h-.32c-1.87.592-3.712 1.212-5.555 1.913l.054 2.48v2.318l1.282-.431v-1.698l4.78-1.51a.427.427 0 0 0 .24-.189c.08-.053.106-.161.133-.242 0-.027.027-.081.027-.108l-.054-1.968a.665.665 0 0 0-.32-.485.448.448 0 0 0-.267-.08Zm56.423.43h1.442c.427 0 .827.081 1.201.297.347.243.508.647.481 1.051 0 .189-.027.35-.08.54-.054.161-.134.296-.267.377-.161.134-.374.215-.588.27-.32.107-.614.107-.961.107h-1.282l.054-2.642Zm-57.358.593h.054c.107 0 .187.027.24.108.08.081.107.135.107.243l.053.7a.617.617 0 0 1-.16.324.634.634 0 0 1-.294.162l-3.685 1.213-.026-1.456s1.442-.593 2.03-.808c.587-.189 1.681-.486 1.681-.486Zm19.2 2.858v13.316H91.49c-.107 0-.054-.054.053-.135a4.608 4.608 0 0 1 2.03-.89c.08 0 .106-.027 0-.135-.722-.727-1.736-.97-2.67-.62-.829.297-1.496.917-1.79 1.753 0 .08-.053.107-.107.107l-1.362.054c-.08 0-.107-.108-.107-.161a2.012 2.012 0 0 1 .988-1.375 3.053 3.053 0 0 1 1.496-.54h.027c.053-.026.053-.107.026-.16a1.072 1.072 0 0 0-.32-.27 2.207 2.207 0 0 0-1.442-.243 3.038 3.038 0 0 0-2.697 2.803c-.027.162 0 .216-.134.27-.347.108-.934.189-1.255.242-.053.027-.133-.107-.106-.161.106-.566.347-1.052.694-1.51.24-.35.587-.62.961-.835.107-.027.134-.108.107-.162-.721-.647-2.216.027-2.83.7-.561.729-.828 1.699-.775 2.615v.135l-1.148.404-.053-.107a2.835 2.835 0 0 1 .427-1.968c.16-.297.4-.54.694-.728v-.108c-.347-.431-1.629-.135-2.03.243-.907.916-.827 1.779-.88 3.18 0 .081-.107.324-.16.351a1.324 1.324 0 0 1-.535.216h-.08l-.107-.243c-.32-.54-.988-.728-1.522-.404-.053 0-.08.054-.107.08a1.035 1.035 0 0 0-.106 1.456c.053.054.08.108 0 .108-.641.189-.988.863-.802 1.51 0 .026 0 .026.027.053.134.35.48.593.855.593.374 0 .747-.107 1.041-.323.053-.054.107-.027.16 0 .32.539 1.015.7 1.496.377.48-.323.667-.808.347-1.617-.027-.054.053-.108.107-.162a18.763 18.763 0 0 1 8.972-2.533c.454.053.88.134 1.308.323h.053v2.722l-.08.081a2.863 2.863 0 0 0-1.255 1.59c0 .055 0 .055-.106.055l-1.683.188c-.053 0-.106-.08-.106-.108.4-1.05 1.121-1.994 2.082-2.614a.232.232 0 0 0 0-.189 1.115 1.115 0 0 0-.48-.296 3.021 3.021 0 0 0-2.537 1.05 3.931 3.931 0 0 0-.881 2.508c0 .08 0 .161-.08.188l-1.095.324c-.054 0-.107-.054-.107-.108a2.918 2.918 0 0 1 1.388-2.965c.134-.108-.106-.297-.293-.297a2.838 2.838 0 0 0-2.644 1.51 4.175 4.175 0 0 0-.08 2.291c0 .08.053.189 0 .189l-.961.323c-.054.027-.107 0-.107-.108a2.776 2.776 0 0 1-.053-1.401 2.6 2.6 0 0 1 .774-1.402v-.108a1.544 1.544 0 0 0-1.095-.08 2.076 2.076 0 0 0-1.335 1.078c-.48.862-.347 1.698.134 2.91 0 .082.053.163 0 .216l-.374.297c-.027.027-.08 0-.107-.054-.16-.243-.347-.593-.588-.7a1.19 1.19 0 0 0-1.228.107c-.347.323-.48.809-.347 1.267l.267.431c.027.027 0 .108-.027.108-.16.135-.4.243-.56.404a1.14 1.14 0 0 0 0 1.348.966.966 0 0 0 1.281.35c.24-.107.454-.215.668-.35.08-.054.107-.135.187-.08.16.188.374.35.64.43.348.108.722.054 1.015-.161.347-.189.561-.566.481-.97-.08-.27-.24-.54-.4-.782-.107-.108-.107-.108 0-.162a24.01 24.01 0 0 1 4.752-2.076c1.576-.485 3.205-.7 4.834-.593h.106v5.634H75.388l-.4-22.588.053-.027a63.758 63.758 0 0 1 19.84-4.61 63.998 63.998 0 0 1 5.047-.27Zm-8.599 2.372c-.774-.054-1.522.188-2.19.647-.8.566-1.308 2.21-1.441 2.83 0 .054-.027.108-.107.108a16.64 16.64 0 0 0-1.976.35c.053-.647.32-1.24.72-1.698a11.84 11.84 0 0 1 1.443-1.159c.027-.027 0-.108-.053-.135a2.887 2.887 0 0 0-2.27.027c-1.042.458-1.736 1.402-1.923 2.507-.08.377-.107.809-.107 1.213l-.106.054-2.03.674-.107-.027a3.466 3.466 0 0 1 .481-1.914c.347-.566.988-.863 1.442-1.348.053-.027.107-.108.053-.135-1.175-.485-2.27 0-3.204 1.079-.64.97-.828 2.13-.587 3.261.026.108 0 .189-.054.243l-.64.242c-.054 0-.108 0-.108-.053-.293-.863-1.281-.701-1.735-.432-.48.297-.668.917-.374 1.402 0 .08 0 .108-.053.135a1.298 1.298 0 0 0-.588 1.698.94.94 0 0 0 1.202.404l.72-.35h.08s0 .054.054.054a1.077 1.077 0 0 0 1.576.161c.32-.242.454-.27.587-.7.053-.324-.053-.62-.24-.863-.054 0 0-.108 0-.108a27.539 27.539 0 0 1 12.016-3.1c1.495.054 2.964.593 4.112 1.59.054.055.107.108.187.108.08-.026.107-.107.134-.161.213-.701-.027-1.483-.588-1.968a3.646 3.646 0 0 0-1.736-.997c-.053 0-.053-.108-.026-.108.24-.27.587-.485.961-.62.56-.108 1.122-.135 1.736-.135.026 0 .106-.054.106-.108-.24-.647-.827-1.105-1.495-1.132a3.822 3.822 0 0 0-1.976.297 3.33 3.33 0 0 0-1.442 1.59l-.08.054h-1.736c-.026 0-.08 0-.08-.054.08-.593.32-1.078.721-1.51.588-.485 1.255-.889 1.95-1.105.08-.027.106-.107.106-.161a1.469 1.469 0 0 0-.587-.486c-.187-.107-.48-.161-.748-.161Zm9.48 4.636h25.287c0 1.995-.053 4.097-.107 6.334h-25.154l-.026-6.334Zm-9.747 7.197h19.066c.053 0 .053.027.053.054v14.825a6.12 6.12 0 0 1-.4 2.21 8.714 8.714 0 0 1-4.112 4.583c-1.496.89-3.231 1.402-4.967 1.429a9.963 9.963 0 0 1-6.462-2.48 8.127 8.127 0 0 1-3.151-6.28v-14.26c-.053 0-.027-.08-.027-.08Zm34.901.054-.107 5.553h-.214.241c.026 0 .08-5.553.08-5.553Zm-21.95 1.213c-.107.027-.24.108-.267.243l-.668 2.075.027.162.134.08c.106 0 .16 0 .187-.107l.106-.35h.962l.107.35c0 .08.106.108.16.108.053 0 .133-.027.16-.081a.23.23 0 0 0 0-.189l-.721-2.075c0-.108-.107-.19-.187-.216Zm-5.981.054c-.107 0-.187.08-.187.162 0 .08.08.161.187.161h.32v1.995c0 .108.107.162.187.162s.16-.081.16-.162v-1.995h.347c.08 0 .16-.08.16-.161s-.08-.162-.16-.162h-1.014Zm1.575 0c-.08 0-.16.08-.16.162 0 .08.08.161.16.161h.347v1.995c0 .108.107.162.187.162s.16-.081.16-.162v-1.995h.348c.08 0 .16-.08.16-.161s-.08-.162-.16-.162h-1.042Zm2.297 0a.63.63 0 0 0-.615.35c-.16.27-.24.566-.24.863 0 .323.08.593.214.89a.685.685 0 0 0 .641.404c.16 0 .293-.054.427-.108.213-.162.347-.404.4-.674.027-.135.054-.297.054-.431 0-.108-.054-.243-.241-.243h-.534c-.133 0-.16.054-.16.108 0 .108.054.162.134.162h.4v.108a.675.675 0 0 1-.48.7.46.46 0 0 1-.428-.323c-.106-.189-.133-.404-.133-.62 0-.243.08-.458.16-.647.053-.162.214-.27.374-.297.16 0 .294.108.374.243.026.081.106.108.187.081.08 0 .106-.108.106-.162-.053-.27-.347-.431-.64-.404Zm5.554 0c-.107 0-.187.08-.187.162 0 .08.08.161.187.161h.347v1.995c0 .108.08.162.16.162s.16-.081.16-.162v-1.995h.347c.107 0 .161-.08.161-.161s-.08-.162-.161-.162h-1.014Zm-14.126 0a.833.833 0 0 0-.56.135.603.603 0 0 0-.268.485c-.026.189.054.404.187.566a.623.623 0 0 0 .48.216c.241 0 .428.08.562.27.053.107 0 .242-.08.35a.49.49 0 0 1-.428.134c-.16 0-.32-.08-.427-.188a.213.213 0 0 0-.24-.081c-.107.054-.107.188-.107.242.16.243.427.405.748.378a.882.882 0 0 0 .72-.243.715.715 0 0 0 .187-.512.562.562 0 0 0-.24-.512 2.003 2.003 0 0 0-.774-.243.304.304 0 0 1-.24-.35c.053-.216.24-.324.4-.297.16 0 .347.054.454.189.107.108.267 0 .267-.108s-.16-.431-.641-.431Zm1.122 0c-.08 0-.16.08-.16.162v.027c0 .08.08.161.16.161h.347v1.968c0 .108.08.189.16.189.107 0 .187-.108.187-.189v-1.968h.347c.08 0 .16-.08.16-.161s-.053-.19-.133-.19h-1.068Zm11.081 0-.133.08a.204.204 0 0 0-.054.109v2.102c0 .108.054.162.134.189h.026c.107 0 .187-.081.187-.162v-.674h.347l.535.728c.053.08.106.108.16.108.107 0 .16-.081.16-.135 0-.054-.027-.135-.08-.162l-.427-.593h.053c.134-.054.24-.135.347-.242a.64.64 0 0 0 .214-.566.743.743 0 0 0-.321-.593 1.136 1.136 0 0 0-.587-.162c-.027-.027-.561-.027-.561-.027Zm-9.426 0c-.08 0-.16.08-.16.162v1.294c0 .242.053.539.16.754.16.216.4.324.668.297.24.054.48-.081.64-.297.107-.242.187-.485.16-.755v-1.266c0-.081-.08-.162-.16-.162h-.026c-.08 0-.16.08-.16.162v1.347a.893.893 0 0 1-.107.459.346.346 0 0 1-.347.134.346.346 0 0 1-.347-.134.69.69 0 0 1-.107-.459v-1.347c-.027-.108-.107-.19-.214-.19Zm9.56.35h.454c.133 0 .267.027.347.108a.394.394 0 0 1 .133.324c0 .296-.24.512-.534.512h-.374l-.026-.944Zm-1.683.027.428 1.348h-.801l.373-1.348Zm-3.337 2.938c-.241.081-.481.135-.668.27-.16.135-.294.296-.4.485a.369.369 0 0 1-.107.081l-.134.027-.507.242c-.16.081-.32.19-.48.243a1.95 1.95 0 0 1-.375.108c-.293-.054-.614-.027-.72.297 0 .08.026.134.106.161.053.027.08.054.134.081l.16.08c.053 0 .08 0 .107.055l.026.054v.027c0 .054-.08.107-.106.107a.589.589 0 0 1-.428-.08h-.026a.128.128 0 0 0-.187 0c-.294.242-.588.485-.908.673l-.107.108-.027.054v.081c0 .081-.08.108-.133.108-.054.027-.107.08-.107.135v.134c.027.108.107.162.24.162h.054l.24-.108h.107l.026.027v.108c-.026.054-.053.108-.106.135-.054.08-.08.135 0 .189.107.108.267.08.347-.027.053-.054.08-.135.107-.189.026-.08.08-.135.16-.135.133-.054.294-.08.427-.108.107 0 .214 0 .294.081l.08.081v.054a1.324 1.324 0 0 1-.107.297l-.08.242-.08.216-.107.108-.427.35c-.24.216-.4.431-.588.728a.945.945 0 0 0-.106.242c-.054.243-.107.54-.347.35-.24-.107-.481-.296-.722-.484a.693.693 0 0 1-.24-.243c-.24-.35-.534 0-.667.243a8.81 8.81 0 0 1-.935 1.294.847.847 0 0 1-.133.27.486.486 0 0 0-.107.376c0 .243-.08.459-.187.647a.535.535 0 0 0-.16.378v.377c0 .108.053.162.133.162h.08c.187-.081.374-.189.56-.35l.081-.055a.167.167 0 0 0 .027-.188l-.027-.054-.053-.054c-.027-.027-.08-.054-.107-.108v-.162l.053-.161c0-.054.027-.135.08-.162l.294-.243c.107-.107.16-.296.107-.43v-.19c0-.08.027-.107.08-.188l.187-.243a.74.74 0 0 1 .347-.296c.214 0 .4.053.56.188.134.189.241.432.321.674.054.216.134.405.24.593.107.108.24.189.374.108l.08-.054.054-.027c.053 0 .107 0 .133.081l.24.243c.108.08.027.134-.08.134h-.373a4.12 4.12 0 0 1-1.282.216h-.08c-.08 0-.107.054-.107.108l-.027.054-.053.108a.663.663 0 0 0 0 .323c.16.593.24 1.213.107 1.833-.054.243 0 .485.16.647l.187.108.107.054c.053.08.08.134.08.242 0 .108.08.243.133.324.107.135.24.242.4.35h.054c.107.054.187 0 .24-.08.08-.19.134-.405.107-.62 0-.108-.08-.19-.186-.216l-.107.027-.08.027h-.107c-.054-.027-.08-.081-.107-.135a.7.7 0 0 1-.027-.404v-.081l.027-.19c0-.053 0-.107-.053-.16-.054-.109-.054-.136-.134-.163-.053 0-.08-.026-.107-.08-.053-.054-.053-.081-.026-.108a3.32 3.32 0 0 0 .026-.89c0-.108 0-.188.054-.242.213-.189.56-.054.747.027.294.107.561.161.828.215.48.054.962-.08 1.335-.35.027-.027.027-.054.08-.027l.4.296c.348.243.722.405 1.096.54a6.396 6.396 0 0 0 1.602-.027c.107 0 .267.026.374.08l.053.081c0 .216-.107.378-.107.593 0 .108.054.216.107.324l.107.296.08.108c.294.377.32.944 0 1.32a4.24 4.24 0 0 1-.641.54 1.51 1.51 0 0 1-.747.296.665.665 0 0 0-.481.216c-.16.162-.32.297-.508.377-.08.027-.16.108-.16.19a2.83 2.83 0 0 0-.213.673c-.027.108.08.162.187.162.186-.027.373-.108.587-.162.107 0 .16-.135.134-.243l-.027-.026-.08-.162v-.135c.053-.027.08-.08.133-.108.054-.054.134-.054.187-.054h.107c.267.108.587 0 .694-.27.054-.08.107-.161.16-.215a8.39 8.39 0 0 1 1.629-.809.114.114 0 0 0 .107-.107v-.836c0-.135.054-.377.241-.377.08 0 .133.053.16.107.187.243.427.405.721.513l.24.107a.666.666 0 0 1 .374.54.411.411 0 0 1-.08.35l-.561.809a.873.873 0 0 1-.347.35c-.374.243-.694.54-1.015.862l-.267.836c-.053.162.054.216.187.162.24-.054.427-.135.614-.243l.107-.08c.027-.028.027-.081.027-.108 0-.081-.054-.162-.107-.216a.245.245 0 0 1 0-.27c.027-.053.08-.08.107-.107l.48-.135c.187-.027.374-.108.534-.243.027-.054.054-.08.081-.135v-.053c.186-.62.614-1.213 1.201-1.51.08-.027.107-.108.107-.189l-.027-.242-.427-.674a1.258 1.258 0 0 1-.24-.593c0-.243.053-.458.16-.647l.107-.162c.08-.162.24-.242.347-.404.107-.135.24-.297.32-.485l.241-.647c.053-.189-.027-.378-.027-.566 0-.081.053-.108.08-.189a.73.73 0 0 1 .32-.243.582.582 0 0 1 .374.027l.614.243c.107 0 .241 0 .348-.054.106-.027.24-.108.347-.189v-.107h-.294a.386.386 0 0 1-.24-.162c-.054-.081-.107-.162-.107-.243l.08-.135a1.24 1.24 0 0 0 .374-.377c.08-.162.107-.323.107-.485h-.081c-.106.108-.133.242-.267.323a.581.581 0 0 1-.347.108.324.324 0 0 1-.24-.108c-.053-.08-.08-.161-.107-.242-.027-.108.107-.135.16-.162.161 0 .321-.054.481-.108.107-.054.16-.135.214-.242.026-.081.053-.162.053-.243 0-.054 0-.08-.027-.054-.106 0-.16.081-.24.108-.133.054-.294.027-.427-.027a1.406 1.406 0 0 1-.321-.377v-.297c.161 0 .294-.162.374-.35l.054-.108.106-.135c.027-.108.027-.216.027-.323a.4.4 0 0 0-.107-.243h-.106c-.054.108 0 .243-.107.35-.08.108-.161.216-.267.297-.08.054-.134.108-.187.108a.388.388 0 0 1-.241-.297c0-.108.054-.27.107-.377l.454-.728.374-.431c.08-.108.107-.35.027-.404-.107-.027-.16.215-.241.269a3.922 3.922 0 0 0-1.041.566c-.16.189-.24.404-.32.647-.054.135-.027.323-.081.458 0 .054-.106.108-.16.081a1.235 1.235 0 0 1-.24-.404.766.766 0 0 1 0-.35c.027-.054 0-.081-.027-.054-.16.08-.24.215-.32.35-.054.215-.054.431.053.62.16.323.347.593.588.862.16.243.347.54.48.782.134.189.187.458.161.728-.081.243-.187.485-.374.647 0 0-.08.054-.107.027-.187-.189-.401-.35-.614-.512-.267-.162-.534-.297-.828-.35a4.095 4.095 0 0 0-1.148 0c-.401 0-.801.08-1.202.053-.32.027-.641 0-.961-.108a1.317 1.317 0 0 1-.534-.485 1.142 1.142 0 0 1-.107-.728c0-.215.08-.404.16-.593a.95.95 0 0 1 .347-.377.762.762 0 0 1 .588-.08l.24.16.24.243.08-.026c.027-.27-.026-.54-.106-.81-.08-.188-.214-.377-.347-.565 0-.054.106-.027.133-.054.214 0 .427.054.588.189.106.08.24.161.32.323l.027-.027c.026-.323-.107-.647-.321-.89a1.077 1.077 0 0 0-.347-.35c-.107-.027.053-.108.134-.108.16-.027.347 0 .48.081l.16.108.107.108c.027 0 .08-.054.054-.081a.826.826 0 0 0-.107-.27 6.776 6.776 0 0 0-.801-.7l-.107-.081a1.131 1.131 0 0 1-.187-.35l-.107-.163v-.188c.107-.162.16-.189.347-.27.134-.054.267-.08.401-.108l.133.054s.027-.08-.026-.107a1.07 1.07 0 0 0-.588-.162 1.624 1.624 0 0 0-.801.054c-.187.108-.4.161-.587.161-.134 0-.294 0-.401-.08-.08-.054-.16-.135-.16-.243a.96.96 0 0 1 .107-.458.583.583 0 0 1 .267-.243c.107 0 .133-.054.107-.108.053-.08-.027-.054-.08-.027Zm-1.042 1.59a.56.56 0 0 1 .347.136c.321.27.481.646.534 1.05.08.54.107 1.106 0 1.645 0 .189-.08.35-.24.431a.77.77 0 0 1-.24.054c-.08 0-.107-.135-.107-.35V59.11a3.37 3.37 0 0 0-.294-.97c0-.081-.053-.108-.107-.162l-.106-.135c-.054-.053-.134-.08-.187-.134l.026-.081c.134-.027.267-.054.374 0Zm11.456.27h14.793l-.134 6.523h-14.659v-6.523Zm.026 7.386h14.633a29.834 29.834 0 0 1-1.602 8.383 42.123 42.123 0 0 1-4.459 9.003 35.732 35.732 0 0 1-10.201 10.162c-1.789 1.105-3.658 2.049-5.607 2.911-.614.27-1.202.54-1.682.701-.561.162-1.042.35-1.362.431V75.5c.32 0 .587 0 .908-.054l.106.297c.134.242.348.404.615.485a.966.966 0 0 0 .881-.324c.32.243.721.35 1.095.189a.687.687 0 0 0 .507-.647.911.911 0 0 0-.107-.593l-.107-.162c.775-.35 1.469-.727 2.137-1.213h.08c1.041-.27 5.34-1.833 7.984-1.86a9.27 9.27 0 0 1 4.646 1.133 7.903 7.903 0 0 1 2.056 1.725l.107-.081c.16-.485.267-.97.24-1.51-.08-.808-.881-1.401-1.121-1.644 0 0 0-.054.08-.108.08-.08.187-.161.294-.242.48-.35 1.041-.593 1.628-.593.081 0 .054-.108.027-.243-.16-.7-1.202-1.159-2.243-1.024-.721.134-1.335.593-1.736 1.213-.026.054-.133.108-.16.054a7.704 7.704 0 0 0-1.041-.324c-.107-.027-.054-.135-.054-.135.214-.377.481-.727.855-.97.4-.323.908-.566 1.442-.647.053 0 .053-.08 0-.108a1.533 1.533 0 0 0-1.042-.862c-.747-.243-1.602-.108-2.216.377a4.501 4.501 0 0 0-1.282 1.94c-.026.082-.053.109-.106.109-.294-.081-.988-.027-1.042-.081-.053 0-.053-.108-.027-.135.107-.404.348-.782.615-1.078.293-.35.64-.647 1.041-.809l.053-.054c.054-.08.054-.188-.026-.242a2.863 2.863 0 0 0-3.498.781 5.996 5.996 0 0 0-.855 1.995c0 .027-.053.108-.107.108l-1.442.35-.24.054-.053-.054a9.802 9.802 0 0 0 1.388-4.744v-.485Zm-19.813 2.345c.08.324.24.62.347.944l-.347-.944Zm1.629 3.423a10.083 10.083 0 0 0 7.744 3.855 9.81 9.81 0 0 0 6.328-2.426 9.901 9.901 0 0 1-6.328 2.372c-2.991-.027-5.848-1.428-7.744-3.8Zm-16.262 1.51h16.77l.346.296a10.846 10.846 0 0 0 6.195 2.615v3.477h-20.64a38.94 38.94 0 0 1-2.671-6.388Zm34.98 1.375a2.813 2.813 0 0 0-1.201.43c-.481.297-.881.702-1.122 1.214-.294.728-.427 1.455-.48 2.21l-.107.108-.962.243s-.053 0-.08-.054a3.136 3.136 0 0 1 .428-2.076 2.92 2.92 0 0 1 .614-.782c.053-.026.08-.107.053-.134l-.107-.054a2.633 2.633 0 0 0-1.842.35 2.438 2.438 0 0 0-1.282 1.94c-.08.567-.027 1.133.107 1.7 0 .026 0 .08-.053.107l-1.042.512h-.053a1.696 1.696 0 0 0-.775-1.051 1.429 1.429 0 0 0-1.281.054c-.267.162-.481.377-.588.647-.213.485-.053 1.024.347 1.293 0 .028.054.081 0 .108-.267.108-.267.162-.48.459-.187.43-.134.943.16 1.293.4.62 1.228.782 1.816.378.053-.027.106-.081.16-.135 0 0 .053 0 .08.054.107.162.24.323.4.431.401.243.908.243 1.282 0 .427-.242.668-.728.588-1.213a.966.966 0 0 0-.321-.728c-.026-.053 0-.08.107-.134a15.42 15.42 0 0 1 5.634-1.941 9.788 9.788 0 0 1 3.071.08 4.152 4.152 0 0 1 1.789.89c.427.35.801.728 1.175 1.16.107 0 .24 0 .347-.082.214-.485.241-1.024.027-1.509a4.745 4.745 0 0 0-1.095-1.698v-.054c0-.108.054-.135.134-.243.454-.404 1.014-.727 1.602-.835.08 0 .107-.081.08-.135a1.835 1.835 0 0 0-2.323-.89c-.561.243-1.042.674-1.282 1.213-.027.054-.08.135-.107.108l-.961-.108c-.107 0-.08-.107-.053-.107.106-.35.293-.674.56-.917a3.315 3.315 0 0 1 1.282-.916c.053 0 .053-.054.053-.081a1.847 1.847 0 0 0-1.335-.674 2.318 2.318 0 0 0-1.735.674 3.624 3.624 0 0 0-.962 2.156c-.053.054-.08.108-.106.108-.241.054-.535.054-.802.08-.053 0-.053-.08-.053-.107 0-.404.107-.809.294-1.159a4.18 4.18 0 0 1 1.575-1.698c.107-.081.107-.243.08-.243a2.032 2.032 0 0 0-1.255-.242Zm-3.151 9.164c-.267 0-.534.081-.747.243a2.76 2.76 0 0 0-1.362 1.59 3.43 3.43 0 0 0 .053 1.645v.08l-.614.297h-.08c-.374-.7-.294-1.537.24-2.13.054-.053.08-.107-.026-.134a1.666 1.666 0 0 0-1.496.566 1.965 1.965 0 0 0-.347 1.94c.054.243.134.486.294.728 0 0 .107.081.027.108l-.401.35h-.08a1.34 1.34 0 0 0-.828-.7c-.32-.081-.641.027-.881.242a1.065 1.065 0 0 0-.027 1.483l.027.027a1 1 0 0 0 .401.242c.026 0 .053.054.026.081a1.7 1.7 0 0 0-.561.593c-.16.405-.08.863.241 1.186.24.189.534.297.828.243.454-.135.801-.485 1.041-.89 0 0 .053-.053.08 0 .187.243.454.432.774.566a.815.815 0 0 0 .908-.188c.347-.243.481-.728.321-1.16a1.498 1.498 0 0 0-.561-.592c-.053-.054 0-.108.053-.162a8.187 8.187 0 0 1 4.033-1.78 4.963 4.963 0 0 1 2.91.486c.347.189.668.458.961.755.027 0 .134.054.161 0 .454-.377.48-1.078.106-1.537a2.106 2.106 0 0 0-.587-.485l-.027-.054c.294-.754.908-1.347 1.709-1.536.08 0 .054-.054 0-.135-.32-.809-1.762-.835-2.43-.404a3.16 3.16 0 0 0-1.014 1.132c0 .054-.027.108-.08.108l-.588-.189v-.08a3.054 3.054 0 0 1 1.976-1.618c.053-.027.027-.081 0-.108-.294-.782-1.869-.728-2.644-.216-.72.486-1.255 1.213-1.441 2.076v.108a3.08 3.08 0 0 1-.668.162c-.027 0-.053-.028-.053-.081-.054-.378 0-.782.186-1.106.241-.43.588-.835.935-1.212.053-.055.053-.135 0-.162a1.06 1.06 0 0 0-.748-.378Zm-23.738 3.774H99.9v9.893c-.294-.108-.614-.243-.988-.35-.507-.163-1.041-.459-1.71-.729a30.971 30.971 0 0 1-8.864-5.31 34.157 34.157 0 0 1-3.605-3.504Zm56.476 22.723v12.723h2.777v-4.771h16.849v4.771h2.804v-12.723h-2.777v5.176h-16.849v-5.176h-2.804Zm-103.9 0c-1.549 0-2.804 1.267-2.83 2.831v7.116c0 1.563 1.281 2.803 2.83 2.803h17.704c1.548 0 2.777-1.267 2.777-2.803v-7.116c0-1.51-1.202-2.777-2.724-2.804l-17.757-.027Zm23.845 0v12.723h2.75v-3.369h15.462c1.522 0 2.777 1.294 2.777 2.83v.512h2.803v-.027a4.796 4.796 0 0 0-2.697-4.313c1.496-.054 2.67-1.293 2.67-2.803v-2.749a2.794 2.794 0 0 0-2.803-2.804H61.155Zm-53.645.027v12.723h2.777v-3.369h18.158a2.811 2.811 0 0 0 2.803-2.804v-3.746a2.81 2.81 0 0 0-2.803-2.804H7.51Zm110.495 0c-1.549 0-2.83 1.267-2.83 2.804v7.116c0 1.536 1.228 2.83 2.75 2.83h20.107v-2.803h-19.706a.338.338 0 0 1-.347-.351v-6.415c0-.243.213-.377.453-.377h19.6v-2.831l-20.027.027Zm48.893 0v12.723h24.593v-2.372h-21.789V117.2h21.789v-2.399h-21.789v-2.777h21.789v-2.399h-24.593Zm-76.023 0a2.848 2.848 0 0 0-2.75 2.857v1.887a2.84 2.84 0 0 0 2.83 2.831h17.678a.49.49 0 0 1 .48.431v1.941c0 .242-.213.404-.48.404H88.525v2.399h20.588c1.522 0 2.777-1.294 2.777-2.83v-1.914c0-1.537-1.281-2.83-2.803-2.83H91.383a.409.409 0 0 1-.454-.405v-1.94c0-.243.213-.432.454-.432h20.053v-2.372l-20.56-.027Zm-26.943 2.777h17.731c.267.027.48.242.48.485v2.803a.492.492 0 0 1-.427.485H63.932v-3.773Zm-53.645 0 17.704.027c.24 0 .48.242.48.485v2.776a.492.492 0 0 1-.427.485H10.34v-3.773h-.053Zm27.477.027h16.822c.24 0 .481.215.481.485v6.172c0 .27-.187.459-.454.486H37.657a.355.355 0 0 1-.347-.351v-6.415a.416.416 0 0 1 .454-.377Z" fill="#fff" fill-opacity=".7" style="fill:#fff;fill-opacity:.7"></path>
</svg>
