<?xml version="1.0" encoding="UTF-8"?>
<svg xmlns="http://www.w3.org/2000/svg" width="127" height="89" fill="none">
  <path d="m82.5 41.63-7.502-18.816-9.753 20.792c-3.302 6.558-14.105 8.458-21.645 9.501l1.388-2.794L66.82 9.363h17.031l12.192 24.853 5.364 11.774 11.029 23.662-7.615-.038-5.927-.037c-2.476.037-4.914-.149-5.965-2.757l-2.1-5.068-3.527-8.533-4.801-11.588Zm33.012 34.765H3.048v9.614h112.464v-9.614Zm8.215-73.405-4.502 2.385-15.98 8.347s-5.515 2.943-9.04 3.688c.974 3.019 1.95 4.956 2.888 6.484.262.447.675.82 1.125 1.08.6.373 1.275.56 1.988.597a4.2 4.2 0 0 0 2.101-.447l21.495-11.477-.075-10.657Z" fill="#fff" fill-opacity=".7" style="fill:#fff;fill-opacity:.7"></path>
  <path d="m96.23 34.29-13.542 7.453c-16.994 9.203-39.089 18.109-58.22 16.544-8.104-.67-12.943-3.69-12.492-8.831.525-5.85 5.626-11.998 14.555-18.147 6.827-4.695 12.829-7.266 15.98-8.346 4.127-1.453 7.653-2.087 11.404-2.273.9 0 1.763.074 2.4.26 0-.111-.037-.223-.074-.335-1.726-10.917-4.577-12.37-9.116-12.221-12.68.41-28.585 9.091-37.025 19.19C5.56 32.985 3.272 39.47 3.16 44.09c-.15 7.08 2.663 16.73 11.366 21.65 9.679 5.477 23.521 5.104 36.088 2.272 13.505-3.018 25.321-8.83 36.913-14.681l14.067-7.266 22.283-12.706.075-13.824L96.23 34.29Z" fill="#fff" fill-opacity=".7" style="fill:#fff;fill-opacity:.7"></path>
</svg>
