<?xml version="1.0" encoding="UTF-8"?>
<svg xmlns="http://www.w3.org/2000/svg" width="193" height="47" fill="none">
  <g clip-path="url(#a)" fill-rule="evenodd" clip-rule="evenodd" fill="#fff" fill-opacity=".7">
    <path d="m123.494 31.492-11.515-16.818h-11.49v24.683h8.411V22.455l10.692 16.902h12.065V14.674h-8.163v16.818Zm-35.369.064-11.55-16.882H65.12v24.683h8.411V22.524l10.664 16.833h12.093V14.674h-8.163v16.882ZM52.01 39.357h8.657V14.674H52.01v24.683ZM39.64 28.638 32.058 8.38H19.604v20.24L9.192.633.515.638l14.362 38.719H27.52V18.298l7.71 21.059h12.574V8.38H39.64v20.257Zm96.474-13.964v24.683h20.531v-5.808h-12.368v-3.63h10.636v-5.807h-10.636v-3.63h12.368v-5.808h-20.531Zm55.922 30.975L178.92 30.233c2.709-1.318 4.819-3.895 4.819-7.16 0-4.535-3.932-8.4-8.587-8.4h-14.31v24.684h8.163V29.27l13.82 16.38h9.211Zm-18.555-20.086h-4.476v-5.081h4.476c1.351 0 2.45 1.124 2.45 2.54 0 1.417-1.099 2.541-2.45 2.541Z" style="fill:#fff;fill-opacity:.7"></path>
  </g>
  <defs>
    <clipPath id="a">
      <path fill="#fff" style="fill:#fff;fill-opacity:1" transform="translate(.5 .5)" d="M0 0h192v46H0z"></path>
    </clipPath>
  </defs>
</svg>
