<?xml version="1.0" encoding="UTF-8"?> <svg xmlns="http://www.w3.org/2000/svg" width="200" height="23" viewBox="0 0 200 23" fill="none"><path d="M17.405 23L3.70008 9.28616V22.282H0V0.0239317L13.6806 13.7138V0.741935H17.405V23Z" fill="white"></path><path d="M32.8261 22.7128C31.2357 22.7128 29.7427 22.4256 28.347 21.8512C26.9514 21.2608 25.718 20.4551 24.6469 19.4339C23.5921 18.4128 22.7644 17.2241 22.164 15.8678C21.5798 14.5116 21.2877 13.0597 21.2877 11.512C21.2877 9.96427 21.5798 8.51231 22.164 7.15609C22.7644 5.79986 23.5921 4.61117 24.6469 3.59001C25.718 2.56885 26.9514 1.77107 28.347 1.19667C29.7427 0.606313 31.2357 0.311134 32.8261 0.311134C34.4327 0.311134 35.9338 0.606313 37.3295 1.19667C38.7251 1.77107 39.9504 2.56885 41.0052 3.59001C42.06 4.61117 42.8796 5.79986 43.4638 7.15609C44.0643 8.51231 44.3645 9.96427 44.3645 11.512C44.3645 13.0597 44.0643 14.5116 43.4638 15.8678C42.8796 17.2241 42.06 18.4128 41.0052 19.4339C39.9504 20.4551 38.7251 21.2608 37.3295 21.8512C35.9338 22.4256 34.4327 22.7128 32.8261 22.7128ZM32.8261 18.9553C34.2055 18.9553 35.4551 18.6202 36.5748 17.9501C37.6946 17.2799 38.5791 16.3784 39.2282 15.2456C39.8936 14.1127 40.2262 12.8682 40.2262 11.512C40.2262 10.1238 39.8936 8.87131 39.2282 7.75442C38.5791 6.63753 37.6946 5.74401 36.5748 5.07388C35.4551 4.40374 34.2055 4.06868 32.8261 4.06868C31.4304 4.06868 30.1727 4.40374 29.053 5.07388C27.9332 5.74401 27.0487 6.64551 26.3996 7.77835C25.7505 8.89525 25.4259 10.1398 25.4259 11.512C25.4259 12.8841 25.7505 14.1367 26.3996 15.2695C27.0487 16.3864 27.9332 17.2799 29.053 17.9501C30.1727 18.6202 31.4304 18.9553 32.8261 18.9553Z" fill="white"></path><path d="M48.3399 22.282V0.741935H54.7177C56.2594 0.741935 57.5739 1.04509 58.6612 1.6514C59.7648 2.24176 60.6086 3.03954 61.1929 4.04474C61.7771 5.03399 62.0692 6.11897 62.0692 7.29969C62.0692 8.43253 61.7933 9.46167 61.2416 10.3871C60.706 11.2966 59.9514 12.0305 58.9777 12.589L65.1607 22.282H60.7547L55.3506 13.666H52.1861V22.282H48.3399ZM52.1861 10.3871H54.6447C55.4723 10.3871 56.1458 10.2355 56.6651 9.93236C57.2007 9.6292 57.5983 9.23829 57.8579 8.75962C58.1176 8.28096 58.2474 7.79431 58.2474 7.29969C58.2474 6.42213 57.9147 5.69615 57.2494 5.12175C56.584 4.54735 55.7158 4.26014 54.6447 4.26014H52.1861V10.3871Z" fill="white"></path><path d="M67.6079 22.282V0.741935H74.9837C76.7851 0.741935 78.4079 1.03711 79.8523 1.62747C81.2966 2.20187 82.53 2.99167 83.5524 3.99688C84.591 4.98612 85.3781 6.13493 85.9136 7.44329C86.4654 8.73569 86.7412 10.0919 86.7412 11.512C86.7412 12.932 86.4654 14.2962 85.9136 15.6046C85.3781 16.897 84.591 18.0458 83.5524 19.051C82.53 20.0402 81.2966 20.83 79.8523 21.4204C78.4079 21.9948 76.7851 22.282 74.9837 22.282H67.6079ZM71.4541 18.7638H74.6186C75.9656 18.7638 77.134 18.5643 78.1239 18.1655C79.1139 17.7666 79.9415 17.232 80.6069 16.5619C81.2723 15.8758 81.7672 15.102 82.0918 14.2404C82.4164 13.3628 82.5787 12.4533 82.5787 11.512C82.5787 10.5706 82.4164 9.66909 82.0918 8.80749C81.7672 7.92993 81.2723 7.14811 80.6069 6.46202C79.9415 5.77593 79.1139 5.24141 78.1239 4.85848C77.134 4.45959 75.9656 4.26014 74.6186 4.26014H71.4541V18.7638Z" fill="white"></path><path d="M90.7821 22.282V0.741935H94.8717V22.282H90.7821Z" fill="white"></path><path d="M110.464 22.7128C108.874 22.7128 107.381 22.4256 105.985 21.8512C104.589 21.2608 103.356 20.4551 102.285 19.4339C101.23 18.4128 100.402 17.2241 99.8018 15.8678C99.2176 14.5116 98.9255 13.0597 98.9255 11.512C98.9255 9.96427 99.2176 8.51231 99.8018 7.15609C100.402 5.79986 101.23 4.61117 102.285 3.59001C103.356 2.56885 104.589 1.77107 105.985 1.19667C107.381 0.606313 108.874 0.311134 110.464 0.311134C111.941 0.311134 113.328 0.558446 114.627 1.05307C115.925 1.53174 117.085 2.21783 118.108 3.11134L116.963 7.68262C116.33 6.64551 115.462 5.78391 114.359 5.09781C113.255 4.41172 111.989 4.06868 110.561 4.06868C109.182 4.06868 107.932 4.40374 106.813 5.07388C105.693 5.74401 104.8 6.63753 104.135 7.75442C103.486 8.87131 103.161 10.1238 103.161 11.512C103.161 12.8841 103.486 14.1367 104.135 15.2695C104.8 16.3864 105.693 17.2799 106.813 17.9501C107.932 18.6202 109.182 18.9553 110.561 18.9553C111.973 18.9553 113.231 18.6122 114.334 17.9261C115.454 17.2241 116.33 16.3625 116.963 15.3413L118.108 19.9126C117.085 20.7901 115.925 21.4762 114.627 21.9709C113.328 22.4655 111.941 22.7128 110.464 22.7128Z" fill="white"></path><path d="M121.528 22.282V0.741935H127.905C129.447 0.741935 130.762 1.04509 131.849 1.6514C132.952 2.24176 133.796 3.03954 134.381 4.04474C134.965 5.03399 135.257 6.11897 135.257 7.29969C135.257 8.43253 134.981 9.46167 134.429 10.3871C133.894 11.2966 133.139 12.0305 132.165 12.589L138.348 22.282H133.942L128.538 13.666H125.374V22.282H121.528ZM125.374 10.3871H127.832C128.66 10.3871 129.334 10.2355 129.853 9.93236C130.388 9.6292 130.786 9.23829 131.046 8.75962C131.305 8.28096 131.435 7.79431 131.435 7.29969C131.435 6.42213 131.102 5.69615 130.437 5.12175C129.772 4.54735 128.903 4.26014 127.832 4.26014H125.374V10.3871Z" fill="white"></path><path d="M138.605 22.282L148.147 0H148.196L157.762 22.282H153.746L151.872 17.8064H144.35L142.475 22.282H138.605ZM145.689 14.6472H150.533L149.389 11.9428C149.145 11.3684 148.918 10.8099 148.707 10.2674C148.496 9.70898 148.293 9.06278 148.098 8.32882C147.904 9.06278 147.701 9.701 147.49 10.2435C147.295 10.786 147.076 11.3524 146.833 11.9428L145.689 14.6472Z" fill="white"></path><path d="M178.055 23L164.35 9.28616V22.282H160.65V0.0239317L174.331 13.7138V0.741935H178.055V23Z" fill="white"></path><path d="M195.302 22.282L186.977 8.99896L193.403 0.741935H197.98L191.553 8.95109L200 22.282H195.302ZM183.106 22.282V0.741935H187.074V22.282H183.106Z" fill="white"></path></svg> 