<?xml version="1.0" encoding="UTF-8"?><svg id="Lager_2" xmlns="http://www.w3.org/2000/svg" viewBox="0 0 421.96 170.82"><defs><style>.cls-1{fill:#fff;}</style></defs><g id="Lager_1-2"><path class="cls-1" d="M10.16,164.65c.54.96,1.14,1.73,1.82,2.31.69.58,1.5.87,2.43.87.77,0,1.39-.2,1.84-.59.47-.41.71-.94.71-1.61,0-.61-.15-1.1-.45-1.46-.3-.38-.72-.69-1.25-.94-.52-.27-1.13-.53-1.82-.78-.41-.14-.87-.33-1.37-.57-.5-.24-.98-.53-1.44-.9-.46-.38-.83-.84-1.13-1.39-.3-.55-.45-1.21-.45-1.98,0-.88.23-1.65.68-2.31.46-.68,1.07-1.2,1.84-1.56.79-.38,1.68-.57,2.67-.57s1.83.17,2.55.52c.72.35,1.33.79,1.82,1.32.5.54.9,1.09,1.18,1.68l-2.27,1.28c-.35-.6-.78-1.13-1.3-1.61-.52-.47-1.2-.71-2.03-.71-.77,0-1.34.18-1.7.54-.36.36-.54.77-.54,1.23,0,.65.29,1.2.87,1.65.58.46,1.54.91,2.88,1.37.66.22,1.31.53,1.96.94.65.41,1.18.94,1.61,1.61.42.65.64,1.45.64,2.41,0,1.02-.27,1.9-.8,2.64-.52.74-1.2,1.31-2.03,1.7-.83.39-1.72.59-2.67.59s-1.86-.19-2.69-.57c-.82-.39-1.54-.9-2.17-1.53-.61-.65-1.1-1.35-1.46-2.13l2.08-1.46Z"/><path class="cls-1" d="M30.05,156.04v-2.57h11.52v2.57h-4.37v13.95h-2.81v-13.95h-4.34Z"/><path class="cls-1" d="M50.42,161.73c0-1.23.21-2.36.64-3.4.42-1.05,1.02-1.96,1.79-2.72.79-.77,1.7-1.37,2.74-1.79,1.04-.42,2.17-.64,3.4-.64s2.36.21,3.4.64c1.05.43,1.97,1.02,2.74,1.79.79.76,1.39,1.66,1.82,2.72.43,1.04.64,2.17.64,3.4s-.21,2.37-.64,3.42c-.43,1.04-1.02,1.95-1.79,2.74-.77.77-1.68,1.38-2.74,1.82-1.04.43-2.18.64-3.42.64s-2.38-.21-3.42-.64c-1.04-.44-1.94-1.05-2.72-1.82-.77-.79-1.37-1.7-1.79-2.74-.43-1.05-.64-2.2-.64-3.42ZM53.38,161.73c0,1.13.24,2.15.71,3.05.49.88,1.16,1.57,2.01,2.08.85.5,1.82.76,2.9.76s2.07-.25,2.9-.76c.85-.5,1.51-1.2,1.98-2.08.49-.9.73-1.91.73-3.05s-.24-2.14-.71-3.02c-.47-.9-1.13-1.6-1.98-2.1-.83-.5-1.81-.76-2.93-.76s-2.05.25-2.9.76c-.85.5-1.52,1.2-2.01,2.1-.47.88-.71,1.89-.71,3.02Z"/><path class="cls-1" d="M79.27,153.46h5.1c1.21,0,2.26.21,3.14.64.9.42,1.59,1.02,2.08,1.79.49.77.73,1.68.73,2.71,0,1.2-.33,2.22-.99,3.07-.65.83-1.54,1.42-2.69,1.75l4.67,6.56h-3.38l-4.16-6.26h-1.72v6.26h-2.79v-16.53ZM84.25,155.89h-2.2v5.52h2.2c.96,0,1.73-.24,2.31-.71.58-.49.87-1.17.87-2.05s-.29-1.56-.87-2.03c-.58-.49-1.35-.73-2.31-.73Z"/><path class="cls-1" d="M102.26,153.46h2.86v6.87l6.14-6.87h3.35l-6.96,7.74,7.32,8.78h-3.42l-6.42-7.7v7.7h-2.86v-16.53Z"/><path class="cls-1" d="M133.27,150.2c0-.44.16-.81.47-1.11.31-.3.69-.45,1.13-.45s.83.15,1.13.45c.31.3.47.67.47,1.11s-.16.81-.47,1.11c-.3.3-.68.45-1.13.45s-.82-.15-1.13-.45c-.31-.3-.47-.67-.47-1.11ZM128.12,150.2c0-.44.16-.81.47-1.11.33-.3.72-.45,1.16-.45s.83.15,1.13.45c.32.3.47.67.47,1.11s-.16.81-.47,1.11c-.3.3-.68.45-1.13.45s-.83-.15-1.16-.45c-.31-.3-.47-.67-.47-1.11ZM123.73,161.73c0-1.23.21-2.36.64-3.4.43-1.05,1.02-1.96,1.79-2.72.79-.77,1.7-1.37,2.74-1.79,1.04-.42,2.17-.64,3.4-.64s2.36.21,3.4.64c1.05.43,1.97,1.02,2.74,1.79.79.76,1.39,1.66,1.82,2.72.43,1.04.64,2.17.64,3.4s-.21,2.37-.64,3.42c-.42,1.04-1.02,1.95-1.79,2.74-.77.77-1.68,1.38-2.74,1.82-1.04.43-2.18.64-3.42.64s-2.38-.21-3.42-.64c-1.04-.44-1.94-1.05-2.72-1.82-.77-.79-1.37-1.7-1.79-2.74-.43-1.05-.64-2.2-.64-3.42ZM126.68,161.73c0,1.13.24,2.15.71,3.05.49.88,1.16,1.57,2.01,2.08.85.5,1.82.76,2.9.76s2.07-.25,2.9-.76c.85-.5,1.51-1.2,1.98-2.08.49-.9.73-1.91.73-3.05s-.24-2.14-.71-3.02c-.47-.9-1.13-1.6-1.98-2.1-.83-.5-1.81-.76-2.93-.76s-2.05.25-2.9.76c-.85.5-1.52,1.2-2.01,2.1-.47.88-.71,1.89-.71,3.02Z"/><path class="cls-1" d="M152.57,153.46h2.86v6.87l6.14-6.87h3.35l-6.96,7.74,7.32,8.78h-3.42l-6.42-7.7v7.7h-2.86v-16.53Z"/><path class="cls-1" d="M177.25,164.65c.54.96,1.14,1.73,1.82,2.31.69.58,1.5.87,2.43.87.77,0,1.38-.2,1.84-.59.47-.41.71-.94.71-1.61,0-.61-.15-1.1-.45-1.46-.3-.38-.72-.69-1.25-.94-.52-.27-1.13-.53-1.82-.78-.41-.14-.87-.33-1.37-.57-.5-.24-.98-.53-1.44-.9-.46-.38-.83-.84-1.13-1.39-.3-.55-.45-1.21-.45-1.98,0-.88.23-1.65.68-2.31.46-.68,1.07-1.2,1.84-1.56.79-.38,1.68-.57,2.67-.57s1.83.17,2.55.52c.72.35,1.33.79,1.82,1.32.5.54.9,1.09,1.18,1.68l-2.27,1.28c-.35-.6-.78-1.13-1.3-1.61-.52-.47-1.2-.71-2.03-.71-.77,0-1.34.18-1.7.54-.36.36-.54.77-.54,1.23,0,.65.29,1.2.87,1.65.58.46,1.54.91,2.88,1.37.66.22,1.31.53,1.96.94.65.41,1.18.94,1.61,1.61.42.65.64,1.45.64,2.41,0,1.02-.27,1.9-.8,2.64-.52.74-1.2,1.31-2.03,1.7-.83.39-1.72.59-2.67.59s-1.86-.19-2.69-.57c-.82-.39-1.54-.9-2.17-1.53-.61-.65-1.1-1.35-1.46-2.13l2.08-1.46Z"/><path class="cls-1" d="M206.64,163.71v-2.36h7.96c.03,1.21-.13,2.36-.47,3.45-.35,1.07-.87,2.02-1.56,2.86-.69.83-1.55,1.5-2.57,1.98-1.02.47-2.2.71-3.52.71-1.24,0-2.39-.2-3.45-.61-1.05-.43-1.98-1.02-2.76-1.79-.77-.77-1.37-1.68-1.79-2.74-.43-1.05-.64-2.21-.64-3.47s.21-2.41.64-3.45c.44-1.06,1.05-1.96,1.82-2.72.79-.76,1.71-1.34,2.76-1.75,1.07-.42,2.23-.64,3.47-.64,1.62,0,3.03.32,4.23.97,1.2.65,2.16,1.54,2.88,2.69l-2.27,1.53c-.46-.79-1.09-1.42-1.91-1.89-.8-.49-1.78-.73-2.93-.73-1.07,0-2.05.25-2.93.76-.87.49-1.56,1.18-2.08,2.08-.5.88-.76,1.93-.76,3.14s.25,2.25.76,3.16c.5.9,1.19,1.6,2.05,2.1.88.5,1.86.76,2.95.76.99,0,1.84-.18,2.55-.54.71-.36,1.28-.85,1.72-1.46.44-.61.75-1.29.92-2.03h-5.08Z"/><path class="cls-1" d="M226.41,153.46h5.1c1.21,0,2.26.21,3.14.64.9.42,1.59,1.02,2.08,1.79.49.77.73,1.68.73,2.71,0,1.2-.33,2.22-.99,3.07-.65.83-1.54,1.42-2.69,1.75l4.67,6.56h-3.38l-4.16-6.26h-1.72v6.26h-2.79v-16.53ZM231.39,155.89h-2.2v5.52h2.2c.96,0,1.73-.24,2.31-.71.58-.49.87-1.17.87-2.05s-.29-1.56-.87-2.03c-.58-.49-1.35-.73-2.31-.73Z"/><path class="cls-1" d="M248.45,161.73c0-1.23.21-2.36.64-3.4.43-1.05,1.02-1.96,1.79-2.72.79-.77,1.7-1.37,2.74-1.79,1.04-.42,2.17-.64,3.4-.64s2.36.21,3.4.64c1.05.43,1.97,1.02,2.74,1.79.79.76,1.39,1.66,1.82,2.72.43,1.04.64,2.17.64,3.4s-.21,2.37-.64,3.42c-.42,1.04-1.02,1.95-1.79,2.74-.77.77-1.68,1.38-2.74,1.82-1.04.43-2.18.64-3.42.64s-2.38-.21-3.42-.64c-1.04-.44-1.94-1.05-2.72-1.82-.77-.79-1.37-1.7-1.79-2.74-.43-1.05-.64-2.2-.64-3.42ZM251.4,161.73c0,1.13.24,2.15.71,3.05.49.88,1.16,1.57,2.01,2.08.85.5,1.82.76,2.9.76s2.07-.25,2.9-.76c.85-.5,1.51-1.2,1.98-2.08.49-.9.73-1.91.73-3.05s-.24-2.14-.71-3.02c-.47-.9-1.13-1.6-1.98-2.1-.83-.5-1.81-.76-2.93-.76s-2.05.25-2.9.76c-.85.5-1.52,1.2-2.01,2.1-.47.88-.71,1.89-.71,3.02Z"/><path class="cls-1" d="M278.38,164.65c.53.96,1.14,1.73,1.82,2.31.69.58,1.5.87,2.43.87.77,0,1.39-.2,1.84-.59.47-.41.71-.94.71-1.61,0-.61-.15-1.1-.45-1.46-.3-.38-.72-.69-1.25-.94-.52-.27-1.13-.53-1.82-.78-.41-.14-.87-.33-1.37-.57-.5-.24-.98-.53-1.44-.9-.46-.38-.83-.84-1.13-1.39-.3-.55-.45-1.21-.45-1.98,0-.88.23-1.65.68-2.31.46-.68,1.07-1.2,1.84-1.56.79-.38,1.68-.57,2.67-.57s1.83.17,2.55.52c.72.35,1.33.79,1.82,1.32.5.54.9,1.09,1.18,1.68l-2.27,1.28c-.35-.6-.78-1.13-1.3-1.61-.52-.47-1.2-.71-2.03-.71-.77,0-1.34.18-1.7.54-.36.36-.54.77-.54,1.23,0,.65.29,1.2.87,1.65.58.46,1.54.91,2.88,1.37.66.22,1.31.53,1.96.94.64.41,1.18.94,1.6,1.61.43.65.64,1.45.64,2.41,0,1.02-.27,1.9-.8,2.64-.52.74-1.2,1.31-2.03,1.7-.83.39-1.72.59-2.67.59s-1.86-.19-2.69-.57c-.82-.39-1.54-.9-2.17-1.53-.61-.65-1.1-1.35-1.46-2.13l2.08-1.46Z"/><path class="cls-1" d="M301,164.65c.54.96,1.14,1.73,1.82,2.31.69.58,1.5.87,2.43.87.77,0,1.39-.2,1.84-.59.47-.41.71-.94.71-1.61,0-.61-.15-1.1-.45-1.46-.3-.38-.72-.69-1.25-.94-.52-.27-1.13-.53-1.82-.78-.41-.14-.87-.33-1.37-.57-.5-.24-.98-.53-1.44-.9-.46-.38-.83-.84-1.13-1.39-.3-.55-.45-1.21-.45-1.98,0-.88.23-1.65.68-2.31.46-.68,1.07-1.2,1.84-1.56.79-.38,1.68-.57,2.67-.57s1.83.17,2.55.52c.72.35,1.33.79,1.82,1.32.5.54.9,1.09,1.18,1.68l-2.27,1.28c-.35-.6-.78-1.13-1.3-1.61-.52-.47-1.2-.71-2.03-.71-.77,0-1.34.18-1.7.54-.36.36-.54.77-.54,1.23,0,.65.29,1.2.87,1.65.58.46,1.54.91,2.88,1.37.66.22,1.31.53,1.96.94.65.41,1.18.94,1.61,1.61.43.65.64,1.45.64,2.41,0,1.02-.27,1.9-.8,2.64-.52.74-1.2,1.31-2.03,1.7-.83.39-1.72.59-2.67.59s-1.86-.19-2.69-.57c-.82-.39-1.54-.9-2.17-1.53-.61-.65-1.1-1.35-1.46-2.13l2.08-1.46Z"/><path class="cls-1" d="M322.54,153.46h2.81v16.53h-2.81v-16.53Z"/><path class="cls-1" d="M339.1,164.65c.53.96,1.14,1.73,1.82,2.31.69.58,1.5.87,2.43.87.77,0,1.39-.2,1.84-.59.47-.41.71-.94.71-1.61,0-.61-.15-1.1-.45-1.46-.3-.38-.72-.69-1.25-.94-.52-.27-1.13-.53-1.82-.78-.41-.14-.87-.33-1.37-.57-.5-.24-.98-.53-1.44-.9-.46-.38-.83-.84-1.13-1.39-.3-.55-.45-1.21-.45-1.98,0-.88.23-1.65.68-2.31.46-.68,1.07-1.2,1.84-1.56.79-.38,1.68-.57,2.67-.57s1.83.17,2.55.52c.72.35,1.33.79,1.82,1.32.5.54.9,1.09,1.18,1.68l-2.27,1.28c-.35-.6-.78-1.13-1.3-1.61-.52-.47-1.2-.71-2.03-.71-.77,0-1.34.18-1.7.54-.36.36-.54.77-.54,1.23,0,.65.29,1.2.87,1.65.58.46,1.54.91,2.88,1.37.66.22,1.31.53,1.96.94.65.41,1.18.94,1.61,1.61.42.65.64,1.45.64,2.41,0,1.02-.27,1.9-.8,2.64-.52.74-1.2,1.31-2.03,1.7-.83.39-1.72.59-2.67.59s-1.86-.19-2.69-.57c-.82-.39-1.54-.9-2.17-1.53-.61-.65-1.1-1.35-1.46-2.13l2.08-1.46Z"/><path class="cls-1" d="M358.98,156.04v-2.57h11.52v2.57h-4.37v13.95h-2.81v-13.95h-4.34Z"/><path class="cls-1" d="M381.48,153.46h10.06v2.46h-7.32v4.01h6.85v2.41h-6.85v5.19h7.32v2.46h-10.06v-16.53Z"/><path class="cls-1" d="M416,153.46h2.74v17.35l-12.06-11.92v11.1h-2.74v-17.35l12.06,11.92v-11.1Z"/><path class="cls-1" d="M109.9,57.23c2.62.95,5.47-.59,6.42-3.21l6.78-21.42c-2.02-3.45-4.4-6.78-7.02-9.76l-9.28,28.2c-.83,2.5.48,5.35,3.09,6.19Z"/><path class="cls-1" d="M90.99,50.81c2.62.83,5.35-.48,6.3-3.09l11.3-32.24c-2.5-2.14-5.23-4.05-8.09-5.83l-12.61,34.74c-.95,2.62.48,5.59,3.09,6.43Z"/><path class="cls-1" d="M125.95,63.42c-2.97,10.35-11.54,17.61-21.41,19.28-5.11.95-9.28,4.76-10.82,9.76l-10.82,37.36c-.24.12-.48.12-.83.24,28.66-7.26,49.95-33.2,49.95-64.13,0-5.71-.71-11.3-2.14-16.66l-3.92,14.16Z"/><path class="cls-1" d="M17.48,102.45c1.9-5,.83-10.47-2.74-14.52-7.02-7.73-9.63-19.28-5.83-30.34,7.61-22.49,27.83-42.24,42.7-37.12,14.87,5,18.79,32.96,11.18,55.57-3.81,11.07-13.44,19.75-23.67,21.54-5.23.95-8.8,4.88-11.18,10.11l-4.16,9.16c11.3,9.4,25.69,15.11,41.51,15.23h-.48l17.72-43.31c1.9-4.88.95-10.47-2.5-14.4-6.78-7.38-9.16-18.32-5.11-28.32L91.34,5c-7.73-3.21-16.29-5-25.33-5C29.61,0,0,29.51,0,66.04c0,15.83,5.59,30.22,14.75,41.64l2.74-5.23Z"/><path class="cls-1" d="M177.56,85.49c2.91,5.11,6.26,9.25,10.05,12.43,3.88,3.17,8.29,4.76,13.22,4.76,3.88,0,6.96-.97,9.25-2.91,2.29-2.03,3.44-4.67,3.44-7.93,0-2.82-.75-5.11-2.25-6.87-1.41-1.85-3.53-3.44-6.35-4.76-2.82-1.41-6.3-2.91-10.44-4.49-2.29-.88-4.85-1.98-7.67-3.31-2.82-1.32-5.55-3.04-8.2-5.16-2.56-2.2-4.67-4.85-6.35-7.93-1.67-3.17-2.51-6.96-2.51-11.37,0-5.2,1.32-9.7,3.97-13.49,2.73-3.88,6.39-6.87,10.97-8.99,4.67-2.12,9.92-3.17,15.73-3.17s10.88,1.01,15.2,3.04c4.32,1.94,7.89,4.45,10.71,7.54,2.91,3,5.16,6.08,6.74,9.25l-14.81,8.46c-1.94-3.35-4.36-6.17-7.27-8.46-2.91-2.38-6.43-3.57-10.58-3.57-3.7,0-6.48.88-8.33,2.64-1.85,1.67-2.78,3.66-2.78,5.95,0,3.44,1.72,6.3,5.16,8.59,3.44,2.2,8.64,4.5,15.6,6.87,4.05,1.41,7.84,3.35,11.37,5.82,3.61,2.38,6.52,5.42,8.73,9.12,2.29,3.61,3.44,8.02,3.44,13.22,0,5.99-1.54,11.11-4.63,15.34-3.08,4.23-7.14,7.45-12.16,9.65-4.94,2.2-10.18,3.31-15.73,3.31s-11.06-1.06-16-3.17c-4.85-2.12-9.12-4.98-12.82-8.59-3.61-3.61-6.43-7.62-8.46-12.03l13.75-9.78Z"/><path class="cls-1" d="M250.71,24.14h19.57v37.55l32.92-37.55h22.61l-38.34,43.36,40.19,49.18h-23l-34.37-41.91v41.91h-19.57V24.14Z"/><path class="cls-1" d="M376.17,82.31v-15.07h45.74c.26,7.05-.57,13.71-2.51,19.96-1.94,6.26-4.89,11.77-8.86,16.53-3.97,4.76-8.9,8.51-14.81,11.24-5.91,2.73-12.69,4.1-20.36,4.1-9.61,0-18.16-2.03-25.65-6.08-7.4-4.14-13.22-9.87-17.45-17.19-4.23-7.32-6.35-15.78-6.35-25.38s2.16-18.02,6.48-25.25c4.32-7.23,10.22-12.82,17.72-16.79,7.58-4.05,16.17-6.08,25.78-6.08s17.54,1.94,24.33,5.82c6.79,3.79,12.29,8.9,16.53,15.34l-16.26,9.52c-2.38-3.97-5.6-7.23-9.65-9.78-3.97-2.64-8.95-3.97-14.94-3.97-5.55,0-10.62,1.28-15.2,3.83-4.58,2.47-8.24,6.04-10.97,10.71-2.64,4.67-3.97,10.22-3.97,16.66s1.32,12.03,3.97,16.79c2.64,4.76,6.21,8.46,10.71,11.11,4.58,2.56,9.74,3.83,15.47,3.83,7.58,0,13.53-1.89,17.85-5.68,4.41-3.88,7.36-8.59,8.86-14.15h-26.44Z"/></g></svg>