<?xml version="1.0" encoding="utf-8"?>
<!-- Generator: Adobe Illustrator 28.3.0, SVG Export Plug-In . SVG Version: 6.00 Build 0)  -->
<svg version="1.1" id="Layer_1" xmlns="http://www.w3.org/2000/svg" xmlns:xlink="http://www.w3.org/1999/xlink" x="0px" y="0px"
	 viewBox="0 0 709 78.9" enable-background="new 0 0 709 78.9" xml:space="preserve">
<g>
	<g>
		
		<path fill="#FFFFFF" d="M628.8,74.3c-0.6,0-1,0.1-1.3,0.1c-5.9,0-11.8,0-17.8,0c-0.6,0-1.4-0.3-1.9-0.7c-8.4-7.2-16.8-14.4-25.1-21.7
			c-0.9-0.8-1.7-1.1-2.9-1.1c-2.5,0.1-5,0-7.6,0c0-4.4,0-8.6,0-13c0.5,0,1,0,1.4,0c9.1,0,18.2,0,27.3,0c3.2,0,6.1-1,8.5-3.2
			c2-1.9,3-4.3,3.1-7c0.1-3.2,0.1-6.4,0-9.6c0-1.6-0.8-2.4-2.5-2.4c-14.2,0-28.4,0-42.6,0c-0.2,0-0.4,0-0.7,0.1c0,19.5,0,39,0,58.6
			c-4.4,0-8.7,0-13.1,0c0-0.5,0-0.9,0-1.3c0-21,0-42.1,0-63.1c0-4.7,2.6-7.2,7.3-7.2c16.3,0,32.5,0,48.8,0c6,0,10.6,2.4,13.6,7.6
			c1.3,2.2,2,4.6,2.1,7.2c0.1,3.9,0.2,7.8,0,11.7c-0.6,11.1-7.9,18.4-17.6,21c-1.9,0.5-4,0.7-6.2,1.1
			C610.8,58.8,619.6,66.4,628.8,74.3z"/>
		<path fill="#FFFFFF" d="M310.7,74.3c0-4.4,0-8.6,0-12.9c0.5,0,1,0,1.5,0c16.3,0,32.6,0,48.9,0c4.1,0,6.9-2.3,7.6-6.1c0.8-4.3-1-8.3-4.6-9.6
			c-1.1-0.4-2.3-0.6-3.5-0.6c-10,0-20.1,0.1-30.1-0.1c-9.6-0.2-17.3-5.9-19.6-14.5c-1.9-7.3-1.2-14.4,3.9-20.5
			c4.1-4.9,9.6-7.2,15.9-7.3c14.5-0.1,29,0,43.5,0c0.3,0,0.6,0,1,0.1c0,4.3,0,8.5,0,13c-0.5,0-0.9,0-1.4,0c-14.3,0-28.5,0-42.8,0
			c-3.6,0-6.2,1.5-7.3,4.5c-1.4,3.5-0.7,7.7,1.7,9.9c1.4,1.4,3.2,1.9,5.2,1.9c10,0,20-0.2,30,0.1c8.4,0.2,15.2,3.7,19.1,11.4
			c4,7.7,2.6,18.2-3.2,24.4c-4,4.3-9.2,6.5-15.1,6.6c-16.6,0.1-33.2,0-49.8,0C311.4,74.3,311.1,74.3,310.7,74.3z"/>
		<path fill="#FFFFFF" d="M503.3,75.2c-4.4,0-8.7,0.2-13.1,0c-12.9-0.7-23.9-10.3-26.3-23c-0.5-2.4-0.7-4.9-0.7-7.4c-0.1-4.9-0.2-9.8,0-14.7
			c0.6-14.6,10-25.4,24.3-28.1c1.9-0.3,3.8-0.5,5.7-0.5c6.8,0,13.5-0.1,20.3,0.2c13.6,0.6,24.7,10.6,26.9,24
			c0.3,1.9,0.5,3.8,0.5,5.7c0.1,5.3,0.1,10.6,0,15.9C540.5,61.5,530,73.1,516,74.9c-4.2,0.5-8.4,0.4-12.7,0.6
			C503.3,75.4,503.3,75.3,503.3,75.2z M502.1,62.1c0,0.1,0,0.2,0,0.2c2.8,0,5.6,0,8.4,0c10.6-0.1,17.4-6.6,17.5-16.8
			c0-4.7,0-9.5,0-14.2c-0.1-10-6.9-16.7-17-16.7c-6.1,0-12.2,0-18.3,0c-9.3,0-16.2,6.9-16.3,16.2c0,5.1,0,10.2,0,15.3
			c0.1,8.4,5.6,14.9,13.9,15.9C494.1,62.5,498.1,62.1,502.1,62.1z"/>
		<path fill="#FFFFFF" d="M300.3,2.6c0,4.4,0,8.6,0,13c-17.3,0-34.7,0-52.1,0c0,0.6-0.1,1-0.1,1.4c0,12.9,0,25.9,0,38.8c0,3.9,1.7,5.6,5.6,5.6
			c15,0,30,0,45,0c0.5,0,0.9,0,1.5,0c0,4.3,0,8.6,0,12.9c-0.4,0-0.8,0.1-1.2,0.1c-15.4,0-30.7,0-46.1,0c-7.5,0-14.1-4.4-16.7-11
			c-1-2.4-1.3-4.9-1.3-7.5c0-15.4,0-30.8,0-46.2c0-4.4,2.7-7.1,7-7.1c19,0,38.1,0,57.1,0C299.5,2.6,299.8,2.6,300.3,2.6z"/>
		<path fill="#FFFFFF" d="M703.8,61.3c0,4.4,0,8.6,0,13c-0.5,0-0.9,0-1.3,0c-15.3,0-30.5,0.1-45.8,0c-7.5-0.1-13.2-3.5-16.6-10.4
			c-1.1-2.2-1.5-4.5-1.5-7c0-16,0-31.9,0-47.9c0-3.5,2.5-6.2,6.1-6.4c0.4,0,0.9,0,1.3,0c18.8,0,37.6,0,56.4,0c0.4,0,0.9,0,1.4,0
			c0,4.3,0,8.6,0,13c-17.3,0-34.6,0-52.1,0c0,0.5-0.1,1-0.1,1.4c0,13,0,25.9,0,38.9c0,3.7,1.8,5.5,5.5,5.5c15.1,0,30.1,0,45.2,0
			C702.8,61.3,703.2,61.3,703.8,61.3z"/>
		<path fill="#FFFFFF" d="M147.4,61.3c0,4.4,0,8.6,0,12.9c-0.4,0-0.8,0.1-1.2,0.1c-15.4,0-30.7,0.1-46.1,0c-7.6-0.1-13.3-3.5-16.6-10.5
			c-1-2.2-1.4-4.6-1.4-7.1c0-15.8,0-31.6,0-47.4c0-3.9,2.6-6.6,6.5-6.7c19.3,0,38.7,0,58,0c0.2,0,0.4,0,0.7,0.1c0,4.3,0,8.5,0,12.9
			c-17.3,0-34.7,0-52.1,0c0,0.5-0.1,0.9-0.1,1.4c0,12.9,0,25.8,0,38.7c0,4.1,1.7,5.8,5.7,5.8c15,0,30,0,45,0
			C146.4,61.3,146.8,61.3,147.4,61.3z"/>
		<path fill="#FFFFFF" d="M72.8,2.6c0,4.3,0,8.6,0,12.9c-9.5,0-19,0-28.7,0c0,19.6,0,39.1,0,58.7c-4.4,0-8.6,0-13,0c0-19.5,0-39,0-58.6
			c-9.6,0-19.1,0-28.7,0c0-4.4,0-8.7,0-13C25.9,2.6,49.3,2.6,72.8,2.6z"/>
		<path fill="#FFFFFF" d="M428.2,74.2c-4.4,0-8.7,0-13.1,0c0-19.6,0-39,0-58.6c-9.6,0-19.1,0-28.7,0c0-4.4,0-8.6,0-12.9c23.5,0,46.9,0,70.4,0
			c0,4.2,0,8.5,0,12.9c-9.5,0-19,0-28.6,0C428.2,35.2,428.2,54.7,428.2,74.2z"/>
		<path fill="#FFFFFF" d="M160,2.6c4.4,0,8.7,0,13,0c0,19.5,0,39,0,58.6c17.7,0,35.3,0,53,0c0,4.4,0,8.6,0,13c-0.4,0-0.9,0.1-1.4,0.1
			c-19.2,0-38.4,0-57.6,0c-3.5,0-7.1-2.1-7.1-7.1c0-2.1,0-4.2,0-6.3c0-18.9,0-37.8,0-56.7C160,3.7,160,3.2,160,2.6z"/>
		<path fill="#FFFFFF" d="M100.5,44.9c0-4.4,0-8.6,0-13c13.7,0,27.3,0,41.1,0c0,4.3,0,8.6,0,13C127.9,44.9,114.2,44.9,100.5,44.9z"/>
		<path fill="#FFFFFF" d="M253.4,31.9c13.7,0,27.3,0,41,0c0,4.3,0,8.6,0,13c-13.6,0-27.3,0-41,0C253.4,40.6,253.4,36.3,253.4,31.9z"/>
		<path fill="#FFFFFF" d="M656.9,31.9c13.7,0,27.4,0,41.1,0c0,4.4,0,8.6,0,13c-13.7,0-27.3,0-41.1,0C656.9,40.6,656.9,36.3,656.9,31.9z"/>
		<path fill="#FFFFFF" d="M502.1,62.1c-4,0-7.9,0.4-11.8-0.1c-8.3-1-13.8-7.5-13.9-15.9c0-5.1,0-10.2,0-15.3
			c0.1-9.3,7-16.1,16.3-16.2c6.1,0,12.2,0,18.3,0c10.1,0,16.9,6.7,17,16.7c0,4.7,0,9.5,0,14.2c-0.1,10.2-6.9,16.7-17.5,16.8
			c-2.8,0-5.6,0-8.4,0C502.1,62.3,502.1,62.2,502.1,62.1z"/>
	</g>
</g>
</svg>
